<svg width="465" height="392" viewBox="0 0 465 392" fill="none" xmlns="http://www.w3.org/2000/svg">
<path d="M386.849 370.14L386.044 381.011L369.674 375.576L376.382 367.422L386.849 370.14Z" fill="#FEB8B8"/>
<path d="M446.427 366.607L445.621 377.205L436.496 378.564L431.129 373.401L437.301 363.345L446.427 366.607Z" fill="#FEB8B8"/>
<path d="M453.136 231.265C453.136 231.265 460.382 239.962 451.257 253.279C442.133 266.595 431.13 279.641 431.13 279.641L410.732 318.775C410.732 318.775 400.265 357.095 397.85 358.182C395.434 359.269 394.093 354.921 395.434 359.54C396.776 364.16 395.971 363.889 394.898 364.162C393.824 364.435 390.872 363.89 391.946 365.793C393.019 367.695 393.824 367.695 391.677 367.695C389.53 367.695 388.725 366.337 388.725 368.239C388.725 370.141 386.847 374.489 386.847 374.489C386.847 374.489 373.696 370.685 373.16 369.054C372.623 367.423 376.649 366.608 375.844 364.978C375.039 363.347 374.77 363.347 374.77 360.901C374.77 358.456 376.381 357.912 376.381 357.912C376.381 357.912 377.722 357.368 377.186 356.281C376.649 355.194 374.502 355.738 377.186 354.378C379.869 353.019 390.874 311.438 390.874 311.438C390.874 311.438 390.874 290.781 394.362 283.988C397.851 277.195 395.167 228.819 403.489 228.275C411.811 227.732 453.136 231.265 453.136 231.265Z" fill="#292426"/>
<path d="M450.453 246.756L448.842 288.88C448.842 288.88 456.893 329.646 454.209 342.147C451.526 354.648 453.405 353.018 451.794 355.192C450.184 357.366 448.842 356.279 450.184 358.181C451.525 360.084 452.328 360.627 450.184 362.803C448.039 364.978 446.963 370.141 446.963 370.141L433.277 368.782C433.277 368.782 436.765 362.532 435.421 361.172C434.077 359.813 430.59 361.988 433.277 359.001C435.963 356.014 437.571 357.37 435.96 356.011C434.35 354.653 431.935 355.196 434.082 353.022C436.228 350.848 438.645 350.851 436.497 350.033C434.349 349.215 431.933 350.033 433.008 348.402C434.083 346.771 435.424 344.869 435.424 344.869L432.203 320.138C432.203 320.138 428.446 311.985 429.52 308.452C430.593 304.919 424.956 275.839 424.956 275.839L450.453 246.756Z" fill="#292426"/>
<path d="M444.55 372.042C444.55 372.042 447.233 369.324 448.038 370.955C448.843 372.586 454.746 387.261 451.259 388.348C447.771 389.435 442.671 390.519 439.987 389.706C437.304 388.894 431.668 385.085 424.959 385.085C418.25 385.085 412.614 382.096 412.614 381.009C412.614 379.922 411.541 373.399 416.64 373.399C421.738 373.399 431.131 367.42 431.131 367.42C431.131 367.42 433.276 363.072 434.352 363.344C435.428 363.616 434.62 372.312 434.62 372.312C434.62 372.312 440.791 378.292 444.55 372.042Z" fill="#292426"/>
<path d="M384.971 375.574C384.971 375.574 387.386 369.596 389.801 370.953C392.217 372.311 390.606 389.16 390.606 389.16C390.606 389.16 388.462 392.693 382.287 391.878C376.112 391.063 359.744 389.16 355.987 389.975C352.229 390.79 342.032 386.171 344.715 379.92C344.715 379.92 346.057 376.387 352.498 376.659C358.939 376.93 370.747 369.049 370.747 369.049C370.747 369.049 372.626 363.613 373.163 364.157C373.699 364.7 374.236 374.213 374.236 374.213C374.236 374.213 381.214 378.836 384.971 375.574Z" fill="#292426"/>
<path d="M420.127 125.003C428.724 125.003 435.693 117.946 435.693 109.241C435.693 100.535 428.724 93.4778 420.127 93.4778C411.53 93.4778 404.561 100.535 404.561 109.241C404.561 117.946 411.53 125.003 420.127 125.003Z" fill="#FEB8B8"/>
<path d="M432.203 110.327C432.203 110.327 440.523 127.177 443.475 128.808C446.427 130.439 423.347 140.495 423.347 140.495C423.347 140.495 419.59 123.917 415.028 120.384C410.466 116.851 432.203 110.327 432.203 110.327Z" fill="#FEB8B8"/>
<path d="M408.319 248.114L407.246 258.442C407.246 258.442 395.706 254.365 399.463 246.756L408.319 248.114Z" fill="#FEB8B8"/>
<path d="M403.758 232.624C411.809 241.318 454.478 233.98 454.478 233.98L453.943 227.73L459.311 222.027L457.701 195.392C457.701 195.392 462.529 182.892 463.333 163.868C463.382 162.698 463.312 161.527 463.125 160.372C460.359 143.33 432.957 132.354 432.204 132.612C431.825 132.738 427.792 134.867 423.582 137.106C418.75 139.677 413.689 142.396 413.689 142.396C407.247 144.846 408.321 183.981 406.172 187.514C404.024 191.046 406.172 203.271 406.172 203.271L403.759 214.956C403.759 214.956 395.705 223.93 403.758 232.624Z" fill="#F0F0F0"/>
<path opacity="0.1" d="M429.768 146.348C429.768 146.348 437.282 169.176 435.672 184.667C434.061 200.158 416.617 244.457 416.617 244.457L410.716 247.718V255.327L406.563 243.936L417.983 219.756C417.983 219.756 403.733 136.292 429.768 146.348Z" fill="black"/>
<path opacity="0.1" d="M422.72 139.498C430.506 135.15 442.315 146.569 454.659 158.795C459.093 163.184 461.656 162.742 463.127 160.372C460.36 143.33 432.958 132.354 432.205 132.612C431.826 132.738 427.793 134.867 423.583 137.106L422.72 139.498Z" fill="black"/>
<path d="M422.724 137.397L425.944 128.429C425.944 128.429 447.95 117.83 462.442 128.429L464.857 143.648C464.857 143.648 467.002 168.922 454.659 156.693C442.317 144.463 430.505 133.049 422.724 137.397Z" fill="#F0F0F0"/>
<path d="M428.984 142.668C428.984 142.668 436.498 165.497 434.888 180.988C433.277 196.479 415.833 240.778 415.833 240.778L409.929 244.041V251.651L397.585 248.118L400.268 239.149C400.268 239.149 395.974 233.714 398.927 232.083C401.879 230.452 401.342 221.484 401.342 221.484C401.342 221.484 402.952 132.613 428.984 142.668Z" fill="#F0F0F0"/>
<path d="M434.003 115.839C433.749 114.621 433.784 113.31 433.207 112.211C432.342 110.562 430.355 109.872 428.518 109.709C426.173 109.503 423.81 109.914 421.462 109.751C419.114 109.589 416.605 108.682 415.436 106.614C414.97 105.789 414.74 104.817 414.122 104.101C412.835 102.613 410.489 102.843 408.639 103.481C406.789 104.119 404.86 105.051 402.969 104.552C401.379 100.047 403.337 94.8509 406.723 91.5151C410.11 88.1794 414.677 86.3843 419.213 85.0463C425.195 83.2813 431.928 82.2384 437.428 85.2033C445.405 89.5023 448.219 100.882 447.484 109.363C447.205 112.569 446.751 116.199 444.191 118.363C440.44 121.536 435.136 121.263 434.003 115.839Z" fill="#292426"/>
<path d="M336.34 0.193214H0.144073V218.237H336.34V0.193214Z" fill="#DDDFD7"/>
<rect x="11" y="26" width="317" height="179" fill="white"/>
<path d="M336.196 0H0V14.4638H336.196V0Z" fill="#4E886C"/>
<path d="M66.3116 52.4616L45.3452 73.4288L66.3116 94.3954L71.0291 89.6181L55.1749 73.5608L71.1616 57.3714L66.3116 52.4616Z" fill="#4E886C"/>
<path d="M83.4909 52.4616L104.457 73.4288L83.4909 94.3954L78.7734 89.6181L94.6287 73.5613L78.6409 57.3714L83.4909 52.4616Z" fill="#4E886C"/>
<path d="M151.308 57.7233C149.594 57.7233 148.204 58.7222 148.204 59.9538C148.204 61.1855 149.594 62.1844 151.308 62.1844H297.679C299.394 62.1844 300.784 61.1855 300.784 59.9538C300.784 58.7222 299.394 57.7233 297.679 57.7233H151.308Z" fill="#DDDFD7"/>
<path d="M296.224 179.928H49.9917C47.4746 179.928 45.4348 178.456 45.432 176.643V132.633C45.4348 130.819 47.4746 129.348 49.9917 129.348H296.224C298.741 129.348 300.781 130.819 300.784 132.633V176.642C300.782 178.456 298.741 179.926 296.224 179.928ZM49.9917 130.66C48.4813 130.66 47.2574 131.544 47.2558 132.632V176.641C47.2558 177.729 48.4813 178.611 49.9917 178.612H296.224C297.734 178.612 298.958 177.729 298.96 176.641V132.633C298.96 131.545 297.734 130.663 296.224 130.662L49.9917 130.66Z" fill="#DDDFD7"/>
<path d="M75.348 165.775C81.4321 165.775 86.3642 160.78 86.3642 154.619C86.3642 148.458 81.4321 143.463 75.348 143.463C69.2638 143.463 64.3317 148.458 64.3317 154.619C64.3317 160.78 69.2638 165.775 75.348 165.775Z" fill="#DDDFD7"/>
<path d="M106.419 145.697C105.834 145.696 105.274 145.93 104.86 146.348C104.447 146.766 104.214 147.333 104.213 147.924C104.212 148.516 104.444 149.084 104.856 149.502C105.269 149.921 105.829 150.157 106.413 150.158H210.259C210.843 150.158 211.403 149.923 211.816 149.504C212.23 149.086 212.462 148.519 212.462 147.927C212.462 147.336 212.23 146.768 211.816 146.35C211.403 145.932 210.843 145.697 210.259 145.697H106.419Z" fill="#4E886C"/>
<path d="M106.419 159.08C106.129 159.08 105.843 159.137 105.575 159.249C105.308 159.361 105.065 159.525 104.86 159.732C104.447 160.149 104.214 160.716 104.213 161.308C104.212 161.9 104.444 162.467 104.856 162.886C105.269 163.305 105.829 163.541 106.413 163.541H151.101C151.685 163.542 152.245 163.308 152.659 162.89C153.073 162.472 153.305 161.905 153.306 161.314C153.307 160.722 153.076 160.155 152.663 159.736C152.25 159.317 151.691 159.081 151.106 159.08H106.419Z" fill="#4E886C"/>
<path d="M150.24 71.0864C149.686 71.1316 149.17 71.3861 148.793 71.7995C148.416 72.2128 148.207 72.7545 148.207 73.3169C148.207 73.8792 148.416 74.421 148.793 74.8343C149.17 75.2476 149.686 75.5022 150.24 75.5474H246.167C246.721 75.5022 247.237 75.2476 247.614 74.8343C247.991 74.421 248.2 73.8792 248.2 73.3169C248.2 72.7545 247.991 72.2128 247.614 71.7995C247.237 71.3861 246.721 71.1316 246.167 71.0864H150.24Z" fill="#DDDFD7"/>
<path d="M150.871 84.4494C149.398 84.4494 148.204 85.4483 148.204 86.6799C148.204 87.9115 149.398 88.9104 150.871 88.9104H276.616C278.089 88.9104 279.283 87.9115 279.283 86.6799C279.283 85.4483 278.089 84.4494 276.616 84.4494H150.871Z" fill="#DDDFD7"/>
</svg>
