<svg width="280" height="418" viewBox="0 0 280 418" fill="none" xmlns="http://www.w3.org/2000/svg">
<path d="M144.164 267.471H237.353C240.773 267.471 244.053 268.869 246.472 271.358C248.891 273.846 250.252 277.222 250.256 280.743V280.822H131.262V280.743C131.265 277.222 132.626 273.846 135.046 271.358C137.465 268.869 140.745 267.471 144.164 267.471Z" fill="white" stroke="#DDDFD7" stroke-width="5" stroke-miterlimit="10"/>
<path d="M156.226 281.425L225.292 417.001" stroke="#DDDFD7" stroke-width="6" stroke-miterlimit="10" stroke-linecap="round"/>
<path d="M225.292 281.425L156.226 417.001" stroke="#DDDFD7" stroke-width="6" stroke-miterlimit="10" stroke-linecap="round"/>
<path d="M1.29412 415.213C1.29412 415.213 21.5938 415.213 31.1387 415.153C39.1667 415.099 54.9769 416.798 55.2227 412.841C55.7209 404.882 50.5651 400.459 51.2055 395.437C44.8549 395.63 38.5556 394.212 32.8627 391.308C30.7927 393.389 19.2552 404.609 9.77818 405.758C-0.675689 407.027 1.29412 415.213 1.29412 415.213Z" fill="#4E886C"/>
<path d="M0.970352 415.879C0.970352 415.879 45.8521 415.879 55.3971 415.819" stroke="#DDDFD7" stroke-width="6" stroke-miterlimit="10" stroke-linecap="round"/>
<path d="M26.277 401.082C26.277 401.082 20.4808 394.198 18.4075 400.609C16.7644 405.688 19.8695 406.83 20.7298 404.695C21.2215 403.47 16.2016 400.13 14.2965 402.454C13.2291 403.76 13.4005 404.995 13.4005 404.995" stroke="#DDDFD7" stroke-width="4" stroke-miterlimit="10" stroke-linecap="round"/>
<path d="M57.8974 255.509C65.175 233.682 163.225 221.707 163.225 221.707L194.26 222.566C195.81 227.841 198.601 263.235 175.879 276.143C151.765 289.841 97.2223 272.06 97.2223 272.06C97.2223 272.06 100.418 340.391 53.7928 396.533L23.3692 393.203C36.3945 340.424 50.8591 276.57 57.8974 255.509Z" fill="#292426"/>
<path d="M76.3342 415.213C76.3342 415.213 96.6339 415.213 106.179 415.153C114.207 415.099 130.017 416.798 130.263 412.841C130.761 404.882 125.605 400.459 126.246 395.437C119.895 395.63 113.596 394.212 107.903 391.308C105.833 393.389 94.2954 404.609 84.8183 405.758C74.3644 407.027 76.3342 415.213 76.3342 415.213Z" fill="#4E886C"/>
<path d="M76.0105 415.879C76.0105 415.879 120.892 415.879 130.437 415.819" stroke="#DDDFD7" stroke-width="6" stroke-miterlimit="10" stroke-linecap="round"/>
<path d="M101.317 401.082C101.317 401.082 95.5209 394.198 93.4476 400.609C91.8045 405.688 94.9096 406.83 95.77 404.696C96.2616 403.47 91.2417 400.13 89.3366 402.454C88.2692 403.76 88.4406 404.995 88.4406 404.995" stroke="#DDDFD7" stroke-width="4" stroke-miterlimit="10" stroke-linecap="round"/>
<path d="M99.04 255.306C103.546 240.346 175.879 222.13 175.879 222.13L237.382 223.558C238.928 228.833 244.857 259.898 222.135 272.806C198.022 286.504 135.59 280.313 135.59 280.313C135.59 280.313 158.606 322.531 129.567 396.54L100.305 393.209C105.393 353.969 92.6358 276.573 99.04 255.306Z" fill="#292426"/>
<path d="M167.155 211.599C167.155 211.599 157.578 176.505 149.705 138.873C149.705 138.873 130.211 132.046 118.977 119.137C118.977 119.137 137.006 86.2609 150.882 81.2888C162.827 77.0094 180.035 72.8831 180.035 72.8831L218.771 69.9192C218.771 69.9192 247.115 77.8686 257.203 86.081C268.928 95.6223 274.76 126.907 274.76 126.907C274.76 126.907 261.156 127.936 241.273 140.108L236.603 211.599C237.945 220.754 241.163 233.02 241.163 233.02C241.163 233.02 202.133 242.468 151.3 222.496C151.3 222.496 169.034 218.669 167.155 211.599Z" fill="#4E886C"/>
<path d="M119.029 119.377L106.234 139.312C106.234 139.312 71.1264 91.7958 67.4035 86.3208L55.8531 90.2838C55.8531 90.2838 83.2105 176.944 105.422 176.944C123.082 176.944 149.304 138.873 149.304 138.873C149.304 138.873 126.126 127.666 119.029 119.377Z" fill="#E49647"/>
<path d="M67.4035 86.3608C67.4035 86.3608 67.3615 74.192 64.7383 70.139C62.1151 66.0861 54.7825 51.4894 52.0656 53.0047C50.8138 53.7041 55.3939 65.8596 55.3939 65.8596C55.3939 65.8596 52.8677 64.6174 51.037 66.6455C49.2063 68.6737 48.9928 66.9786 46.4764 68.1109C43.9599 69.2432 44.9432 71.3279 41.8802 71.5544C39.6742 71.7142 39.8392 74.4717 41.2333 77.2159C43.0931 80.9324 53.2462 91.3362 56.4063 90.2839C59.5663 89.2315 67.4035 86.3608 67.4035 86.3608Z" fill="#E49647"/>
<path d="M41.6764 76.4666C42.0225 77.2325 44.4289 82.8607 47.5632 81.6618C50.6974 80.4629 44.9594 72.034 44.9594 72.034C44.9594 72.034 49.6268 80.9092 52.6866 79.5604C55.7464 78.2116 49.989 69.7261 49.989 69.7261" stroke="#CB884B" stroke-width="3" stroke-miterlimit="10"/>
<path d="M64.5054 71.2114C63.4639 69.3964 62.2963 68.5238 59.2332 69.2731C56.1701 70.0225 51.4704 71.7009 51.4704 71.7009C51.4704 71.7009 52.0623 75.8704 55.8434 75.2044C58.3955 74.7548 58.3955 74.7548 58.4666 75.3542C58.5378 75.9537 58.8742 79.7102 60.1162 82.1114" stroke="#CB884B" stroke-width="3" stroke-miterlimit="10"/>
<path d="M114.048 151.348H165.37C172.437 151.348 179.103 156.343 180.248 162.468L187.71 202.058C188.865 208.199 195.535 213.178 202.589 213.178H151.284C144.216 213.178 137.553 208.182 136.405 202.058L129.014 162.884C128.015 157.555 122.972 153.559 117.03 152.443L114.177 152.027L114.048 151.348Z" fill="white" stroke="#FDEF25" stroke-width="5" stroke-miterlimit="10"/>
<path d="M277.099 188.377C269.53 199.35 215.74 208.852 203.947 210.807C203.402 211 202.838 211.137 202.266 211.213C199.746 211.546 186.679 212.355 184.078 211.496C181.015 210.48 175.206 204.775 174.892 203.893C174.578 203.01 173.023 195.594 173.023 195.594C173.023 195.594 177.085 194.978 179.317 199.447C181.325 203.477 185.686 203.04 188.373 202.801C189.493 202.701 191.637 200.986 191.284 199.241C190.932 197.495 188.855 198.092 187.759 197.339L186.97 193.323L191.957 193.266C193.177 193.249 199.908 195.974 204.077 199.867C215.533 193.1 241.574 178.07 254.777 173.338L241.257 140.095C241.257 140.095 253.613 129.165 274.573 126.774C274.608 126.774 284.861 177.118 277.099 188.377Z" fill="#E49647"/>
<path d="M207.302 41.1755C207.302 41.1755 204.465 61.7633 219.395 70.149C219.395 70.149 201.098 84.4159 186.921 85.3284C172.744 86.2409 178.835 73.7024 178.835 73.7024C178.835 73.7024 182.325 66.6122 181.222 49.2015L207.302 41.1755Z" fill="#E49647"/>
<path d="M181.212 49.2049L206.719 41.3521C206.38 42.6642 204.902 60.8808 184.379 66.4624C183.153 66.7954 181.908 66.4191 180.772 65.9195C181.329 62.0098 181.678 56.5182 181.212 49.2049Z" fill="#D48845"/>
<path d="M207.137 41.2955C207.137 41.2955 200.991 55.7222 184.382 57.807C169.571 59.6686 162.29 17.1476 184.159 13.0813C208.191 8.61543 205.332 35.1045 205.332 35.1045C205.332 35.1045 208.857 32.4403 210.507 34.5483C212.157 36.6564 207.137 41.2955 207.137 41.2955Z" fill="#E49647"/>
<path d="M207.434 39.3772L205.464 35.3609C200.862 33.7857 201.421 27.3083 203.09 23.7981C202 24.4642 199.924 25.0703 196.314 24.7539C194.309 24.5774 198.177 21.0607 196.583 20.7842C194.988 20.5078 191.663 24.2078 186.743 24.6174C181.824 25.027 187.115 21.1739 187.419 19.1457C187.684 17.3674 184.421 19.7086 182.716 20.8109C176.383 24.9504 171.033 23.948 170.584 30.1357C170.584 30.1357 165.506 21.9965 165.506 18.1467C165.506 8.42558 182.626 -0.71937 189.713 0.0132916C195.926 0.666026 200.538 6.16432 201.577 7.50975C202.094 6.71722 202.812 6.0851 203.653 5.68143C205.241 4.8422 206.829 4.75894 207.211 5.49826C207.593 6.23758 206.59 7.51974 205.002 8.35897C204.905 8.40893 204.811 8.45888 204.714 8.50217C207.111 9.20486 210.51 10.5003 213.001 12.7549C221.317 20.2347 207.434 39.3772 207.434 39.3772Z" fill="#292426"/>
<path d="M205.332 35.5108C205.332 35.5108 208.033 32.4669 210.507 34.5417C212.981 36.6164 206.341 42.1147 206.341 42.1147L205.332 35.5108Z" fill="#E49647"/>
</svg>
