<svg width="157" height="159" viewBox="0 0 157 159" fill="none" xmlns="http://www.w3.org/2000/svg">
<path d="M77.9433 99.2278C98.6904 99.2278 115.523 82.0166 115.523 60.8028C115.523 39.589 98.6904 22.3778 77.9433 22.3778C57.1961 22.3778 40.3635 39.589 40.3635 60.8028C40.3635 82.0166 57.1961 99.2278 77.9433 99.2278ZM111.348 107.767H96.968C91.1745 110.488 84.7286 112.036 77.9433 112.036C71.158 112.036 64.7381 110.488 58.9185 107.767H44.539C26.0884 107.767 11.1348 123.057 11.1348 141.922V146.192C11.1348 153.263 16.7457 159 23.6613 159H132.225C139.141 159 144.752 153.263 144.752 146.192V141.922C144.752 123.057 129.798 107.767 111.348 107.767Z" fill="#4e886c"/>
</svg>
