<svg width="547" height="345" viewBox="0 0 547 345" fill="none" xmlns="http://www.w3.org/2000/svg">
<path d="M276.146 342C414.812 342 527.224 337.523 527.224 332C527.224 326.477 414.812 322 276.146 322C137.479 322 25.068 326.477 25.068 332C25.068 337.523 137.479 342 276.146 342Z" fill="#E6E6E6"/>
<path d="M284.922 333.059C350.731 333.059 404.08 280.081 404.08 214.729C404.08 149.377 350.731 96.3993 284.922 96.3993C219.113 96.3993 165.764 149.377 165.764 214.729C165.764 280.081 219.113 333.059 284.922 333.059Z" fill="#7FAB96"/>
<path d="M284.922 323.264C345.283 323.264 394.216 274.671 394.216 214.729C394.216 154.787 345.283 106.195 284.922 106.195C224.561 106.195 175.628 154.787 175.628 214.729C175.628 274.671 224.561 323.264 284.922 323.264Z" fill="white"/>
<path d="M284.527 229.618C292.59 229.618 299.126 223.128 299.126 215.121C299.126 207.114 292.59 200.624 284.527 200.624C276.465 200.624 269.929 207.114 269.929 215.121C269.929 223.128 276.465 229.618 284.527 229.618Z" fill="#7FAB96"/>
<path d="M287.684 111.68H281.371V123.435H287.684V111.68Z" fill="#7FAB96"/>
<path d="M287.684 306.807H281.371V318.562H287.684V306.807Z" fill="#7FAB96"/>
<path d="M192.2 218.256V211.987H180.363V218.256H192.2Z" fill="#7FAB96"/>
<path d="M388.692 218.256V211.987H376.855V218.256H388.692Z" fill="#7FAB96"/>
<path d="M280.319 221.415L285.714 209.164L353.316 246.344L280.319 221.415Z" fill="#7FAB96"/>
<path d="M300.31 67.7964H269.534V103.06H300.31V67.7964Z" fill="#7FAB96"/>
<path d="M284.922 77.5919C304.534 77.5919 320.433 73.2063 320.433 67.7964C320.433 62.3865 304.534 58.0009 284.922 58.0009C265.31 58.0009 249.411 62.3865 249.411 67.7964C249.411 73.2063 265.31 77.5919 284.922 77.5919Z" fill="#7FAB96"/>
<path d="M351.406 235.692L349.433 238.434C349.433 238.434 340.358 249.014 339.963 243.92C339.569 238.826 346.671 235.3 346.671 235.3L350.617 232.949L351.406 235.692Z" fill="#FFB8B8"/>
<path d="M407.57 244.945L409.222 247.89C409.222 247.89 414.967 260.562 410.162 258.736C405.357 256.911 405.187 249.027 405.187 249.027L404.736 244.48L407.57 244.945Z" fill="#FFB8B8"/>
<path d="M398.688 192.735C405.323 192.735 410.702 187.394 410.702 180.804C410.702 174.215 405.323 168.874 398.688 168.874C392.053 168.874 386.674 174.215 386.674 180.804C386.674 187.394 392.053 192.735 398.688 192.735Z" fill="#FDEF25"/>
<path d="M397.57 278.792L399.148 288.979V292.114H408.223V288.196C408.223 288.196 408.617 281.143 407.039 279.184C405.461 277.225 397.57 278.792 397.57 278.792Z" fill="#FFB8B8"/>
<path d="M381.393 278.792L382.971 288.979V292.114H392.046V288.196C392.046 288.196 392.44 281.143 390.862 279.184C389.284 277.225 381.393 278.792 381.393 278.792Z" fill="#FFB8B8"/>
<path d="M387.499 196.961C387.499 196.961 384.009 198.788 386.393 202.944C388.777 207.1 402.765 250.093 402.765 250.093L410.835 247.818L403.718 220.628L399.643 203.538L387.499 196.961Z" fill="#DDDFD7"/>
<path d="M397.372 193.179C402.384 193.179 406.447 189.144 406.447 184.167C406.447 179.19 402.384 175.155 397.372 175.155C392.36 175.155 388.297 179.19 388.297 184.167C388.297 189.144 392.36 193.179 397.372 193.179Z" fill="#FFB8B8"/>
<path d="M401.515 185.539L400.332 203.954L392.046 198.077C392.046 198.077 394.808 187.106 394.019 186.322L401.515 185.539Z" fill="#FFB8B8"/>
<path d="M401.515 202.387L392.589 195.823C392.589 195.823 388.495 194.159 387.311 196.118C386.127 198.077 380.209 227.072 383.365 232.557C383.365 232.557 400.332 236.084 403.883 234.124L405.461 223.937C405.461 223.937 407.434 217.668 404.277 213.75L401.515 202.387Z" fill="#DDDFD7"/>
<path d="M389.678 196.51C389.678 196.51 386.522 194.159 383.76 198.077C380.998 201.995 347.855 232.949 347.855 232.949L353.379 239.218L375.08 221.194L388.889 210.223L389.678 196.51Z" fill="#DDDFD7"/>
<path d="M404.08 233.929C404.08 233.929 384.549 230.206 382.576 232.949L382.182 237.259C382.182 237.259 377.842 245.487 380.209 258.809C382.576 272.131 380.998 280.359 380.998 280.359C380.998 280.359 391.651 279.184 399.543 280.359C407.434 281.535 408.617 280.359 408.617 280.359L404.08 233.929Z" fill="#292426"/>
<path d="M409.012 290.547L397.57 290.938L401.515 320.325C401.515 320.325 398.359 332.863 401.91 333.647C404.378 334.142 406.888 334.404 409.407 334.431C409.407 334.431 412.958 337.957 416.903 337.565C419.524 337.233 422.063 336.437 424.4 335.214C424.4 335.214 425.189 332.863 422.427 332.08C419.665 331.296 412.169 328.945 410.59 320.717L409.012 290.547Z" fill="#292426"/>
<path d="M392.835 290.547L381.393 290.938L385.338 320.325C385.338 320.325 382.182 332.863 385.733 333.647C388.201 334.142 390.711 334.404 393.229 334.431C393.229 334.431 396.781 337.957 400.726 337.565C403.346 337.233 405.886 336.437 408.223 335.214C408.223 335.214 409.012 332.863 406.25 332.08C403.488 331.296 395.991 328.945 394.413 320.717L392.835 290.547Z" fill="#292426"/>
<path d="M402.891 173.184C405.636 173.184 407.862 170.974 407.862 168.247C407.862 165.521 405.636 163.311 402.891 163.311C400.145 163.311 397.919 165.521 397.919 168.247C397.919 170.974 400.145 173.184 402.891 173.184Z" fill="#FDEF25"/>
<path d="M409.519 165.573C409.519 164.353 409.064 163.176 408.242 162.269C407.419 161.362 406.288 160.79 405.066 160.663C405.238 160.645 405.411 160.636 405.584 160.636C406.902 160.636 408.166 161.157 409.099 162.082C410.031 163.008 410.555 164.264 410.555 165.573C410.555 166.883 410.031 168.138 409.099 169.064C408.166 169.99 406.902 170.51 405.584 170.51C405.411 170.51 405.238 170.501 405.066 170.483C406.288 170.356 407.419 169.784 408.242 168.877C409.064 167.971 409.519 166.794 409.519 165.573V165.573Z" fill="#FDEF25"/>
<path d="M397.29 183.212C401.866 183.212 405.576 181.001 405.576 178.275C405.576 175.548 401.866 173.338 397.29 173.338C392.714 173.338 389.005 175.548 389.005 178.275C389.005 181.001 392.714 183.212 397.29 183.212Z" fill="#FDEF25"/>
<path d="M85.3403 316.572H90.6566V327.005H85.3403V316.572Z" fill="#FBBEBE"/>
<path d="M43.9485 316.919H49.2648V327.353H43.9485V316.919Z" fill="#FBBEBE"/>
<path d="M43.3788 321.962L49.8344 321.267L66.543 250.668L84.7706 321.614L91.2262 320.919C92.2914 288.817 89.1783 256.702 86.4794 229.975L47.9357 227.019C40.6736 253.355 40.3758 286.132 43.3788 321.962Z" fill="#DDDFD7"/>
<path d="M47.3873 231.196C47.3873 231.196 56.3647 239.775 51.2905 241.92C46.2164 244.065 43.0938 232.268 43.0938 232.268L47.3873 231.196Z" fill="#FBBEBE"/>
<path d="M93.336 231.892C93.336 231.892 102.313 240.471 97.2392 242.615C92.165 244.76 89.0425 232.964 89.0425 232.964L93.336 231.892Z" fill="#FBBEBE"/>
<path d="M65.9734 169.81C60.1011 169.81 55.3407 165.45 55.3407 160.072C55.3407 154.694 60.1011 150.334 65.9734 150.334C71.8458 150.334 76.6062 154.694 76.6062 160.072C76.6062 165.45 71.8458 169.81 65.9734 169.81Z" fill="#FBBEBE"/>
<path d="M53.6318 180.417L72.6189 182.156C70.8639 174.92 70.4385 168.16 72.6189 162.333H59.328C60.05 167.189 57.3512 173.575 53.6318 180.417Z" fill="#FBBEBE"/>
<path d="M48.3155 230.845C55.41 238.66 70.319 236.047 87.4288 230.497C82.5737 215.983 83.3265 200.67 87.6894 184.844C87.9272 183.993 87.829 183.093 87.4121 182.302C86.9952 181.512 86.2864 180.881 85.4111 180.523L71.4797 174.853L66.1633 175.896L57.0495 173.809L44.1126 176.233C43.0606 176.43 42.1206 176.966 41.463 177.743C40.8054 178.521 40.4738 179.488 40.5281 180.47C41.6101 199.896 43.5242 217.873 48.3155 230.845Z" fill="#7FAB96"/>
<path d="M44.5181 237.105L47.9357 231.888L41.4802 209.63L44.8978 176.244C42.6932 176.446 40.6158 177.284 38.9659 178.638C37.316 179.993 36.179 181.792 35.7192 183.777L30.5344 206.163C29.7528 209.537 30.222 213.054 31.8675 216.157L44.5181 237.105Z" fill="#7FAB96"/>
<path d="M88.9478 233.279L96.7325 234.496L91.7685 189.993C91.7203 187.773 90.9589 185.614 89.5793 183.787C88.1997 181.961 86.2631 180.546 84.0112 179.721V179.721L81.5429 209.109L88.9478 233.279Z" fill="#7FAB96"/>
<path d="M87.3617 330.651L101.691 332.956C102.341 333.06 103.011 332.978 103.608 332.72V332.72C104.081 332.515 104.491 332.208 104.804 331.824C105.117 331.44 105.322 330.992 105.401 330.519C105.481 330.046 105.432 329.562 105.26 329.11C105.088 328.658 104.797 328.251 104.413 327.926L98.2751 322.725L96.6749 320.164C96.2247 319.422 95.5824 318.793 94.8045 318.332C94.0266 317.871 93.137 317.593 92.2138 317.521C89.4773 317.347 88.5741 319.254 89.1463 322.835C87.0679 324.236 86.7394 324.021 85.3402 322.136L84.7052 328.04C84.7777 328.681 85.0762 329.282 85.5556 329.753C86.035 330.224 86.6691 330.54 87.3617 330.651Z" fill="#292426"/>
<path d="M45.97 330.651L60.2989 332.956C60.9493 333.06 61.619 332.978 62.2161 332.72V332.72C62.6888 332.515 63.0995 332.208 63.4122 331.824C63.7249 331.44 63.93 330.992 64.0095 330.519C64.089 330.046 64.0405 329.562 63.8682 329.11C63.6959 328.658 63.4052 328.251 63.0215 327.926L56.8833 322.725L55.2831 320.164C54.8329 319.422 54.1907 318.793 53.4128 318.332C52.6349 317.871 51.7452 317.593 50.8221 317.521C48.0856 317.347 47.1824 319.254 47.7545 322.835C45.6761 324.236 45.3476 324.021 43.9485 322.136L43.3134 328.04C43.3859 328.681 43.6845 329.282 44.1639 329.753C44.6433 330.224 45.2773 330.54 45.97 330.651V330.651Z" fill="#292426"/>
<path d="M74.4152 154.524C69.6226 152.012 64.8235 153.617 60.0161 160.469L59.0333 167.768C51.8182 161.508 52.183 152.965 60.2742 149.49C61.0697 149.148 61.8405 148.76 62.7062 148.897C64.4171 148.056 66.414 147.845 68.2893 148.306C70.1646 148.768 71.7769 149.867 72.7974 151.38C74.2923 151.617 76.4353 154.337 76.3582 155.725L74.4152 154.524Z" fill="#292426"/>
<path d="M60.4672 162.159C59.7331 162.159 59.1381 161.458 59.1381 160.594C59.1381 159.729 59.7331 159.029 60.4672 159.029C61.2012 159.029 61.7963 159.729 61.7963 160.594C61.7963 161.458 61.2012 162.159 60.4672 162.159Z" fill="#FBBEBE"/>
<path d="M71.0596 114.581H64.426C64.426 115.223 64.7018 115.838 65.1929 116.292C65.684 116.745 66.35 117 67.0445 117H68.4411C69.1356 117 69.8016 116.745 70.2927 116.292C70.7837 115.838 71.0596 115.223 71.0596 114.581H71.0596Z" fill="#292426"/>
<path d="M62.876 109.166V106.918C62.876 104.202 59.678 101.633 57.6036 99.8005C54.6794 97.2184 53.1423 93.7494 53.1423 89.6857C53.1424 86.1154 54.6751 82.6908 57.4044 80.1627C60.1338 77.6347 63.837 76.2094 67.7023 76.1995C71.5675 76.1896 75.2793 77.5957 78.0238 80.1098C80.7684 82.6238 82.3217 86.0405 82.3432 89.6107C82.3433 89.6357 82.3433 89.6607 82.3432 89.6857C82.3432 93.6043 80.7402 97.3083 77.882 99.8005C75.8186 101.6 72.6096 104.174 72.6096 106.918V109.166" fill="#FDEF25"/>
<path d="M62.876 109.481C62.9208 109.481 62.9652 109.473 63.0067 109.457C63.0481 109.442 63.0858 109.418 63.1175 109.389C63.1492 109.36 63.1744 109.325 63.1915 109.287C63.2087 109.248 63.2175 109.207 63.2175 109.166V106.918C63.2175 104.276 60.3964 101.809 58.3365 100.008C58.1655 99.8588 57.9993 99.7135 57.8397 99.5725C54.9901 97.0562 53.4839 93.6374 53.4839 89.6857C53.4839 82.3002 59.7471 76.5149 67.7428 76.5149C67.7562 76.5148 67.7696 76.5148 67.783 76.5148C71.5459 76.5187 75.1539 77.8987 77.8184 80.3529C80.4828 82.8071 81.9869 86.1359 82.0017 89.6116V89.6851C82.0017 93.5552 80.4147 97.1583 77.6475 99.5711C77.5073 99.6934 77.3618 99.8193 77.2123 99.9485C75.1257 101.753 72.2681 104.224 72.2681 106.918V109.166C72.2681 109.25 72.304 109.33 72.3681 109.389C72.4322 109.448 72.519 109.481 72.6096 109.481C72.7002 109.481 72.7871 109.448 72.8511 109.389C72.9152 109.33 72.9512 109.25 72.9512 109.166V106.918C72.9512 104.498 75.6839 102.135 77.6791 100.409C77.8293 100.279 77.9756 100.153 78.1165 100.03C81.0197 97.4984 82.6848 93.7281 82.6848 89.6857V89.61C82.6619 82.0336 75.9808 75.8839 67.784 75.8839C67.7695 75.8839 67.7564 75.8839 67.7419 75.8839C65.7768 75.8745 63.8293 76.225 62.0119 76.9153C60.1945 77.6056 58.5433 78.6219 57.1538 79.9054C55.7644 81.1889 54.6642 82.7142 53.9171 84.3929C53.1699 86.0717 52.7905 87.8707 52.8008 89.6857C52.8008 93.8139 54.38 97.3904 57.3676 100.029C57.528 100.17 57.6951 100.316 57.8669 100.467C59.8367 102.189 62.5344 104.547 62.5344 106.918V109.166C62.5344 109.207 62.5433 109.248 62.5604 109.287C62.5776 109.325 62.6027 109.36 62.6345 109.389C62.6662 109.418 62.7038 109.442 62.7453 109.457C62.7867 109.473 62.8311 109.481 62.876 109.481Z" fill="#292426"/>
<path d="M64.4983 113.53H70.9873C71.1383 113.53 71.2831 113.474 71.3899 113.376C71.4966 113.277 71.5566 113.143 71.5566 113.004C71.5566 112.864 71.4966 112.731 71.3899 112.632C71.2831 112.533 71.1383 112.478 70.9873 112.478H64.4983C64.3473 112.478 64.2025 112.533 64.0957 112.632C63.989 112.731 63.929 112.864 63.929 113.004C63.929 113.143 63.989 113.277 64.0957 113.376C64.2025 113.474 64.3473 113.53 64.4983 113.53V113.53Z" fill="#FDEF25"/>
<path d="M82.8395 77.2912C82.9771 77.2914 83.1101 77.2453 83.2136 77.1615L88.1022 73.2199C88.1586 73.1745 88.2048 73.1193 88.238 73.0574C88.2713 72.9955 88.2911 72.9282 88.2962 72.8593C88.3013 72.7904 88.2916 72.7212 88.2677 72.6557C88.2439 72.5902 88.2063 72.5297 88.1571 72.4777C88.1079 72.4256 88.0481 72.3831 87.9811 72.3524C87.914 72.3217 87.8411 72.3035 87.7665 72.2989C87.6919 72.2942 87.617 72.3032 87.5461 72.3253C87.4753 72.3474 87.4098 72.3822 87.3535 72.4277L82.4649 76.3693C82.3776 76.4397 82.3156 76.5331 82.2873 76.6369C82.259 76.7407 82.2656 76.85 82.3063 76.9502C82.347 77.0504 82.4199 77.1368 82.5152 77.1977C82.6104 77.2586 82.7236 77.2913 82.8395 77.2912H82.8395Z" fill="#E6E6E6"/>
<path d="M53.4572 77.2912C53.5731 77.2913 53.6862 77.2586 53.7815 77.1977C53.8767 77.1367 53.9496 77.0504 53.9903 76.9502C54.031 76.8499 54.0377 76.7406 54.0093 76.6368C53.981 76.533 53.919 76.4397 53.8317 76.3693L48.9432 72.4277C48.8294 72.3361 48.681 72.29 48.5304 72.2995C48.3799 72.309 48.2396 72.3733 48.1404 72.4783C48.0412 72.5833 47.9911 72.7204 48.0013 72.8594C48.0114 72.9985 48.0809 73.1281 48.1945 73.2199L53.083 77.1615C53.1866 77.2453 53.3195 77.2914 53.4572 77.2912V77.2912Z" fill="#E6E6E6"/>
<path d="M62.876 111.663H72.6096C72.7606 111.663 72.9054 111.608 73.0122 111.509C73.1189 111.411 73.1789 111.277 73.1789 111.137C73.1789 110.998 73.1189 110.864 73.0122 110.766C72.9054 110.667 72.7606 110.612 72.6096 110.612H62.876C62.725 110.612 62.5802 110.667 62.4735 110.766C62.3667 110.864 62.3067 110.998 62.3067 111.137C62.3067 111.277 62.3667 111.411 62.4735 111.509C62.5802 111.608 62.725 111.663 62.876 111.663Z" fill="#FDEF25"/>
<path d="M67.7428 109.692C67.8175 109.692 67.8915 109.678 67.9606 109.652C68.0297 109.625 68.0924 109.587 68.1453 109.538C68.1981 109.489 68.2401 109.431 68.2687 109.367C68.2973 109.303 68.312 109.235 68.312 109.166V97.1781C68.312 97.0386 68.252 96.9049 68.1453 96.8063C68.0385 96.7077 67.8937 96.6523 67.7428 96.6523C67.5918 96.6523 67.447 96.7077 67.3402 96.8063C67.2335 96.9049 67.1735 97.0386 67.1735 97.1781V109.166C67.1735 109.235 67.1882 109.303 67.2168 109.367C67.2454 109.431 67.2874 109.489 67.3402 109.538C67.3931 109.587 67.4559 109.625 67.5249 109.652C67.594 109.678 67.668 109.692 67.7428 109.692V109.692Z" fill="white"/>
<path d="M67.7428 97.7039C69.582 97.7039 71.8402 96.1669 71.9354 96.1015C71.9954 96.0603 72.046 96.0086 72.0844 95.9493C72.1227 95.89 72.148 95.8244 72.1589 95.756C72.1697 95.6877 72.1659 95.6181 72.1477 95.5511C72.1294 95.4842 72.097 95.4212 72.0524 95.3658C72.0078 95.3104 71.9518 95.2637 71.8876 95.2282C71.8234 95.1928 71.7523 95.1694 71.6784 95.1594C71.6044 95.1494 71.529 95.1529 71.4565 95.1698C71.384 95.1866 71.3159 95.2165 71.2559 95.2578C70.6901 95.6455 68.9555 96.6523 67.7428 96.6523C66.53 96.6523 64.7954 95.6455 64.2294 95.2576C64.1694 95.2164 64.1012 95.1865 64.0287 95.1696C63.9562 95.1528 63.8808 95.1493 63.8068 95.1593C63.7329 95.1694 63.6618 95.1928 63.5976 95.2282C63.5335 95.2636 63.4775 95.3104 63.4329 95.3658C63.3883 95.4212 63.3559 95.4842 63.3377 95.5512C63.3194 95.6182 63.3156 95.6878 63.3265 95.7561C63.3374 95.8244 63.3628 95.8901 63.4011 95.9493C63.4395 96.0086 63.4901 96.0603 63.5501 96.1015C63.6453 96.1669 65.9035 97.7039 67.7428 97.7039Z" fill="white"/>
<path d="M67.7429 72.0425C67.8939 72.0425 68.0386 71.9871 68.1454 71.8885C68.2521 71.7899 68.3121 71.6561 68.3121 71.5167V62.5258C68.3121 62.3864 68.2522 62.2526 68.1454 62.154C68.0387 62.0554 67.8939 62 67.7429 62C67.5919 62 67.4471 62.0554 67.3404 62.154C67.2336 62.2526 67.1736 62.3864 67.1736 62.5258V71.5167C67.1736 71.6561 67.2336 71.7899 67.3404 71.8885C67.4471 71.9871 67.5919 72.0425 67.7429 72.0425V72.0425Z" fill="#E6E6E6"/>
<path d="M375.109 106C378.811 106 381.812 103.394 381.812 100.18C381.812 96.966 378.811 94.3604 375.109 94.3604C371.407 94.3604 368.406 96.966 368.406 100.18C368.406 103.394 371.407 106 375.109 106Z" fill="#DDDFD7"/>
<path d="M374.359 38.0004C363.799 38.0657 355.152 45.5761 355.002 54.8173C355.001 54.9027 355 55.5026 355 56.2872C355 57.4377 355.522 58.5411 356.452 59.3546C357.381 60.1682 358.642 60.6253 359.957 60.6254H359.957C360.608 60.6253 361.254 60.5128 361.856 60.2943C362.458 60.0759 363.005 59.7558 363.465 59.3523C363.926 58.9488 364.291 58.4698 364.54 57.9428C364.789 57.4157 364.917 56.8509 364.916 56.2806C364.916 55.7468 364.915 55.3774 364.915 55.3547C364.915 53.9265 365.339 52.5228 366.147 51.2817C366.955 50.0406 368.117 49.0048 369.521 48.2763C370.925 47.5478 372.521 47.1517 374.153 47.1268C375.784 47.1019 377.395 47.4492 378.827 48.1345C380.259 48.8198 381.462 49.8195 382.319 51.0352C383.175 52.2509 383.655 53.6409 383.712 55.0682C383.768 56.4956 383.399 57.9112 382.641 59.1759C381.883 60.4406 380.761 61.5108 379.387 62.2811L379.389 62.2829C379.389 62.2829 372.334 66.2577 370.183 71.7104L370.185 71.7108C369.807 72.8279 369.615 73.9869 369.616 75.1519C369.616 75.6308 369.648 79.8212 369.71 83.2222C369.732 84.3957 370.28 85.5147 371.236 86.3377C372.192 87.1608 373.48 87.6219 374.821 87.6216H374.821C375.494 87.6216 376.162 87.505 376.784 87.2784C377.406 87.0519 377.971 86.7199 378.446 86.3016C378.921 85.8833 379.297 85.387 379.552 84.8411C379.807 84.2952 379.936 83.7106 379.932 83.1209C379.91 80.0061 379.898 76.3793 379.898 76.1161C379.898 72.7679 383.589 69.432 386.621 67.2565C390.112 64.7514 392.624 61.3375 393.633 57.4866C393.856 56.6937 393.979 55.8818 394 55.0655C394 52.814 393.491 50.5848 392.502 48.5063C391.513 46.4278 390.064 44.5411 388.239 42.9549C386.413 41.3686 384.247 40.1142 381.865 39.2639C379.482 38.4136 376.932 37.9842 374.359 38.0004V38.0004Z" fill="#DDDFD7"/>
<path d="M361.037 58.643C359.802 58.6429 358.618 58.1931 357.744 57.3927C356.871 56.5923 356.38 55.5067 356.38 54.3748C356.38 53.6028 356.381 53.0125 356.382 52.9286C356.421 50.2843 357.148 47.6868 358.502 45.3513C356.277 48.1419 355.054 51.4969 355.002 54.9523C355.001 55.0362 355 55.6265 355 56.3985C355 57.5304 355.491 58.616 356.364 59.4164C357.237 60.2168 358.422 60.6665 359.657 60.6667V60.6667C360.672 60.6663 361.659 60.3624 362.468 59.801C363.277 59.2396 363.865 58.4516 364.141 57.5565C363.288 58.2572 362.182 58.6443 361.037 58.643V58.643Z" fill="#292426"/>
<path d="M374.901 47.405C376.442 47.4681 377.943 47.8511 379.274 48.5211C380.604 49.1911 381.726 50.1281 382.541 51.2516C383.357 52.3751 383.842 53.6515 383.956 54.9713C384.07 56.2911 383.808 57.6148 383.193 58.8288C384.082 57.9338 384.735 56.8849 385.109 55.7538C385.482 54.6226 385.566 53.4358 385.356 52.2742C385.146 51.1125 384.646 50.0034 383.891 49.0224C383.135 48.0414 382.142 47.2117 380.979 46.5897C379.815 45.9677 378.509 45.5681 377.15 45.4181C375.79 45.2682 374.409 45.3714 373.1 45.7208C371.791 46.0701 370.585 46.6574 369.565 47.4425C368.545 48.2277 367.734 49.1922 367.188 50.2705C368.131 49.3183 369.318 48.5647 370.655 48.0679C371.992 47.5711 373.445 47.3443 374.901 47.405V47.405Z" fill="#292426"/>
<path d="M376.06 85.5645C374.767 85.5647 373.526 85.1035 372.604 84.2804C371.682 83.4572 371.153 82.3381 371.132 81.1644C371.072 77.7629 371.041 73.572 371.041 73.093C371.041 71.9278 371.225 70.7686 371.59 69.6514L371.588 69.651C371.804 69.0902 372.064 68.5444 372.367 68.018C371.437 69.1423 370.697 70.386 370.172 71.7081L370.174 71.7085C369.809 72.8257 369.624 73.9849 369.625 75.1501C369.625 75.6291 369.656 79.82 369.716 83.2216C369.737 84.3952 370.265 85.5144 371.187 86.3375C372.109 87.1607 373.351 87.6219 374.644 87.6216V87.6216C375.71 87.6214 376.747 87.3075 377.601 86.7268C378.454 86.1462 379.076 85.3301 379.375 84.4011C378.469 85.151 377.286 85.566 376.06 85.5645V85.5645Z" fill="#292426"/>
<path d="M373.516 104.54C372.587 104.183 371.765 103.642 371.114 102.957C370.464 102.273 370.003 101.464 369.767 100.596C369.532 99.7278 369.529 98.8232 369.758 97.9536C369.988 97.0841 370.443 96.2734 371.089 95.5856C370.34 96.0674 369.716 96.684 369.259 97.3945C368.801 98.105 368.52 98.8932 368.434 99.7067C368.349 100.52 368.46 101.341 368.762 102.113C369.064 102.886 369.548 103.593 370.184 104.188C370.82 104.783 371.592 105.252 372.449 105.564C373.306 105.875 374.228 106.023 375.155 105.997C376.082 105.971 376.992 105.771 377.825 105.411C378.657 105.052 379.393 104.54 379.984 103.91C379.063 104.504 377.98 104.875 376.845 104.985C375.711 105.095 374.563 104.942 373.516 104.54V104.54Z" fill="#292426"/>
<path d="M480.109 181C483.811 181 486.812 178.394 486.812 175.18C486.812 171.966 483.811 169.36 480.109 169.36C476.407 169.36 473.406 171.966 473.406 175.18C473.406 178.394 476.407 181 480.109 181Z" fill="#DDDFD7"/>
<path d="M479.359 113C468.799 113.066 460.152 120.576 460.002 129.817C460.001 129.903 460 130.503 460 131.287C460 132.438 460.522 133.541 461.452 134.355C462.381 135.168 463.642 135.625 464.957 135.625H464.957C465.608 135.625 466.254 135.513 466.856 135.294C467.458 135.076 468.005 134.756 468.465 134.352C468.926 133.949 469.291 133.47 469.54 132.943C469.789 132.416 469.917 131.851 469.916 131.281C469.916 130.747 469.915 130.377 469.915 130.355C469.915 128.926 470.339 127.523 471.147 126.282C471.955 125.041 473.117 124.005 474.521 123.276C475.925 122.548 477.521 122.152 479.153 122.127C480.784 122.102 482.395 122.449 483.827 123.134C485.259 123.82 486.462 124.819 487.319 126.035C488.175 127.251 488.655 128.641 488.712 130.068C488.768 131.496 488.399 132.911 487.641 134.176C486.883 135.441 485.761 136.511 484.387 137.281L484.389 137.283C484.389 137.283 477.334 141.258 475.183 146.71L475.185 146.711C474.807 147.828 474.615 148.987 474.616 150.152C474.616 150.631 474.648 154.821 474.71 158.222C474.732 159.396 475.28 160.515 476.236 161.338C477.192 162.161 478.48 162.622 479.821 162.622H479.821C480.494 162.622 481.162 162.505 481.784 162.278C482.406 162.052 482.971 161.72 483.446 161.302C483.921 160.883 484.297 160.387 484.552 159.841C484.807 159.295 484.936 158.711 484.932 158.121C484.91 155.006 484.898 151.379 484.898 151.116C484.898 147.768 488.589 144.432 491.621 142.257C495.112 139.751 497.624 136.338 498.633 132.487C498.856 131.694 498.979 130.882 499 130.065C499 127.814 498.491 125.585 497.502 123.506C496.513 121.428 495.064 119.541 493.239 117.955C491.413 116.369 489.247 115.114 486.865 114.264C484.482 113.414 481.932 112.984 479.359 113V113Z" fill="#DDDFD7"/>
<path d="M466.037 133.643C464.802 133.643 463.618 133.193 462.744 132.393C461.871 131.592 461.38 130.507 461.38 129.375C461.38 128.603 461.381 128.013 461.382 127.929C461.421 125.284 462.148 122.687 463.502 120.351C461.277 123.142 460.054 126.497 460.002 129.952C460.001 130.036 460 130.626 460 131.398C460 132.53 460.491 133.616 461.364 134.416C462.237 135.217 463.422 135.667 464.657 135.667V135.667C465.672 135.666 466.659 135.362 467.468 134.801C468.277 134.24 468.865 133.452 469.141 132.556C468.288 133.257 467.182 133.644 466.037 133.643V133.643Z" fill="#292426"/>
<path d="M479.901 122.405C481.442 122.468 482.943 122.851 484.274 123.521C485.604 124.191 486.726 125.128 487.541 126.252C488.357 127.375 488.842 128.652 488.956 129.971C489.07 131.291 488.808 132.615 488.193 133.829C489.082 132.934 489.735 131.885 490.109 130.754C490.482 129.623 490.566 128.436 490.356 127.274C490.146 126.113 489.646 125.003 488.891 124.022C488.135 123.041 487.142 122.212 485.979 121.59C484.815 120.968 483.509 120.568 482.15 120.418C480.79 120.268 479.409 120.371 478.1 120.721C476.791 121.07 475.585 121.657 474.565 122.443C473.545 123.228 472.734 124.192 472.188 125.27C473.131 124.318 474.318 123.565 475.655 123.068C476.992 122.571 478.445 122.344 479.901 122.405V122.405Z" fill="#292426"/>
<path d="M481.06 160.564C479.767 160.565 478.526 160.104 477.604 159.28C476.682 158.457 476.153 157.338 476.132 156.164C476.072 152.763 476.041 148.572 476.041 148.093C476.041 146.928 476.225 145.769 476.59 144.651L476.588 144.651C476.804 144.09 477.064 143.544 477.367 143.018C476.437 144.142 475.697 145.386 475.172 146.708L475.174 146.709C474.809 147.826 474.624 148.985 474.625 150.15C474.625 150.629 474.656 154.82 474.716 158.222C474.737 159.395 475.265 160.514 476.187 161.338C477.109 162.161 478.351 162.622 479.644 162.622V162.622C480.71 162.621 481.747 162.307 482.601 161.727C483.454 161.146 484.076 160.33 484.375 159.401C483.469 160.151 482.286 160.566 481.06 160.564V160.564Z" fill="#292426"/>
<path d="M478.516 179.54C477.587 179.183 476.765 178.642 476.114 177.957C475.464 177.273 475.003 176.464 474.767 175.596C474.532 174.728 474.529 173.823 474.758 172.954C474.988 172.084 475.443 171.273 476.089 170.586C475.34 171.067 474.716 171.684 474.259 172.395C473.801 173.105 473.52 173.893 473.434 174.707C473.349 175.52 473.46 176.341 473.762 177.113C474.064 177.886 474.548 178.593 475.184 179.188C475.82 179.783 476.592 180.252 477.449 180.564C478.306 180.875 479.228 181.023 480.155 180.997C481.082 180.971 481.992 180.771 482.825 180.411C483.657 180.052 484.393 179.54 484.984 178.91C484.063 179.504 482.98 179.875 481.845 179.985C480.711 180.095 479.563 179.942 478.516 179.54V179.54Z" fill="#292426"/>
<path d="M446.109 76C449.811 76 452.812 73.3944 452.812 70.1802C452.812 66.966 449.811 64.3604 446.109 64.3604C442.407 64.3604 439.406 66.966 439.406 70.1802C439.406 73.3944 442.407 76 446.109 76Z" fill="#7FAB96"/>
<path d="M445.359 8.00045C434.799 8.06573 426.152 15.5761 426.002 24.8173C426.001 24.9027 426 25.5026 426 26.2872C426 27.4377 426.522 28.5411 427.452 29.3546C428.381 30.1682 429.642 30.6253 430.957 30.6254H430.957C431.608 30.6253 432.254 30.5128 432.856 30.2943C433.458 30.0759 434.005 29.7558 434.465 29.3523C434.926 28.9488 435.291 28.4698 435.54 27.9428C435.789 27.4157 435.917 26.8509 435.916 26.2806C435.916 25.7468 435.915 25.3774 435.915 25.3547C435.915 23.9265 436.339 22.5228 437.147 21.2817C437.955 20.0406 439.117 19.0048 440.521 18.2763C441.925 17.5478 443.521 17.1517 445.153 17.1268C446.784 17.1019 448.395 17.4492 449.827 18.1345C451.259 18.8198 452.462 19.8195 453.319 21.0352C454.175 22.2509 454.655 23.6409 454.712 25.0682C454.768 26.4956 454.399 27.9112 453.641 29.1759C452.883 30.4406 451.761 31.5108 450.387 32.2811L450.389 32.2829C450.389 32.2829 443.334 36.2577 441.183 41.7104L441.185 41.7108C440.807 42.8279 440.615 43.9869 440.616 45.1519C440.616 45.6308 440.648 49.8212 440.71 53.2222C440.732 54.3957 441.28 55.5147 442.236 56.3377C443.192 57.1608 444.48 57.6219 445.821 57.6216H445.821C446.494 57.6216 447.162 57.505 447.784 57.2784C448.406 57.0519 448.971 56.7199 449.446 56.3016C449.921 55.8833 450.297 55.387 450.552 54.8411C450.807 54.2952 450.936 53.7106 450.932 53.1209C450.91 50.0061 450.898 46.3793 450.898 46.1161C450.898 42.7679 454.589 39.432 457.621 37.2565C461.112 34.7514 463.624 31.3375 464.633 27.4866C464.856 26.6937 464.979 25.8818 465 25.0655C465 22.814 464.491 20.5848 463.502 18.5063C462.513 16.4278 461.064 14.5411 459.239 12.9549C457.413 11.3686 455.247 10.1142 452.865 9.26388C450.482 8.41357 447.932 7.98418 445.359 8.00045V8.00045Z" fill="#7FAB96"/>
<path d="M432.037 28.643C430.802 28.6429 429.618 28.1931 428.744 27.3927C427.871 26.5923 427.38 25.5067 427.38 24.3748C427.38 23.6028 427.381 23.0125 427.382 22.9286C427.421 20.2843 428.148 17.6868 429.502 15.3513C427.277 18.1419 426.054 21.4969 426.002 24.9523C426.001 25.0362 426 25.6265 426 26.3985C426 27.5304 426.491 28.616 427.364 29.4164C428.237 30.2168 429.422 30.6665 430.657 30.6667V30.6667C431.672 30.6663 432.659 30.3624 433.468 29.801C434.277 29.2396 434.865 28.4516 435.141 27.5565C434.288 28.2572 433.182 28.6443 432.037 28.643V28.643Z" fill="#292426"/>
<path d="M445.901 17.405C447.442 17.4681 448.943 17.8511 450.274 18.5211C451.604 19.1911 452.726 20.1281 453.541 21.2516C454.357 22.3751 454.842 23.6515 454.956 24.9713C455.07 26.2911 454.808 27.6148 454.193 28.8288C455.082 27.9338 455.735 26.8849 456.109 25.7538C456.482 24.6226 456.566 23.4358 456.356 22.2742C456.146 21.1125 455.646 20.0034 454.891 19.0224C454.135 18.0414 453.142 17.2117 451.979 16.5897C450.815 15.9677 449.509 15.5681 448.15 15.4181C446.79 15.2682 445.409 15.3714 444.1 15.7208C442.791 16.0701 441.585 16.6574 440.565 17.4425C439.545 18.2277 438.734 19.1922 438.188 20.2705C439.131 19.3183 440.318 18.5647 441.655 18.0679C442.992 17.5711 444.445 17.3443 445.901 17.405V17.405Z" fill="#292426"/>
<path d="M447.06 55.5645C445.767 55.5647 444.526 55.1035 443.604 54.2804C442.682 53.4572 442.153 52.3381 442.132 51.1644C442.072 47.7629 442.041 43.572 442.041 43.093C442.041 41.9278 442.225 40.7686 442.59 39.6514L442.588 39.651C442.804 39.0902 443.064 38.5444 443.367 38.018C442.437 39.1423 441.697 40.386 441.172 41.7081L441.174 41.7085C440.809 42.8257 440.624 43.9849 440.625 45.1501C440.625 45.6291 440.656 49.82 440.716 53.2216C440.737 54.3952 441.265 55.5144 442.187 56.3375C443.109 57.1607 444.351 57.6219 445.644 57.6216V57.6216C446.71 57.6214 447.747 57.3075 448.601 56.7268C449.454 56.1462 450.076 55.3301 450.375 54.4011C449.469 55.151 448.286 55.566 447.06 55.5645V55.5645Z" fill="#292426"/>
<path d="M444.516 74.5399C443.587 74.1834 442.765 73.6416 442.114 72.9571C441.464 72.2727 441.003 71.4645 440.767 70.5961C440.532 69.7278 440.529 68.8232 440.758 67.9536C440.988 67.0841 441.443 66.2734 442.089 65.5856C441.34 66.0674 440.716 66.684 440.259 67.3945C439.801 68.105 439.52 68.8932 439.434 69.7067C439.349 70.5203 439.46 71.3405 439.762 72.1131C440.064 72.8857 440.548 73.5929 441.184 74.1877C441.82 74.7826 442.592 75.2516 443.449 75.5635C444.306 75.8755 445.228 76.0232 446.155 75.997C447.082 75.9708 447.992 75.7712 448.825 75.4115C449.657 75.0517 450.393 74.5401 450.984 73.9105C450.063 74.5041 448.98 74.8745 447.845 74.985C446.711 75.0954 445.563 74.9419 444.516 74.5399V74.5399Z" fill="#292426"/>
</svg>
