<svg width="319" height="284" viewBox="0 0 319 284" fill="none" xmlns="http://www.w3.org/2000/svg">
<g clip-path="url(#clip0)">
<path d="M212.891 99.8621H106.206C104.375 99.86 102.619 99.1437 101.324 97.8701C100.029 96.5965 99.3009 94.8698 99.2988 93.0687V10.6611C99.3003 9.34162 99.8339 8.07657 100.783 7.14352C101.731 6.21046 103.018 5.6856 104.359 5.68408H214.65C216.015 5.68561 217.324 6.21954 218.289 7.16872C219.254 8.11791 219.797 9.40483 219.798 10.7472V93.0687C219.796 94.8698 219.068 96.5965 217.773 97.8701C216.478 99.1437 214.722 99.86 212.891 99.8621V99.8621Z" fill="#DDDFD7"/>
<path d="M112.904 93.0687H206.192C207.969 93.0687 209.673 92.3746 210.929 91.1392C212.185 89.9038 212.891 88.2283 212.891 86.4812V23.2623C212.891 21.5151 212.185 19.8396 210.929 18.6042C209.673 17.3688 207.969 16.6747 206.192 16.6747H112.904C111.128 16.6747 109.424 17.3688 108.168 18.6042C106.912 19.8396 106.206 21.5151 106.206 23.2623V86.4812C106.206 88.2283 106.912 89.9038 108.168 91.1392C109.424 92.3746 111.128 93.0687 112.904 93.0687Z" fill="white"/>
<path d="M219.702 10.2725H99.2019V6.81391C99.2045 5.00682 99.9359 3.27456 101.236 1.99715C102.535 0.719738 104.297 0.00149841 106.134 0H212.769C214.607 0.00148426 216.369 0.71972 217.668 1.99713C218.968 3.27455 219.699 5.00682 219.702 6.81391V10.2725Z" fill="#DDDFD7"/>
<path d="M111.801 6.91008C112.791 6.91008 113.594 6.1205 113.594 5.14651C113.594 4.17251 112.791 3.38293 111.801 3.38293C110.81 3.38293 110.008 4.17251 110.008 5.14651C110.008 6.1205 110.81 6.91008 111.801 6.91008Z" fill="white"/>
<path d="M118.607 6.91008C119.598 6.91008 120.401 6.1205 120.401 5.14651C120.401 4.17251 119.598 3.38293 118.607 3.38293C117.617 3.38293 116.814 4.17251 116.814 5.14651C116.814 6.1205 117.617 6.91008 118.607 6.91008Z" fill="white"/>
<path d="M125.414 6.91008C126.404 6.91008 127.207 6.1205 127.207 5.14651C127.207 4.17251 126.404 3.38293 125.414 3.38293C124.424 3.38293 123.621 4.17251 123.621 5.14651C123.621 6.1205 124.424 6.91008 125.414 6.91008Z" fill="white"/>
<path d="M119.769 46.3005H115.149C114.899 46.3002 114.659 46.2022 114.481 46.028C114.304 45.8538 114.205 45.6175 114.204 45.3711V40.8274C114.205 40.5809 114.304 40.3447 114.481 40.1705C114.659 39.9962 114.899 39.8982 115.149 39.8979H119.769C120.02 39.8982 120.26 39.9962 120.437 40.1705C120.614 40.3447 120.714 40.5809 120.714 40.8274V45.3711C120.714 45.6175 120.614 45.8538 120.437 46.028C120.26 46.2022 120.02 46.3002 119.769 46.3005V46.3005Z" fill="#FDEF25"/>
<path d="M119.769 58.073H115.149C114.899 58.0727 114.659 57.9747 114.481 57.8005C114.304 57.6262 114.205 57.39 114.204 57.1436V52.5998C114.205 52.3534 114.304 52.1172 114.481 51.9429C114.659 51.7687 114.899 51.6707 115.149 51.6704H119.769C120.02 51.6707 120.26 51.7687 120.437 51.9429C120.614 52.1172 120.714 52.3534 120.714 52.5998V57.1436C120.714 57.39 120.614 57.6262 120.437 57.8005C120.26 57.9747 120.02 58.0727 119.769 58.073Z" fill="#7FAB96"/>
<path d="M119.769 69.8454H115.149C114.899 69.8452 114.659 69.7472 114.481 69.5729C114.304 69.3987 114.205 69.1625 114.204 68.916V64.3723C114.205 64.1259 114.304 63.8896 114.481 63.7154C114.659 63.5412 114.899 63.4432 115.149 63.4429H119.769C120.02 63.4432 120.26 63.5412 120.437 63.7154C120.614 63.8896 120.714 64.1259 120.714 64.3723V68.916C120.714 69.1625 120.614 69.3987 120.437 69.5729C120.26 69.7472 120.02 69.8452 119.769 69.8454V69.8454Z" fill="#DDDFD7"/>
<path d="M150.01 44.0286H127.749C127.499 44.0281 127.259 43.93 127.083 43.7557C126.906 43.5815 126.806 43.3454 126.806 43.0992C126.806 42.8531 126.906 42.617 127.083 42.4427C127.259 42.2685 127.499 42.1704 127.749 42.1698H150.01C150.134 42.1696 150.257 42.1934 150.372 42.24C150.487 42.2866 150.591 42.355 150.679 42.4414C150.767 42.5277 150.837 42.6302 150.885 42.7431C150.932 42.856 150.957 42.977 150.957 43.0992C150.957 43.2215 150.932 43.3425 150.885 43.4554C150.837 43.5682 150.767 43.6708 150.679 43.7571C150.591 43.8434 150.487 43.9119 150.372 43.9585C150.257 44.005 150.134 44.0289 150.01 44.0286V44.0286Z" fill="#DDDFD7"/>
<path d="M150.01 55.8011H127.749C127.499 55.8006 127.259 55.7024 127.083 55.5282C126.906 55.354 126.806 55.1179 126.806 54.8717C126.806 54.6255 126.906 54.3894 127.083 54.2152C127.259 54.041 127.499 53.9428 127.749 53.9423H150.01C150.26 53.9423 150.501 54.0402 150.678 54.2145C150.855 54.3888 150.955 54.6252 150.955 54.8717C150.955 55.1182 150.855 55.3546 150.678 55.5289C150.501 55.7032 150.26 55.8011 150.01 55.8011Z" fill="#DDDFD7"/>
<path d="M150.01 67.5736H127.749C127.499 67.5731 127.259 67.4749 127.083 67.3007C126.906 67.1264 126.806 66.8903 126.806 66.6442C126.806 66.398 126.906 66.1619 127.083 65.9877C127.259 65.8134 127.499 65.7153 127.749 65.7148H150.01C150.134 65.7145 150.257 65.7384 150.372 65.785C150.487 65.8316 150.591 65.9 150.679 65.9863C150.767 66.0726 150.837 66.1752 150.885 66.2881C150.932 66.4009 150.957 66.522 150.957 66.6442C150.957 66.7664 150.932 66.8874 150.885 67.0003C150.837 67.1132 150.767 67.2157 150.679 67.3021C150.591 67.3884 150.487 67.4568 150.372 67.5034C150.257 67.55 150.134 67.5738 150.01 67.5736V67.5736Z" fill="#DDDFD7"/>
<path d="M204.855 55.1669C204.879 54.7762 204.893 54.3828 204.893 53.9862C204.893 48.8193 202.806 43.8641 199.091 40.2105C195.376 36.557 190.337 34.5045 185.084 34.5045V55.1669H204.855Z" fill="#FDEF25"/>
<path d="M183.583 56.938V36.2755C179.716 36.2754 175.934 37.3882 172.703 39.4768C169.472 41.5655 166.932 44.5385 165.399 48.0294C163.865 51.5202 163.403 55.3763 164.071 59.122C164.739 62.8677 166.507 66.3393 169.157 69.1086C171.807 71.878 175.223 73.824 178.984 74.7068C182.745 75.5896 186.687 75.3704 190.323 74.0764C193.959 72.7824 197.13 70.4701 199.446 67.4247C201.762 64.3792 203.12 60.7338 203.355 56.938H183.583Z" fill="#7FAB96"/>
<path d="M318.581 284H0.418635C0.307606 284 0.201124 283.957 0.122615 283.879C0.0441058 283.802 0 283.697 0 283.588C0 283.479 0.0441058 283.374 0.122615 283.297C0.201124 283.22 0.307606 283.177 0.418635 283.177H318.581C318.692 283.177 318.799 283.22 318.877 283.297C318.956 283.374 319 283.479 319 283.588C319 283.697 318.956 283.802 318.877 283.879C318.799 283.957 318.692 284 318.581 284Z" fill="#DDDFD7"/>
<path d="M211.281 170.01C211.421 170.197 211.545 170.394 211.653 170.6L232.633 172.92L235.684 168.865L242.507 172.594L236.501 182.442L210.798 175.808C210.144 176.427 209.314 176.835 208.419 176.978C207.523 177.121 206.605 176.993 205.785 176.61C204.966 176.227 204.284 175.608 203.831 174.835C203.378 174.062 203.175 173.172 203.249 172.282C203.323 171.393 203.67 170.547 204.245 169.857C204.82 169.166 205.595 168.664 206.467 168.418C207.339 168.171 208.267 168.191 209.126 168.476C209.986 168.76 210.738 169.295 211.281 170.01V170.01Z" fill="#FFB8B8"/>
<path d="M104.235 164.683C103.704 164.99 103.112 165.179 102.499 165.236C101.886 165.293 101.268 165.217 100.689 165.014C100.109 164.811 99.5815 164.485 99.1436 164.06C98.7057 163.635 98.368 163.12 98.1542 162.553L83.1975 162.859L87.341 156.39L100.909 157.091C101.902 156.801 102.969 156.879 103.908 157.311C104.846 157.743 105.591 158.498 106.001 159.434C106.411 160.37 106.457 161.421 106.132 162.389C105.806 163.356 105.131 164.173 104.235 164.683V164.683Z" fill="#FFB8B8"/>
<path d="M97.6613 162.832C97.5425 163.222 97.2967 163.562 96.9617 163.801C96.6267 164.04 96.2211 164.165 95.8074 164.155L68.4342 163.471L43.6483 156.253C42.9662 156.055 42.3311 155.725 41.7799 155.283C41.2286 154.841 40.7723 154.295 40.4373 153.678C40.1023 153.061 39.8955 152.385 39.8287 151.688C39.7619 150.992 39.8366 150.289 40.0484 149.621C40.2602 148.953 40.6048 148.334 41.0623 147.798C41.5198 147.262 42.0811 146.822 42.7134 146.501C43.3456 146.181 44.0364 145.987 44.7455 145.932C45.4545 145.876 46.1677 145.96 46.8436 146.178L69.2366 153.399L96.1134 155.949C96.5841 155.996 97.02 156.215 97.3351 156.562C97.6503 156.909 97.8218 157.36 97.8161 157.825L97.7383 162.334C97.7357 162.502 97.7098 162.67 97.6613 162.832V162.832Z" fill="#7FAB96"/>
<path d="M57.9646 278.571L63.0967 278.571L65.5386 259.101L57.9638 259.101L57.9646 278.571Z" fill="#FFB8B8"/>
<path d="M56.6553 276.923L66.7628 276.922H66.7632C67.6091 276.922 68.4467 277.086 69.2282 277.405C70.0097 277.723 70.7198 278.19 71.3179 278.778C71.9161 279.366 72.3905 280.064 72.7142 280.833C73.0379 281.602 73.2045 282.425 73.2045 283.257V283.463L56.6557 283.464L56.6553 276.923Z" fill="#292426"/>
<path d="M42.8938 278.571L48.0258 278.571L50.4677 259.101L42.8929 259.101L42.8938 278.571Z" fill="#FFB8B8"/>
<path d="M41.5845 276.923L51.6919 276.922H51.6923C52.5382 276.922 53.3758 277.086 54.1573 277.405C54.9388 277.723 55.6489 278.19 56.2471 278.778C56.8452 279.366 57.3197 280.064 57.6434 280.833C57.9671 281.602 58.1337 282.425 58.1337 283.257V283.463L41.5848 283.464L41.5845 276.923Z" fill="#292426"/>
<path d="M39.4492 199.888L40.6748 271.401C40.6787 271.628 40.73 271.851 40.8256 272.057C40.9212 272.263 41.059 272.447 41.2303 272.599C41.4017 272.75 41.603 272.865 41.8215 272.936C42.0401 273.008 42.2713 273.034 42.5007 273.014L48.5065 272.477C48.9004 272.441 49.269 272.27 49.5468 271.993C49.8247 271.716 49.9939 271.352 50.0244 270.964L53.5405 226.356C53.5488 226.251 53.5974 226.153 53.6766 226.083C53.7557 226.012 53.8593 225.974 53.9661 225.976C54.073 225.978 54.175 226.02 54.2512 226.094C54.3274 226.167 54.3722 226.267 54.3762 226.372L56.1336 272.001C56.15 272.427 56.3335 272.83 56.6455 273.125C56.9575 273.421 57.3738 273.586 57.807 273.586H64.2479C64.6744 273.586 65.0847 273.426 65.3953 273.138C65.7059 272.851 65.8933 272.458 65.9193 272.039L70.4282 199.476L43.6356 192.888L39.4492 199.888Z" fill="#292426"/>
<path d="M58.8828 132.737C64.5615 132.737 69.1649 128.21 69.1649 122.625C69.1649 117.04 64.5615 112.513 58.8828 112.513C53.2041 112.513 48.6007 117.04 48.6007 122.625C48.6007 128.21 53.2041 132.737 58.8828 132.737Z" fill="#FFB8B8"/>
<path d="M70.0341 202.539C70.0241 202.539 70.0142 202.539 70.0042 202.539L45.9616 202.175C45.4994 202.168 45.056 201.994 44.7157 201.686C44.3754 201.379 44.162 200.959 44.116 200.506L43.8439 197.829C43.8387 197.778 43.8145 197.731 43.776 197.697C43.7375 197.663 43.6875 197.644 43.6356 197.644C43.5837 197.644 43.5336 197.663 43.4951 197.697C43.4566 197.731 43.4325 197.778 43.4273 197.829L43.1461 200.595C43.1025 201.027 42.9052 201.431 42.5888 201.735C42.2724 202.04 41.8572 202.224 41.4161 202.257L39.717 202.386C39.4176 202.408 39.1169 202.36 38.8402 202.246C38.5635 202.131 38.3187 201.953 38.1262 201.726C37.9337 201.499 37.7992 201.23 37.7338 200.942C37.6684 200.654 37.674 200.354 37.7503 200.069L39.2132 194.583C42.2406 183.181 42.4841 171.238 39.924 159.726L39.197 156.474C38.649 154.044 38.8998 151.506 39.9133 149.226C40.9268 146.946 42.6506 145.041 44.8361 143.786L49.5584 141.064L51.701 137.903C52.1156 137.293 52.6737 136.79 53.3279 136.437C53.9822 136.085 54.7133 135.892 55.4593 135.876C58.4481 135.812 63.575 136.35 64.5383 140.648C66.9255 141.451 68.9927 142.976 70.443 145.006C71.8934 147.036 72.6522 149.466 72.6104 151.947L71.9169 200.712C71.9099 201.199 71.7085 201.663 71.3562 202.005C71.0039 202.347 70.529 202.539 70.0341 202.539V202.539Z" fill="#7FAB96"/>
<path d="M58.0785 128.454C58.0364 129.884 57.0273 130.711 55.7884 131.459C54.5495 132.208 53.1012 132.533 51.6824 132.846C51.4919 132.945 51.2785 132.995 51.0628 132.99C50.8471 132.985 50.6364 132.925 50.451 132.816C50.2657 132.708 50.1119 132.554 50.0046 132.37C49.8972 132.186 49.84 131.977 49.8383 131.765L48.537 126.897C48.0766 125.342 47.7417 123.754 47.5352 122.147C47.2218 119.056 47.9668 115.73 50.1609 113.495C52.3551 111.259 56.1603 110.465 58.7897 112.187C61.91 108.268 76.1728 116.928 72.6545 119.653C72.0286 120.138 71.0718 119.524 70.2773 119.465C69.4828 119.405 68.5925 119.543 68.0879 120.149C67.4285 120.942 67.7157 122.122 67.444 123.11C67.3316 123.458 67.1503 123.78 66.9106 124.059C66.6709 124.337 66.3775 124.566 66.0473 124.733C65.7172 124.899 65.3568 125 64.9869 125.028C64.6171 125.057 64.2451 125.014 63.8924 124.9C63.2356 124.582 62.6176 124.191 62.0505 123.736C61.4411 123.336 60.6711 123.041 59.9851 123.293C59.0809 123.625 58.7596 124.714 58.6779 125.66C58.5401 126.603 58.3399 127.536 58.0785 128.454V128.454Z" fill="#292426"/>
<path opacity="0.2" d="M60.4798 155.556L62.1543 175.73L70.9457 196.728L57.968 176.142L60.4798 155.556Z" fill="#292426"/>
<path d="M168.634 266.032L76.8818 212.497C75.3078 211.577 74.1694 210.079 73.7165 208.334C73.2635 206.589 73.5328 204.739 74.4655 203.189L117.219 132.315C117.904 131.181 119.02 130.361 120.32 130.034C121.62 129.708 122.998 129.902 124.153 130.574L219.007 185.919C220.18 186.605 221.028 187.721 221.366 189.021C221.704 190.322 221.503 191.701 220.808 192.856L178.099 263.656C177.163 265.204 175.641 266.323 173.866 266.769C172.092 267.214 170.21 266.949 168.634 266.032Z" fill="#DDDFD7"/>
<path d="M86.1668 210.016L166.398 256.828C167.926 257.72 169.751 257.978 171.472 257.546C173.194 257.114 174.67 256.027 175.576 254.524L208.374 200.153C209.281 198.651 209.543 196.856 209.104 195.163C208.664 193.47 207.559 192.018 206.031 191.127L125.8 144.314C124.272 143.423 122.447 143.165 120.726 143.597C119.004 144.029 117.528 145.116 116.622 146.619L83.8238 200.989C82.9174 202.492 82.655 204.287 83.0944 205.98C83.5338 207.673 84.639 209.125 86.1668 210.016V210.016Z" fill="white"/>
<path d="M220.971 192.4L117.337 131.932L119.131 128.958C120.071 127.405 121.599 126.282 123.379 125.836C125.16 125.389 127.047 125.656 128.628 126.576L220.338 180.086C221.918 181.009 223.06 182.511 223.515 184.262C223.971 186.013 223.701 187.87 222.766 189.425L220.971 192.4Z" fill="#DDDFD7"/>
<path d="M130.832 135.609C131.822 135.609 132.625 134.82 132.625 133.846C132.625 132.872 131.822 132.082 130.832 132.082C129.841 132.082 129.039 132.872 129.039 133.846C129.039 134.82 129.841 135.609 130.832 135.609Z" fill="white"/>
<path d="M136.686 139.025C137.676 139.025 138.479 138.235 138.479 137.261C138.479 136.287 137.676 135.498 136.686 135.498C135.695 135.498 134.892 136.287 134.892 137.261C134.892 138.235 135.695 139.025 136.686 139.025Z" fill="white"/>
<path d="M142.539 142.441C143.53 142.441 144.333 141.651 144.333 140.677C144.333 139.703 143.53 138.913 142.539 138.913C141.549 138.913 140.746 139.703 140.746 140.677C140.746 141.651 141.549 142.441 142.539 142.441Z" fill="white"/>
<path d="M197.913 202.722L197.796 202.915L198.976 203.603L199.092 203.41L197.913 202.722Z" fill="#DDDFD7"/>
<path d="M195.413 201.525L193.03 200.134L193.147 199.941L195.53 201.331L195.413 201.525ZM190.647 198.744L188.264 197.354L188.381 197.16L190.764 198.551L190.647 198.744ZM185.881 195.963L183.498 194.573L183.615 194.379L185.998 195.77L185.881 195.963ZM181.115 193.182L178.732 191.792L178.849 191.599L181.232 192.989L181.115 193.182ZM176.349 190.402L173.966 189.011L174.083 188.818L176.466 190.208L176.349 190.402ZM171.583 187.621L169.2 186.231L169.317 186.037L171.7 187.428L171.583 187.621ZM166.818 184.84L164.435 183.45L164.551 183.256L166.934 184.647L166.818 184.84ZM162.052 182.059L159.669 180.669L159.785 180.476L162.168 181.866L162.052 182.059ZM157.286 179.279L154.903 177.888L155.019 177.695L157.402 179.085L157.286 179.279ZM152.52 176.498L150.137 175.107L150.253 174.914L152.636 176.304L152.52 176.498ZM147.754 173.717L145.371 172.327L145.488 172.133L147.87 173.524L147.754 173.717ZM142.988 170.936L140.605 169.546L140.722 169.353L143.105 170.743L142.988 170.936ZM138.222 168.156L135.839 166.765L135.956 166.572L138.339 167.962L138.222 168.156ZM133.456 165.375L131.073 163.984L131.19 163.791L133.573 165.181L133.456 165.375ZM128.69 162.594L126.307 161.204L126.424 161.01L128.807 162.401L128.69 162.594ZM123.924 159.813L121.541 158.423L121.658 158.23L124.041 159.62L123.924 159.813Z" fill="#DDDFD7"/>
<path d="M118.095 156.151L117.979 156.344L119.158 157.032L119.275 156.839L118.095 156.151Z" fill="#DDDFD7"/>
<path d="M148.337 198.106L148.22 198.299L149.4 198.987L149.516 198.794L148.337 198.106Z" fill="#DDDFD7"/>
<path d="M145.872 196.929L143.525 195.56L143.642 195.366L145.989 196.736L145.872 196.929ZM141.177 194.19L138.83 192.82L138.946 192.627L141.294 193.997L141.177 194.19ZM136.482 191.45L134.135 190.081L134.251 189.887L136.599 191.257L136.482 191.45ZM131.787 188.711L129.44 187.341L129.556 187.148L131.904 188.518L131.787 188.711ZM127.092 185.972L124.744 184.602L124.861 184.408L127.209 185.778L127.092 185.972ZM122.397 183.232L120.049 181.862L120.166 181.669L122.513 183.039L122.397 183.232ZM117.702 180.493L115.354 179.123L115.471 178.93L117.818 180.299L117.702 180.493ZM113.007 177.753L110.659 176.383L110.776 176.19L113.123 177.56L113.007 177.753Z" fill="#DDDFD7"/>
<path d="M107.249 174.132L107.132 174.326L108.311 175.014L108.428 174.82L107.249 174.132Z" fill="#DDDFD7"/>
<path d="M120.203 193.192L120.087 193.386L121.266 194.074L121.383 193.881L120.203 193.192Z" fill="#DDDFD7"/>
<path d="M117.671 191.977L115.256 190.567L115.373 190.374L117.788 191.783L117.671 191.977ZM112.841 189.158L110.425 187.749L110.542 187.555L112.957 188.965L112.841 189.158ZM108.01 186.34L105.595 184.93L105.712 184.737L108.127 186.146L108.01 186.34Z" fill="#DDDFD7"/>
<path d="M102.117 182.639L102 182.833L103.18 183.521L103.296 183.328L102.117 182.639Z" fill="#DDDFD7"/>
<path d="M111.446 207.71L111.329 207.904L112.509 208.592L112.625 208.399L111.446 207.71Z" fill="#DDDFD7"/>
<path d="M108.914 206.494L106.498 205.085L106.615 204.892L109.03 206.301L108.914 206.494ZM104.083 203.676L101.668 202.267L101.784 202.073L104.2 203.483L104.083 203.676ZM99.2526 200.857L96.8373 199.448L96.9539 199.255L99.3692 200.664L99.2526 200.857Z" fill="#DDDFD7"/>
<path d="M93.359 197.157L93.2424 197.351L94.422 198.039L94.5386 197.846L93.359 197.157Z" fill="#DDDFD7"/>
<path d="M99.8033 201.379L167.794 241.05C169.441 242.008 171.408 242.285 173.263 241.82C175.117 241.354 176.708 240.184 177.687 238.566L197.552 205.634L197.416 205.559L152.343 216.874L148.773 203.125C148.708 202.871 148.584 202.635 148.41 202.436C148.237 202.237 148.019 202.08 147.773 201.978C147.398 201.829 146.984 201.806 146.594 201.912L122.974 207.841L120.363 197.789C120.307 197.572 120.208 197.368 120.071 197.189C119.935 197.009 119.764 196.858 119.568 196.744C119.372 196.63 119.155 196.555 118.93 196.523C118.705 196.491 118.475 196.503 118.255 196.559C118.095 196.6 102.725 200.605 99.8033 201.379Z" fill="#FDEF25"/>
<path d="M99.3969 201.403L99.3404 201.186L118.242 196.44C118.741 196.315 119.27 196.39 119.713 196.649C120.156 196.907 120.477 197.328 120.605 197.819L123.163 207.674L146.651 201.776C147.151 201.651 147.68 201.727 148.123 201.985C148.566 202.244 148.887 202.664 149.015 203.155L152.532 216.706L197.839 205.331L197.896 205.549L152.367 216.98L148.793 203.211C148.737 202.996 148.639 202.795 148.504 202.617C148.369 202.44 148.2 202.291 148.007 202.178C147.813 202.065 147.599 201.99 147.376 201.959C147.153 201.927 146.926 201.939 146.708 201.994L122.998 207.947L120.383 197.875C120.27 197.442 119.987 197.07 119.596 196.842C119.205 196.614 118.739 196.548 118.298 196.658L99.3969 201.403Z" fill="#7FAB96"/>
<path d="M121.325 195.551C122.208 195.551 122.925 194.846 122.925 193.977C122.925 193.108 122.208 192.404 121.325 192.404C120.441 192.404 119.724 193.108 119.724 193.977C119.724 194.846 120.441 195.551 121.325 195.551Z" fill="#7FAB96"/>
<path d="M149.458 200.464C150.342 200.464 151.058 199.76 151.058 198.891C151.058 198.022 150.342 197.317 149.458 197.317C148.574 197.317 147.858 198.022 147.858 198.891C147.858 199.76 148.574 200.464 149.458 200.464Z" fill="#7FAB96"/>
<path d="M198.471 204.254C199.355 204.254 200.072 203.55 200.072 202.681C200.072 201.811 199.355 201.107 198.471 201.107C197.588 201.107 196.871 201.811 196.871 202.681C196.871 203.55 197.588 204.254 198.471 204.254Z" fill="#7FAB96"/>
<path d="M73.0014 204.548C72.5215 204.169 72.1319 203.691 71.8601 203.148C71.5883 202.605 71.4409 202.01 71.4282 201.405C71.4155 200.799 71.5379 200.199 71.7868 199.645C72.0356 199.092 72.4048 198.599 72.8684 198.201L67.2677 184.558L74.8878 186.071L79.0381 198.794C79.6664 199.605 79.9707 200.614 79.8933 201.63C79.8159 202.646 79.3621 203.599 78.618 204.308C77.8739 205.017 76.8911 205.433 75.856 205.477C74.8208 205.522 73.8051 205.191 73.0014 204.548V204.548Z" fill="#FFB8B8"/>
<path d="M72.9085 198.637C72.4957 198.666 72.0846 198.561 71.7384 198.338C71.3923 198.114 71.1303 197.786 70.9928 197.402L61.9262 171.991L59.9885 146.64C59.9351 145.942 60.0233 145.241 60.2478 144.577C60.4724 143.914 60.8289 143.3 61.2966 142.773C61.7643 142.246 62.3339 141.816 62.9723 141.507C63.6107 141.199 64.305 141.018 65.0151 140.975C65.7251 140.933 66.4366 141.03 67.1082 141.261C67.7798 141.491 68.3981 141.851 68.9271 142.318C69.4562 142.786 69.8854 143.352 70.1899 143.985C70.4943 144.617 70.6679 145.302 70.7006 146.001L71.7855 169.153L78.9011 194.77C79.0236 195.22 78.9706 195.698 78.7525 196.111C78.5344 196.524 78.167 196.842 77.7226 197.002L73.4092 198.531C73.2479 198.588 73.0795 198.624 72.9085 198.637V198.637Z" fill="#7FAB96"/>
<path d="M241.016 176.121C240.847 176.048 240.69 175.952 240.549 175.834L232.117 168.849C231.915 168.681 231.749 168.474 231.632 168.24C231.515 168.006 231.449 167.751 231.438 167.49C231.426 167.23 231.469 166.97 231.565 166.727C231.661 166.484 231.807 166.263 231.994 166.079L239.645 158.523C239.967 158.203 240.394 158.007 240.85 157.971C241.306 157.936 241.759 158.062 242.128 158.328L247.914 162.46C248.275 162.719 248.534 163.093 248.644 163.518C248.755 163.943 248.711 164.393 248.52 164.79L243.515 175.199C243.302 175.642 242.922 175.986 242.455 176.158C241.989 176.33 241.473 176.317 241.016 176.121L241.016 176.121Z" fill="#FDEF25"/>
<path d="M273.903 274.919L268.867 276.266L261.186 257.804L268.618 255.816L273.903 274.919Z" fill="#FFB8B8"/>
<path d="M264.777 275.841L274.591 273.215L276.254 279.229L260.428 283.464L260.4 283.364C259.966 281.795 260.183 280.122 261.004 278.711C261.825 277.3 263.182 276.267 264.777 275.841Z" fill="#292426"/>
<path d="M230.853 278.698L225.634 278.697L223.151 258.9L230.854 258.9L230.853 278.698Z" fill="#FFB8B8"/>
<path d="M221.801 277.231H231.971V283.463H215.569V283.36C215.569 281.734 216.225 280.175 217.394 279.026C218.563 277.877 220.148 277.231 221.801 277.231V277.231Z" fill="#292426"/>
<path d="M238.715 147.984C244.489 147.984 249.17 143.38 249.17 137.701C249.17 132.022 244.489 127.419 238.715 127.419C232.94 127.419 228.259 132.022 228.259 137.701C228.259 143.38 232.94 147.984 238.715 147.984Z" fill="#FFB8B8"/>
<path d="M230.533 264.582H223.401C222.914 264.581 222.445 264.398 222.09 264.07C221.734 263.742 221.519 263.293 221.488 262.814C219.362 229.589 220.606 205.755 225.4 187.81C225.421 187.731 225.447 187.654 225.477 187.579L225.859 186.64C226 186.289 226.245 185.989 226.563 185.778C226.88 185.566 227.255 185.454 227.638 185.455H242.304C242.58 185.455 242.853 185.514 243.104 185.627C243.355 185.741 243.579 185.907 243.758 186.113L245.75 188.399C245.789 188.444 245.825 188.489 245.86 188.537C254.843 200.856 262.893 224.941 272.216 257.314C272.354 257.784 272.299 258.289 272.064 258.72C271.828 259.152 271.431 259.476 270.957 259.623L263.292 262.035C262.852 262.172 262.377 262.148 261.953 261.969C261.529 261.79 261.185 261.467 260.983 261.059L241.093 220.488C240.954 220.204 240.726 219.972 240.442 219.826C240.159 219.68 239.835 219.628 239.519 219.677C239.203 219.726 238.911 219.874 238.687 220.099C238.463 220.324 238.318 220.614 238.275 220.926L232.431 262.953C232.367 263.404 232.14 263.817 231.791 264.116C231.443 264.415 230.996 264.581 230.533 264.582V264.582Z" fill="#292426"/>
<path d="M244.946 188.566C244.926 188.566 244.906 188.566 244.886 188.565L227.072 188.012C226.614 188 226.175 187.825 225.837 187.522C225.499 187.218 225.283 186.804 225.229 186.357C222.971 168.379 229.164 163.563 231.932 162.327C232.163 162.224 232.363 162.064 232.513 161.863C232.663 161.662 232.758 161.426 232.788 161.178L233.028 159.294C233.069 158.961 233.199 158.645 233.406 158.379C237.746 152.85 243.671 151.08 246.817 150.517C247.072 150.472 247.334 150.478 247.586 150.536C247.839 150.593 248.077 150.701 248.286 150.851C248.495 151.002 248.671 151.193 248.802 151.413C248.934 151.632 249.019 151.876 249.052 152.129L249.411 154.835C249.447 155.093 249.552 155.337 249.714 155.543C258.764 167.178 248.682 184.358 246.569 187.683C246.397 187.954 246.157 188.176 245.873 188.33C245.59 188.485 245.271 188.566 244.946 188.566V188.566Z" fill="#FDEF25"/>
<path d="M250.218 131.306C249.442 128.991 248.868 126.615 248.505 124.203C248.391 122.799 248.756 121.288 249.796 120.32C251.742 118.507 255.047 119.37 257.082 121.086C260.022 123.566 261.489 127.376 262.043 131.147C262.598 134.917 262.354 138.751 262.487 142.558C262.62 146.365 263.174 150.28 265.148 153.558C267.121 156.836 270.784 159.352 274.647 159.073C276.206 158.99 277.687 158.373 278.832 157.329C279.394 156.803 279.819 156.152 280.073 155.431C280.326 154.71 280.401 153.94 280.289 153.185C282.263 156.662 281.263 161.375 278.317 164.108C275.372 166.842 270.842 167.614 266.971 166.447C263.099 165.28 259.912 162.354 258.009 158.839C256.106 155.323 255.408 151.262 255.509 147.281C255.587 144.224 256.115 141.141 255.59 138.127C255.065 135.113 253.146 132.052 250.122 131.342L250.218 131.306Z" fill="#292426"/>
<path d="M236.635 135.269C236.119 136.964 234.146 138.008 232.372 137.722C231.489 137.541 230.671 137.129 230.007 136.528C229.343 135.928 228.856 135.161 228.599 134.311C228.111 132.588 228.311 130.746 229.157 129.163C229.623 128.214 230.275 127.364 231.075 126.663C231.876 125.962 232.809 125.423 233.821 125.077C234.839 124.745 235.923 124.659 236.982 124.826C238.041 124.992 239.044 125.406 239.906 126.034C239.998 125.653 240.192 125.303 240.466 125.021C240.741 124.738 241.088 124.532 241.47 124.425C242.241 124.221 243.054 124.233 243.817 124.459C246.018 125.076 247.926 126.44 249.2 128.31C250.458 130.174 251.29 132.284 251.639 134.494C252.24 137.809 252.018 141.432 250.125 144.238C248.232 147.044 244.359 148.7 241.217 147.363C241.021 146.378 241.485 145.386 242.022 144.532C242.559 143.678 243.195 142.847 243.402 141.864C243.608 140.881 243.212 139.678 242.246 139.357C241.421 139.083 240.541 139.527 239.672 139.581C239.179 139.611 238.686 139.513 238.243 139.297C237.8 139.081 237.422 138.754 237.148 138.35C236.874 137.945 236.713 137.476 236.682 136.991C236.65 136.506 236.749 136.021 236.967 135.585L236.635 135.269Z" fill="#292426"/>
<path d="M210.136 177.63C210.309 177.788 210.469 177.958 210.615 178.14L231.663 176.529L233.882 171.982L241.298 174.379L237.287 185.164L210.774 183.414C210.25 184.142 209.513 184.697 208.661 185.004C207.809 185.31 206.882 185.354 206.004 185.131C205.126 184.907 204.338 184.425 203.745 183.75C203.152 183.075 202.781 182.238 202.684 181.351C202.586 180.464 202.765 179.568 203.197 178.784C203.629 177.999 204.294 177.363 205.103 176.959C205.912 176.555 206.827 176.403 207.726 176.523C208.625 176.643 209.466 177.029 210.136 177.63V177.63Z" fill="#FFB8B8"/>
<path d="M241.184 181.562C241.006 181.513 240.837 181.438 240.681 181.341L231.36 175.551C231.136 175.412 230.944 175.228 230.795 175.012C230.647 174.796 230.546 174.552 230.498 174.296C230.451 174.04 230.458 173.776 230.519 173.523C230.58 173.269 230.695 173.031 230.854 172.823L237.387 164.312C237.661 163.952 238.057 163.701 238.504 163.604C238.951 163.508 239.418 163.572 239.82 163.786L246.125 167.105C246.518 167.312 246.826 167.648 246.994 168.054C247.163 168.461 247.182 168.913 247.048 169.331L243.531 180.314C243.382 180.781 243.053 181.173 242.615 181.406C242.176 181.639 241.663 181.695 241.184 181.562V181.562Z" fill="#FDEF25"/>
</g>
<defs>
<clipPath id="clip0">
<rect width="319" height="284" fill="white"/>
</clipPath>
</defs>
</svg>
