<svg width="563" height="599" viewBox="0 0 563 599" fill="none" xmlns="http://www.w3.org/2000/svg">
<path d="M314.167 451.138L310.889 459.846L295.737 500.006C290.053 503.916 282.875 506.428 274.824 506.428C273.873 506.428 272.729 506.202 271.759 506.145C263.339 505.578 255.269 501.989 249.682 497.418L254.202 448.985L254.532 445.471C278.956 454.69 307.436 453.141 314.167 451.138Z" fill="#A0505A"/>
<path d="M314.167 451.138L307.746 468.139C288.152 470.727 259.44 455.124 254.221 448.985L254.551 445.471C278.956 454.69 307.435 453.141 314.167 451.138Z" fill="#73325A"/>
<path d="M296.047 499.949L291.411 547.23C290.577 559.697 280.76 569.237 269.12 569.237C268.596 569.237 268.073 569.218 267.529 569.18C255.191 568.273 245.899 556.958 246.772 543.925L249.585 502.141L249.876 497.664C252.359 499.93 255.249 501.876 258.45 503.387C262.466 505.276 266.947 506.504 271.739 506.863C272.709 506.939 273.66 506.976 274.61 506.976C277.365 506.976 280.062 506.674 282.623 506.107C282.7 506.088 282.797 506.07 282.875 506.051C287.667 504.955 292.051 502.934 295.698 500.195C295.834 500.119 295.95 500.044 296.047 499.949Z" fill="white" stroke="#FDEF25" stroke-width="4.91919" stroke-miterlimit="10"/>
<path d="M291.605 502.821L288.326 540.657C287.628 551.197 279.325 559.263 269.469 559.263C269.023 559.263 268.577 559.244 268.131 559.206C257.713 558.432 249.837 548.874 250.574 537.842L253.154 500.195" stroke="#FDEF25" stroke-width="4.91919" stroke-miterlimit="10"/>
<path d="M282.836 505.635C280.275 506.145 277.385 506.24 274.63 506.24C273.679 506.24 272.729 506.202 271.759 506.145C266.967 505.824 262.466 504.691 258.47 502.953L257.189 496.833C256.375 494.226 258.412 491.6 261.225 491.694L279.849 492.223C282.216 492.28 284.02 494.282 283.806 496.568L282.836 505.635Z" fill="#FDEF25"/>
<path d="M282.642 505.446L280.294 534.177C279.887 539.75 274.455 543.868 269.334 542.961L268.926 542.923C261.632 541.62 256.045 534.215 256.995 526.282L258.47 502.934C262.485 504.672 266.967 505.805 271.759 506.126C272.729 506.202 273.679 506.221 274.63 506.221C277.385 506.24 280.081 505.956 282.642 505.446Z" fill="#FDEF25"/>
<path d="M279.79 536.576L258.547 531.854C256.394 531.382 256.549 528.341 258.761 528.076L279.072 525.753C281.497 525.469 281.827 522.164 279.499 521.446L260.041 515.439C257.073 514.513 257.306 510.358 260.371 509.753L282.661 505.994C282.661 505.994 266.016 507.411 258.489 503.368" stroke="white" stroke-width="4.91919" stroke-miterlimit="10" stroke-linecap="round" stroke-linejoin="round"/>
<path d="M354.248 344.884L314.167 451.138C307.435 453.141 275.677 455.785 244.676 441.788L269.062 331.944C271.332 315.321 285.882 302.892 303.129 302.892H321.054C343.578 302.873 360.029 323.652 354.248 344.884Z" fill="#FDEF25"/>
<path d="M318.823 439.805C312.091 441.807 277.618 444.263 246.616 430.265" stroke="white" stroke-width="5.90303" stroke-miterlimit="10" stroke-linecap="round"/>
<path d="M367.614 453.235L363.579 460.205L337.757 504.2C327.805 508.034 316.068 509.451 305.553 507.298L304.234 506.939C299.035 505.881 293.719 503.047 289.956 499.874L308.793 450.855C308.793 450.855 308.813 450.855 308.832 450.855C315.331 452.952 337.68 458.845 367.614 453.235Z" fill="#A0505A"/>
<path d="M367.614 453.235L359.098 467.837C326.312 472.937 307.726 453.726 307.726 453.726L308.813 450.874C315.331 452.952 337.68 458.845 367.614 453.235Z" fill="#73325A"/>
<path d="M422.865 361.733L378.148 451.195C340.299 460.413 315.273 452.952 308.813 450.874L355.606 329.017C358.807 321.631 364.122 315.529 370.699 311.279C377.275 307.029 385.113 304.63 393.339 304.63C424.495 304.63 437.92 335.156 422.865 361.733Z" fill="#FDEF25"/>
<path d="M383.173 441.561C345.323 450.779 319.521 443.318 313.061 441.24" stroke="white" stroke-width="5.90303" stroke-miterlimit="10" stroke-linecap="round"/>
<path d="M355.606 329.017L286.833 509.526" stroke="white" stroke-width="5.90303" stroke-miterlimit="10"/>
<path d="M337.37 504.332L335.856 508.204L318.707 551.896C313.799 566.875 297.658 575.773 283.476 572.353L282.7 572.108C272.748 569.709 266.424 558.035 270.323 547.721L289.917 501.102L290.325 500.138C292.788 502.292 295.66 504.067 298.861 505.352C300.568 506.032 302.372 506.58 304.254 506.976L305.573 507.335C311.141 508.469 316.883 508.676 322.548 508.034C327.631 507.43 332.636 506.183 337.37 504.332Z" fill="white" stroke="#FDEF25" stroke-width="4.91919" stroke-miterlimit="10"/>
<path d="M331.821 506.353L316.786 545.039C312.673 557.582 299.152 565.043 287.279 562.172L286.639 561.964C278.297 559.943 273 550.177 276.26 541.526L292.866 502.273" stroke="#FDEF25" stroke-width="4.91919" stroke-miterlimit="10" stroke-linecap="round"/>
<path d="M326.059 502.178L322.528 507.996C316.883 508.639 311.141 508.431 305.553 507.297L304.234 506.939C302.352 506.561 300.548 506.013 298.841 505.314L300.238 495.869C300.568 493.602 302.818 492.072 305.127 492.545L323.363 496.266C326.117 496.814 327.495 499.836 326.059 502.178Z" fill="#FDEF25"/>
<path d="M322.529 507.996L322.432 508.147L313.314 531.608C310.811 539.221 302.624 543.735 295.407 541.998L295.019 541.865C289.956 540.638 286.736 534.706 288.734 529.474L298.802 505.673L298.861 505.314C300.568 505.994 302.372 506.542 304.254 506.938L305.573 507.297C311.141 508.45 316.883 508.639 322.529 507.996Z" fill="#FDEF25"/>
<path d="M288.152 533.648L309.104 535.859C311.684 536.123 312.77 532.723 310.481 531.533L294.166 523.051C291.935 521.899 292.866 518.612 295.388 518.726L315.991 519.632C318.765 519.764 319.774 516.138 317.329 514.872L298.841 505.276C298.841 505.276 308.366 509.64 322.47 507.94" stroke="white" stroke-width="4.91919" stroke-miterlimit="10" stroke-linecap="round" stroke-linejoin="round"/>
<path d="M238.973 308.502C317.98 308.502 382.028 246.139 382.028 169.21C382.028 92.2804 317.98 29.917 238.973 29.917C159.965 29.917 95.917 92.2804 95.917 169.21C95.917 246.139 159.965 308.502 238.973 308.502Z" fill="#7FAB96"/>
<path d="M191.055 308.521C131.244 289.027 88.1376 234.02 88.1376 169.21" stroke="#FDEF25" stroke-width="6.88687" stroke-miterlimit="10"/>
<path d="M238.973 259.181C290.005 259.181 331.375 218.9 331.375 169.21C331.375 119.52 290.005 79.238 238.973 79.238C187.94 79.238 146.57 119.52 146.57 169.21C146.57 218.9 187.94 259.181 238.973 259.181Z" stroke="white" stroke-width="9.83838" stroke-miterlimit="10" stroke-linecap="round" stroke-dasharray="29.54 29.54"/>
<path d="M238.973 79.2569V94.2364" stroke="white" stroke-width="14.7576" stroke-miterlimit="10" stroke-linecap="round"/>
<path d="M238.973 244.183V259.181" stroke="white" stroke-width="14.7576" stroke-miterlimit="10" stroke-linecap="round"/>
<path d="M173.633 105.589L184.517 116.205" stroke="white" stroke-width="14.7576" stroke-miterlimit="10" stroke-linecap="round"/>
<path d="M293.409 222.233L304.293 232.83" stroke="white" stroke-width="14.7576" stroke-miterlimit="10" stroke-linecap="round"/>
<path d="M146.57 169.21H161.974" stroke="white" stroke-width="14.7576" stroke-miterlimit="10" stroke-linecap="round"/>
<path d="M315.971 169.21H331.355" stroke="white" stroke-width="14.7576" stroke-miterlimit="10" stroke-linecap="round"/>
<path d="M173.633 232.83L184.517 222.233" stroke="white" stroke-width="14.7576" stroke-miterlimit="10" stroke-linecap="round"/>
<path d="M293.409 116.205L304.293 105.589" stroke="white" stroke-width="14.7576" stroke-miterlimit="10" stroke-linecap="round"/>
<path d="M238.972 264.848C225.722 264.848 212.86 262.317 200.735 257.33C189.037 252.513 178.541 245.618 169.52 236.835C160.499 228.051 153.418 217.832 148.471 206.441C143.35 194.654 140.75 182.13 140.75 169.21C140.75 142.707 151.304 118.377 170.296 101.584L178.115 109.972C170.025 117.131 164.069 124.989 159.452 135.529C154.815 146.126 152.371 157.762 152.371 169.191C152.371 180.581 154.66 191.613 159.18 202.002C163.545 212.033 169.792 221.062 177.746 228.807C185.7 236.551 194.954 242.634 205.275 246.865C215.945 251.266 227.274 253.495 238.972 253.495C250.671 253.495 262 251.266 272.67 246.865C282.972 242.615 292.245 236.533 300.199 228.807C308.153 221.062 314.399 212.051 318.764 202.002C323.285 191.613 325.574 180.581 325.574 169.191C325.574 157.857 323.207 146.844 318.532 136.436C314.031 126.424 307.59 117.395 299.403 109.631C291.236 101.887 281.769 95.7853 271.254 91.5163C260.409 87.115 250.709 85.2638 239.011 85.2638V73.93C252.261 73.93 263.475 76.0834 275.735 81.0514C287.608 85.8682 298.298 92.7441 307.532 101.509C316.805 110.312 324.099 120.531 329.202 131.884C334.517 143.727 337.233 156.27 337.233 169.172C337.233 182.073 334.634 194.597 329.512 206.403C324.565 217.794 317.484 228.013 308.463 236.797C299.442 245.581 288.947 252.475 277.249 257.292C265.085 262.317 252.223 264.848 238.972 264.848Z" fill="#D0F0E4" stroke="white" stroke-width="14.7576" stroke-miterlimit="10" stroke-linecap="round" stroke-linejoin="round"/>
<path d="M190.55 121.173L251.524 182.073" stroke="#FDEF25" stroke-width="6.88687" stroke-miterlimit="10" stroke-linecap="round"/>
<path d="M239.632 174.536C242.3 174.536 244.463 172.431 244.463 169.833C244.463 167.235 242.3 165.129 239.632 165.129C236.964 165.129 234.802 167.235 234.802 169.833C234.802 172.431 236.964 174.536 239.632 174.536Z" fill="#D0F0E4" stroke="white" stroke-width="14.7576" stroke-miterlimit="10" stroke-linecap="round"/>
<path d="M265.977 69.7553L266.85 63.6917C267.277 60.896 270.168 59.1204 272.942 59.9516L279.034 61.7461C281.808 62.5583 283.205 65.5996 281.963 68.1686L279.014 73.9488" stroke="white" stroke-width="14.7576" stroke-miterlimit="10" stroke-linecap="round"/>
<path d="M224.403 573.052V329.659H450.665V573.052" stroke="#DDDFD7" stroke-width="5.90303" stroke-miterlimit="10"/>
<path d="M458.679 337.8H216.392C210.921 337.8 206.479 333.474 206.479 328.147V291.369C206.479 286.042 210.921 281.717 216.392 281.717H458.679C464.149 281.717 468.592 286.042 468.592 291.369V328.147C468.592 333.474 464.149 337.8 458.679 337.8Z" fill="white" stroke="#DDDFD7" stroke-width="5.90303" stroke-miterlimit="10"/>
<path d="M459.259 331.189H215.809C210.338 331.189 205.896 326.863 205.896 321.536V284.758C205.896 279.431 210.338 275.105 215.809 275.105H459.259C464.73 275.105 469.173 279.431 469.173 284.758V321.536C469.173 326.863 464.73 331.189 459.259 331.189Z" fill="#DDDFD7"/>
<path d="M457.747 478.434V449.608C457.747 439.786 465.933 431.814 476.021 431.814C486.11 431.814 494.296 439.786 494.296 449.608V478.434" stroke="#FDEF25" stroke-width="5.90303" stroke-miterlimit="10"/>
<path d="M439.685 573.222H507.759C515.694 573.222 522.135 566.951 522.135 559.225V466.892C522.135 459.166 515.694 452.895 507.759 452.895H439.685C431.751 452.895 425.31 459.166 425.31 466.892V559.225C425.31 566.97 431.751 573.222 439.685 573.222Z" fill="#7FAB96"/>
<path d="M522.116 474.335C522.116 465.495 514.744 458.316 505.665 458.316H452.625C443.546 458.316 436.174 465.495 436.174 474.335V538.144" stroke="white" stroke-width="5.90303" stroke-miterlimit="10"/>
<path d="M507.973 573.222H461.549C453.731 573.222 447.406 567.064 447.406 559.452V477.225C447.406 469.612 453.731 463.454 461.549 463.454H507.973C515.791 463.454 522.116 469.612 522.116 477.225V559.452C522.116 567.064 515.791 573.222 507.973 573.222Z" fill="white" stroke="#FDEF25" stroke-width="5.90303" stroke-miterlimit="10"/>
<path d="M467.97 484.913V456.087C467.97 446.265 476.157 438.293 486.245 438.293C496.333 438.293 504.52 446.265 504.52 456.087V484.913" stroke="#FDEF25" stroke-width="5.90303" stroke-miterlimit="10"/>
<path d="M507.818 562.399H462.15C458.445 562.399 455.438 559.471 455.438 555.863V521.88C455.438 518.272 458.445 515.344 462.15 515.344H507.818C511.523 515.344 514.53 518.272 514.53 521.88V555.863C514.55 559.471 511.543 562.399 507.818 562.399Z" fill="#FDEF25"/>
<path d="M439.084 538.144H433.341" stroke="#FDEF25" stroke-width="5.90303" stroke-miterlimit="10"/>
<path d="M426.202 479.038C426.202 506.58 395.279 547.438 405.929 560.529C416.095 573.015 426.202 560.51 426.202 560.51V479.038Z" fill="white" stroke="#7FAB96" stroke-width="5.90303" stroke-miterlimit="10"/>
<path d="M459.085 527.963H510.398" stroke="white" stroke-width="4.91919" stroke-miterlimit="10" stroke-linecap="round"/>
<path d="M471.656 484.346H464.284V487.784H471.656V484.346Z" stroke="#FDEF25" stroke-width="5.90303" stroke-miterlimit="10"/>
<path d="M508.07 484.346H500.698V487.784H508.07V484.346Z" stroke="#FDEF25" stroke-width="5.90303" stroke-miterlimit="10"/>
<path d="M459.085 530.267V527.963" stroke="white" stroke-width="4.91919" stroke-miterlimit="10" stroke-linecap="round"/>
<path d="M463.741 530.267V527.963" stroke="white" stroke-width="4.91919" stroke-miterlimit="10" stroke-linecap="round"/>
<path d="M468.417 530.267V527.963" stroke="white" stroke-width="4.91919" stroke-miterlimit="10" stroke-linecap="round"/>
<path d="M473.073 530.267V527.963" stroke="white" stroke-width="4.91919" stroke-miterlimit="10" stroke-linecap="round"/>
<path d="M477.748 530.267V527.963" stroke="white" stroke-width="4.91919" stroke-miterlimit="10" stroke-linecap="round"/>
<path d="M482.404 530.267V527.963" stroke="white" stroke-width="4.91919" stroke-miterlimit="10" stroke-linecap="round"/>
<path d="M487.293 530.267V527.963" stroke="white" stroke-width="4.91919" stroke-miterlimit="10" stroke-linecap="round"/>
<path d="M491.968 530.267V527.963" stroke="white" stroke-width="4.91919" stroke-miterlimit="10" stroke-linecap="round"/>
<path d="M496.411 530.267V527.963" stroke="white" stroke-width="4.91919" stroke-miterlimit="10" stroke-linecap="round"/>
<path d="M501.067 530.267V527.963" stroke="white" stroke-width="4.91919" stroke-miterlimit="10" stroke-linecap="round"/>
<path d="M505.742 530.267V527.963" stroke="white" stroke-width="4.91919" stroke-miterlimit="10" stroke-linecap="round"/>
<path d="M510.398 530.267V527.963" stroke="white" stroke-width="4.91919" stroke-miterlimit="10" stroke-linecap="round"/>
<path d="M464.498 538.144C463.237 538.144 462.286 537.068 462.441 535.859L463.47 527.944H465.526L466.554 535.859C466.729 537.068 465.759 538.144 464.498 538.144Z" fill="white" stroke="#7FAB96" stroke-width="5.90303" stroke-miterlimit="10"/>
<path d="M388.159 275.086H301.344V319.798H388.159V275.086Z" fill="white"/>
<path d="M377.993 310.259C378.989 310.259 379.797 309.472 379.797 308.502C379.797 307.532 378.989 306.745 377.993 306.745C376.997 306.745 376.189 307.532 376.189 308.502C376.189 309.472 376.997 310.259 377.993 310.259Z" fill="#7FAB96" stroke="#7FAB96" stroke-width="4.91919" stroke-miterlimit="10"/>
<path d="M371.319 310.259C372.316 310.259 373.123 309.472 373.123 308.502C373.123 307.532 372.316 306.745 371.319 306.745C370.323 306.745 369.515 307.532 369.515 308.502C369.515 309.472 370.323 310.259 371.319 310.259Z" fill="white" stroke="#7FAB96" stroke-width="4.91919" stroke-miterlimit="10"/>
<path d="M364.665 310.259C365.661 310.259 366.469 309.472 366.469 308.502C366.469 307.532 365.661 306.745 364.665 306.745C363.669 306.745 362.861 307.532 362.861 308.502C362.861 309.472 363.669 310.259 364.665 310.259Z" fill="white" stroke="#7FAB96" stroke-width="4.91919" stroke-miterlimit="10"/>
<path d="M377.993 303.704C378.989 303.704 379.797 302.918 379.797 301.947C379.797 300.977 378.989 300.191 377.993 300.191C376.997 300.191 376.189 300.977 376.189 301.947C376.189 302.918 376.997 303.704 377.993 303.704Z" fill="#7FAB96" stroke="#7FAB96" stroke-width="4.91919" stroke-miterlimit="10"/>
<path d="M371.319 303.704C372.316 303.704 373.123 302.918 373.123 301.947C373.123 300.977 372.316 300.191 371.319 300.191C370.323 300.191 369.515 300.977 369.515 301.947C369.515 302.918 370.323 303.704 371.319 303.704Z" fill="white" stroke="#7FAB96" stroke-width="4.91919" stroke-miterlimit="10"/>
<path d="M364.665 303.704C365.661 303.704 366.469 302.918 366.469 301.947C366.469 300.977 365.661 300.191 364.665 300.191C363.669 300.191 362.861 300.977 362.861 301.947C362.861 302.918 363.669 303.704 364.665 303.704Z" fill="white" stroke="#7FAB96" stroke-width="4.91919" stroke-miterlimit="10"/>
<path d="M377.993 290.633C378.989 290.633 379.797 289.846 379.797 288.876C379.797 287.906 378.989 287.119 377.993 287.119C376.997 287.119 376.189 287.906 376.189 288.876C376.189 289.846 376.997 290.633 377.993 290.633Z" fill="white" stroke="#7FAB96" stroke-width="4.91919" stroke-miterlimit="10"/>
<path d="M371.319 290.633C372.316 290.633 373.123 289.846 373.123 288.876C373.123 287.906 372.316 287.119 371.319 287.119C370.323 287.119 369.515 287.906 369.515 288.876C369.515 289.846 370.323 290.633 371.319 290.633Z" fill="#7FAB96" stroke="#7FAB96" stroke-width="4.91919" stroke-miterlimit="10"/>
<path d="M364.665 290.633C365.661 290.633 366.469 289.846 366.469 288.876C366.469 287.906 365.661 287.119 364.665 287.119C363.669 287.119 362.861 287.906 362.861 288.876C362.861 289.846 363.669 290.633 364.665 290.633Z" fill="white" stroke="#7FAB96" stroke-width="4.91919" stroke-miterlimit="10"/>
<path d="M377.993 297.168C378.989 297.168 379.797 296.382 379.797 295.412C379.797 294.441 378.989 293.655 377.993 293.655C376.997 293.655 376.189 294.441 376.189 295.412C376.189 296.382 376.997 297.168 377.993 297.168Z" fill="white" stroke="#7FAB96" stroke-width="4.91919" stroke-miterlimit="10"/>
<path d="M371.319 297.168C372.316 297.168 373.123 296.382 373.123 295.412C373.123 294.441 372.316 293.655 371.319 293.655C370.323 293.655 369.515 294.441 369.515 295.412C369.515 296.382 370.323 297.168 371.319 297.168Z" fill="white" stroke="#7FAB96" stroke-width="4.91919" stroke-miterlimit="10"/>
<path d="M364.665 297.168C365.661 297.168 366.469 296.382 366.469 295.412C366.469 294.441 365.661 293.655 364.665 293.655C363.669 293.655 362.861 294.441 362.861 295.412C362.861 296.382 363.669 297.168 364.665 297.168Z" fill="#7FAB96" stroke="#7FAB96" stroke-width="4.91919" stroke-miterlimit="10"/>
<path d="M325.419 297.168C326.415 297.168 327.223 296.382 327.223 295.412C327.223 294.441 326.415 293.655 325.419 293.655C324.423 293.655 323.615 294.441 323.615 295.412C323.615 296.382 324.423 297.168 325.419 297.168Z" fill="#7FAB96" stroke="#7FAB96" stroke-width="4.91919" stroke-miterlimit="10"/>
<path d="M318.746 297.168C319.742 297.168 320.55 296.382 320.55 295.412C320.55 294.441 319.742 293.655 318.746 293.655C317.749 293.655 316.941 294.441 316.941 295.412C316.941 296.382 317.749 297.168 318.746 297.168Z" fill="white" stroke="#7FAB96" stroke-width="4.91919" stroke-miterlimit="10"/>
<path d="M312.091 284.097C313.088 284.097 313.895 283.31 313.895 282.34C313.895 281.37 313.088 280.583 312.091 280.583C311.094 280.583 310.287 281.37 310.287 282.34C310.287 283.31 311.094 284.097 312.091 284.097Z" fill="white" stroke="#7FAB96" stroke-width="4.91919" stroke-miterlimit="10"/>
<path d="M325.419 290.633C326.415 290.633 327.223 289.846 327.223 288.876C327.223 287.906 326.415 287.119 325.419 287.119C324.422 287.119 323.615 287.906 323.615 288.876C323.615 289.846 324.422 290.633 325.419 290.633Z" fill="white" stroke="#7FAB96" stroke-width="4.91919" stroke-miterlimit="10"/>
<path d="M318.746 290.633C319.742 290.633 320.55 289.846 320.55 288.876C320.55 287.906 319.742 287.119 318.746 287.119C317.749 287.119 316.941 287.906 316.941 288.876C316.941 289.846 317.749 290.633 318.746 290.633Z" fill="white" stroke="#7FAB96" stroke-width="4.91919" stroke-miterlimit="10"/>
<path d="M312.091 290.633C313.088 290.633 313.895 289.846 313.895 288.876C313.895 287.906 313.088 287.119 312.091 287.119C311.094 287.119 310.287 287.906 310.287 288.876C310.287 289.846 311.094 290.633 312.091 290.633Z" fill="#7FAB96" stroke="#7FAB96" stroke-width="4.91919" stroke-miterlimit="10"/>
<path d="M350.639 303.704C351.635 303.704 352.443 302.918 352.443 301.947C352.443 300.977 351.635 300.191 350.639 300.191C349.642 300.191 348.835 300.977 348.835 301.947C348.835 302.918 349.642 303.704 350.639 303.704Z" fill="white" stroke="#7FAB96" stroke-width="4.91919" stroke-miterlimit="10"/>
<path d="M343.965 303.704C344.962 303.704 345.769 302.918 345.769 301.947C345.769 300.977 344.962 300.191 343.965 300.191C342.969 300.191 342.161 300.977 342.161 301.947C342.161 302.918 342.969 303.704 343.965 303.704Z" fill="white" stroke="#7FAB96" stroke-width="4.91919" stroke-miterlimit="10"/>
<path d="M337.311 303.704C338.308 303.704 339.115 302.918 339.115 301.947C339.115 300.977 338.308 300.191 337.311 300.191C336.315 300.191 335.507 300.977 335.507 301.947C335.507 302.918 336.315 303.704 337.311 303.704Z" fill="#7FAB96" stroke="#7FAB96" stroke-width="4.91919" stroke-miterlimit="10"/>
<path d="M350.639 290.633C351.635 290.633 352.443 289.846 352.443 288.876C352.443 287.906 351.635 287.119 350.639 287.119C349.642 287.119 348.835 287.906 348.835 288.876C348.835 289.846 349.642 290.633 350.639 290.633Z" fill="#7FAB96" stroke="#7FAB96" stroke-width="4.91919" stroke-miterlimit="10"/>
<path d="M343.965 290.633C344.962 290.633 345.77 289.846 345.77 288.876C345.77 287.906 344.962 287.119 343.965 287.119C342.969 287.119 342.161 287.906 342.161 288.876C342.161 289.846 342.969 290.633 343.965 290.633Z" fill="white" stroke="#7FAB96" stroke-width="4.91919" stroke-miterlimit="10"/>
<path d="M337.311 290.633C338.307 290.633 339.115 289.846 339.115 288.876C339.115 287.906 338.307 287.119 337.311 287.119C336.315 287.119 335.507 287.906 335.507 288.876C335.507 289.846 336.315 290.633 337.311 290.633Z" fill="white" stroke="#7FAB96" stroke-width="4.91919" stroke-miterlimit="10"/>
<path d="M350.639 297.168C351.635 297.168 352.443 296.382 352.443 295.412C352.443 294.441 351.635 293.655 350.639 293.655C349.642 293.655 348.835 294.441 348.835 295.412C348.835 296.382 349.642 297.168 350.639 297.168Z" fill="white" stroke="#7FAB96" stroke-width="4.91919" stroke-miterlimit="10"/>
<path d="M343.965 297.168C344.962 297.168 345.769 296.382 345.769 295.412C345.769 294.441 344.962 293.655 343.965 293.655C342.969 293.655 342.161 294.441 342.161 295.412C342.161 296.382 342.969 297.168 343.965 297.168Z" fill="#7FAB96" stroke="#7FAB96" stroke-width="4.91919" stroke-miterlimit="10"/>
<path d="M337.311 297.168C338.308 297.168 339.115 296.382 339.115 295.412C339.115 294.441 338.308 293.655 337.311 293.655C336.315 293.655 335.507 294.441 335.507 295.412C335.507 296.382 336.315 297.168 337.311 297.168Z" fill="white" stroke="#7FAB96" stroke-width="4.91919" stroke-miterlimit="10"/>
<path d="M446.669 285.249H357.138L357.215 275.086H303.283L287.589 230.318L270.789 260.447L318.221 299.851L295.543 329.772L239.516 294.807C229.37 288.366 223.259 277.391 223.259 265.604C223.259 259.71 224.791 253.892 227.74 248.735L253.891 202.682C264.872 183.358 285.746 171.382 308.405 171.382H392.388C406.356 171.382 419.451 177.993 427.502 189.1L468.222 244.296C480.89 261.391 468.319 285.249 446.669 285.249Z" fill="white" stroke="#FDEF25" stroke-width="5.90303" stroke-miterlimit="10"/>
<path d="M313.934 319.458C307.299 328.148 299.132 333.134 295.659 330.622C292.187 328.11 294.748 319.043 301.363 310.353C307.998 301.664 315.389 297.055 318.862 299.567C322.334 302.08 320.549 310.788 313.934 319.458Z" fill="#FDEF25"/>
<path d="M315.642 171.457L342.511 207.707L367.304 171.457H315.642Z" stroke="#FDEF25" stroke-width="5.90303" stroke-miterlimit="10"/>
<path d="M342.801 220.911C344.355 220.911 345.615 219.684 345.615 218.172C345.615 216.659 344.355 215.433 342.801 215.433C341.248 215.433 339.988 216.659 339.988 218.172C339.988 219.684 341.248 220.911 342.801 220.911Z" stroke="#FDEF25" stroke-width="5.90303" stroke-miterlimit="10"/>
<path d="M342.801 238.289C344.355 238.289 345.615 237.063 345.615 235.55C345.615 234.037 344.355 232.811 342.801 232.811C341.248 232.811 339.988 234.037 339.988 235.55C339.988 237.063 341.248 238.289 342.801 238.289Z" stroke="#FDEF25" stroke-width="5.90303" stroke-miterlimit="10"/>
<path d="M399.003 228.013L411.827 247.375H357.895V285.91" stroke="#FDEF25" stroke-width="5.90303" stroke-miterlimit="10"/>
<path d="M411.827 247.375H425.969" stroke="#FDEF25" stroke-width="5.90303" stroke-miterlimit="10"/>
<path d="M357.895 285.91C362.223 285.91 365.732 277.14 365.732 266.322C365.732 255.503 362.223 246.733 357.895 246.733C353.566 246.733 350.057 255.503 350.057 266.322C350.057 277.14 353.566 285.91 357.895 285.91Z" fill="#FDEF25"/>
<path d="M365.655 247.432C369.981 247.432 373.492 255.894 373.492 266.322C373.492 276.749 369.981 285.211 365.655 285.211" stroke="#FDEF25" stroke-width="5.90303" stroke-miterlimit="10"/>
<path d="M289.626 326.107C286.153 323.595 288.714 314.528 295.33 305.839C301.964 297.149 308.968 292.54 312.44 295.053" stroke="#FDEF25" stroke-width="5.90303" stroke-miterlimit="10"/>
<path d="M315.835 155.798C315.971 137.173 328.678 132.072 349.553 133.697C372.057 135.454 362.842 165.602 375.335 166.603C380.573 167.018 386.548 161.238 394.502 156.478C401.06 152.171 408.955 149.659 417.472 149.659C440.189 149.659 458.619 167.604 458.619 189.724C458.619 199.905 453.75 209.747 447.329 216.812C447.329 216.812 423.059 183.622 413.65 180.506C395.143 174.385 389.264 190.215 376.422 192.671C374.734 192.992 372.93 193.086 370.951 192.86C352.676 190.819 356.168 161.484 356.168 161.484C351.434 159.595 350.406 154.816 350.232 151.926C350.329 150.528 350.27 149.602 350.27 149.602C350.27 149.602 350.154 150.547 350.232 151.926C349.844 157.366 346.429 170.381 327.398 165.715V172.043C327.398 210.37 328.038 217.813 320.065 227.447C318.881 228.882 310.966 240.462 325.147 246.714C343.422 254.761 330.521 275.936 330.521 275.936H291.857C291.857 275.936 268.907 271.97 266.909 251.682C264.057 222.686 301.402 214.923 306.271 214.035C296.804 212.618 287.55 203.532 287.55 192.519C287.55 182.754 295.252 174.499 303.167 171.779C303.187 171.779 303.187 171.779 303.206 171.76C303.439 171.684 303.672 171.609 303.904 171.533C310.093 169.455 314.652 164.884 315.661 159.349L315.835 155.798Z" fill="#292426"/>
<path d="M350.329 156.006C350.309 156.006 350.309 156.006 350.329 156.006C350.057 156.006 349.844 155.779 349.844 155.533L349.999 145.881C349.999 145.616 350.212 145.409 350.484 145.409C350.755 145.409 350.969 145.635 350.969 145.881L350.814 155.533C350.794 155.798 350.581 156.006 350.329 156.006Z" fill="#A0505A"/>
<path d="M328.251 166.999C328.174 166.999 328.096 166.981 328.018 166.943C323.324 164.544 322.334 162.088 322.276 161.994C322.179 161.748 322.315 161.484 322.567 161.389C322.819 161.295 323.091 161.427 323.188 161.654C323.207 161.691 324.158 163.902 328.465 166.112C328.697 166.225 328.794 166.527 328.678 166.754C328.6 166.905 328.426 166.999 328.251 166.999Z" fill="#A0505A"/>
<path d="M393.416 150.584C396.63 150.584 399.236 148.047 399.236 144.917C399.236 141.788 396.63 139.251 393.416 139.251C390.202 139.251 387.596 141.788 387.596 144.917C387.596 148.047 390.202 150.584 393.416 150.584Z" fill="#292426"/>
<path d="M324.915 240.197C327.497 240.197 329.59 238.159 329.59 235.645C329.59 233.13 327.497 231.092 324.915 231.092C322.332 231.092 320.239 233.13 320.239 235.645C320.239 238.159 322.332 240.197 324.915 240.197Z" fill="#292426"/>
<path d="M354.363 304.157L354.344 307.595C354.344 307.897 354.266 308.2 354.15 308.464L345.653 326.9C344.392 329.564 341.656 331.264 338.649 331.264H320.471C315.932 331.264 311.528 329.772 307.958 327.052L307.318 326.56L296.493 318.268C297.696 315.737 299.345 313.035 301.382 310.372C305.262 305.272 309.704 301.456 313.39 299.661H339.483C341.559 304.176 334.808 307.803 334.808 307.803H346.603L350.871 303.288C351.977 302.117 353.975 302.627 354.363 304.157Z" fill="#A0505A"/>
<path d="M347.652 321.29C346.391 323.954 343.655 325.654 340.648 325.654H325.341" stroke="#73325A" stroke-width="4.91919" stroke-miterlimit="10" stroke-linecap="round"/>
<path d="M350.329 315.454C349.068 318.117 346.332 319.817 343.325 319.817H328.019" stroke="#73325A" stroke-width="4.91919" stroke-miterlimit="10" stroke-linecap="round"/>
<path d="M353.219 308.956C351.958 311.619 349.223 313.319 346.216 313.319H330.909" stroke="#73325A" stroke-width="4.91919" stroke-miterlimit="10" stroke-linecap="round"/>
<path d="M313.74 319.08C312.014 321.819 309.472 324.672 307.319 326.561L307.299 326.542L296.474 318.249C297.677 315.718 299.326 313.017 301.363 310.353C305.243 305.253 309.686 301.437 313.372 299.643H318.978C319.483 303.931 318.745 311.147 313.74 319.08Z" fill="#73325A"/>
<path d="M332.345 260.806C332.345 260.806 341.773 236.306 345.421 236.797C349.048 237.269 337.292 258.992 337.292 258.992L332.345 260.806Z" fill="#7FAB96"/>
<path d="M365.732 266.321C365.732 276.805 362.434 285.343 358.302 285.872C358.166 285.891 358.03 285.891 357.894 285.891H319.482C318.318 285.891 317.387 284.984 317.387 283.851V271.912C317.387 268.531 319.521 265.509 322.761 264.319L338.844 258.387C340.299 257.859 341.851 257.575 343.403 257.575H364.898C365.422 260.22 365.732 263.185 365.732 266.321Z" fill="#A0505A"/>
<path d="M334.267 266.964L322.122 271.441C319.678 272.347 318.068 274.633 318.068 277.164" stroke="#73325A" stroke-width="4.91919" stroke-miterlimit="10" stroke-linecap="round"/>
<path d="M334.267 274.104L322.122 278.581C319.678 279.488 318.068 281.773 318.068 284.305" stroke="#73325A" stroke-width="4.91919" stroke-miterlimit="10" stroke-linecap="round"/>
<path d="M333.606 280.772L321.461 285.249" stroke="#73325A" stroke-width="4.91919" stroke-miterlimit="10" stroke-linecap="round"/>
<path d="M365.732 266.322C365.732 276.805 362.434 285.343 358.302 285.872C358.166 285.891 358.03 285.891 357.895 285.891C353.568 285.891 350.057 277.126 350.057 266.303C350.057 263.413 350.503 260.126 350.969 257.557H364.801C365.286 260.145 365.732 263.431 365.732 266.322Z" fill="#73325A"/>
<path d="M362.512 165.696C362.512 166.792 362.124 167.831 361.484 168.643C360.824 169.474 359.912 170.079 358.806 170.362L356.129 171.042V173.951C356.129 180.978 350.29 186.664 343.073 186.664H340.493C333.295 186.664 327.475 180.997 327.437 174.008V165.696C346.468 170.381 349.882 157.347 350.27 151.907C350.426 154.665 351.376 159.123 355.567 161.182L356.304 160.993C359.447 160.237 362.512 162.542 362.512 165.696Z" fill="#A0505A"/>
<path d="M346.332 168.038C346.332 168.038 350.29 167.661 352.579 169.568" stroke="#73325A" stroke-width="4.91919" stroke-miterlimit="10" stroke-linecap="round"/>
<path d="M330.967 169.115C330.967 169.115 333.877 167.585 337.136 168.983C339.076 169.814 340.357 174.272 340.396 180.166" stroke="#73325A" stroke-width="4.91919" stroke-miterlimit="10" stroke-linecap="round"/>
<path d="M334.692 174.877C335.11 174.877 335.449 174.242 335.449 173.46C335.449 172.677 335.11 172.043 334.692 172.043C334.274 172.043 333.936 172.677 333.936 173.46C333.936 174.242 334.274 174.877 334.692 174.877Z" fill="#73325A"/>
<path d="M348.776 174.877C349.194 174.877 349.533 174.242 349.533 173.46C349.533 172.677 349.194 172.043 348.776 172.043C348.358 172.043 348.02 172.677 348.02 173.46C348.02 174.242 348.358 174.877 348.776 174.877Z" fill="#73325A"/>
<path d="M356.866 167.528C356.866 165.885 358.05 164.468 359.699 164.128" stroke="#73325A" stroke-width="4.91919" stroke-miterlimit="10" stroke-linecap="round"/>
<path d="M201.492 457.769C203.8 463.058 203.121 473.938 191.501 473.787C177.087 473.598 177.455 435.781 177.455 435.781C177.455 435.781 192.18 436.442 201.492 457.769Z" fill="#7FAB96"/>
<path d="M67.2437 444.98C63.6354 452.423 68.4853 458.411 72.5593 456.352C79.6791 452.744 82.7443 443.469 82.7443 443.469C82.7443 443.469 70.4835 438.331 67.2437 444.98Z" fill="#7FAB96"/>
<path d="M201.298 457.769C193.576 442.713 184.866 435.554 170.917 435.554C147.424 435.554 132.35 460.035 129.479 491.695C129.13 487.765 124.959 483.742 124.648 479.662C120.458 425.448 150.974 404.065 173.866 404.065C192.606 404.046 197.282 430.265 201.298 457.769Z" fill="white" stroke="#7FAB96" stroke-width="5.90303" stroke-miterlimit="10"/>
<path d="M124.668 492.45C120.477 438.237 152.41 416.854 173.498 416.854C185.196 416.854 192.529 423.578 198.174 438.879" stroke="#7FAB96" stroke-width="5.90303" stroke-miterlimit="10"/>
<path d="M36.7664 381.19C30.5002 387.234 19.1706 412.018 33.1968 416.929C47.223 421.859 63.6548 373.332 63.6548 373.332C63.6548 373.332 51.7626 366.701 36.7664 381.19Z" fill="#FDEF25" stroke="#FDEF25" stroke-width="5.90303" stroke-miterlimit="10"/>
<path d="M152.41 493.791L147.405 520.218C144.883 533.478 133.01 543.112 119.158 543.112C105.307 543.112 93.4338 533.478 90.9118 520.218L85.9066 493.791C85.9066 492.469 86.217 491.203 86.7602 490.07C90.776 493.999 103.832 496.87 119.294 496.87C134.542 496.87 147.424 494.075 151.653 490.259C152.138 491.336 152.41 492.545 152.41 493.791Z" fill="#7FAB96"/>
<path d="M149.131 487.52C149.131 491.26 135.765 494.282 119.275 494.282C102.785 494.282 89.418 491.26 89.418 487.52C89.418 487.218 89.4956 486.934 89.6702 486.651C91.5714 483.326 104.104 480.776 119.275 480.776C134.911 480.776 147.734 483.496 149.015 486.953C149.092 487.142 149.131 487.331 149.131 487.52Z" fill="#292426"/>
<path d="M129.983 448.097C129.983 463.738 127.772 478.509 123.834 491.506H112.504C112.465 425.826 87.8661 372.614 57.5438 372.614C49.6674 372.614 42.179 376.203 35.4084 382.663C55.3517 359.939 63.6355 353.705 75.0233 353.705C102.222 353.705 129.983 395.962 129.983 448.097Z" fill="white" stroke="#FDEF25" stroke-width="5.90303" stroke-miterlimit="10"/>
<path d="M48.0961 368.817C54.5757 364.227 58.7467 362.092 66.1769 362.092C96.5185 362.092 127.229 411.394 119.139 491.487" stroke="#FDEF25" stroke-width="5.90303" stroke-miterlimit="10"/>
<path d="M119.217 491.487C119.217 491.487 120.885 429.812 86.3723 429.604C77.2349 429.547 68.6794 443.658 68.6794 443.658C68.6794 443.658 109.09 433.382 111.088 491.487H119.217Z" fill="white" stroke="#7FAB96" stroke-width="5.90303" stroke-miterlimit="10"/>
<path d="M114.987 491.676C115.472 474.297 110.972 432.362 76.0902 434.61" stroke="#7FAB96" stroke-width="5.90303" stroke-miterlimit="10"/>
<path d="M68.5243 385.157C70.2923 385.157 71.7254 383.761 71.7254 382.04C71.7254 380.318 70.2923 378.923 68.5243 378.923C66.7564 378.923 65.3232 380.318 65.3232 382.04C65.3232 383.761 66.7564 385.157 68.5243 385.157Z" fill="white" stroke="#FDEF25" stroke-width="5.90303" stroke-miterlimit="10"/>
<path d="M143.971 474.297C146.553 474.297 148.646 472.259 148.646 469.745C148.646 467.23 146.553 465.192 143.971 465.192C141.389 465.192 139.295 467.23 139.295 469.745C139.295 472.259 141.389 474.297 143.971 474.297Z" fill="white" stroke="#FDEF25" stroke-width="5.90303" stroke-miterlimit="10"/>
<path d="M136.211 386.479C141.086 386.479 145.038 382.631 145.038 377.884C145.038 373.137 141.086 369.289 136.211 369.289C131.336 369.289 127.384 373.137 127.384 377.884C127.384 382.631 131.336 386.479 136.211 386.479Z" fill="#D0F0E4"/>
<path d="M159.394 573.052L151.576 535.141C150.916 531.911 146.493 531.155 144.747 533.989C133.96 551.461 104.666 551.575 93.7053 534.159L93.5113 533.837C91.7459 531.042 87.3615 531.797 86.7019 535.009L78.8643 573.033" stroke="#DDDFD7" stroke-width="5.90303" stroke-miterlimit="10"/>
<path d="M119.139 547.174V573.222" stroke="#DDDFD7" stroke-width="5.90303" stroke-miterlimit="10"/>
<path d="M61.1135 573.052H321.151" stroke="#DDDFD7" stroke-width="5.90303" stroke-miterlimit="10"/>
</svg>
