<svg width="598" height="438" viewBox="0 0 598 438" fill="none" xmlns="http://www.w3.org/2000/svg">
<rect width="777" height="558" transform="translate(-79 -50)" fill="white"/>
<path d="M549.267 365.311V417.907H472.142L487.169 337.14C486.687 340.329 496.306 346.308 509.469 352.302C514.193 354.454 519.461 356.591 525.087 358.615C534.162 361.9 542.522 364.132 549.267 365.311C549.267 365.311 549.251 365.311 549.267 365.311Z" fill="#292426"/>
<path d="M549.267 349.496V363.574C542.522 362.394 534.177 360.178 525.071 356.894C503.611 349.162 487.092 339.612 488.024 335.323C488.04 335.259 488.055 335.195 488.071 335.148C489.516 330.955 508.521 333.856 530.277 341.684C537.27 344.203 543.579 346.802 548.878 349.305C549.003 349.369 549.127 349.433 549.267 349.496Z" fill="#FDEF25"/>
<path d="M538.684 227.629C531.163 227.629 525.071 233.878 525.071 241.579V279.81C525.071 287.51 518.979 293.76 511.473 293.76H456.959C464.48 293.76 470.557 287.51 470.557 279.81V241.579C470.557 233.862 476.648 227.629 484.154 227.629H538.684V227.629Z" fill="white" stroke="#FDEF25" stroke-width="5" stroke-miterlimit="10"/>
<path d="M514.846 247.414H480.129V280.464H514.846V247.414Z" fill="white" stroke="#FDEF25" stroke-width="5" stroke-miterlimit="10"/>
<path d="M514.83 252.133H480.129" stroke="#FDEF25" stroke-width="5" stroke-miterlimit="10"/>
<path d="M514.83 256.852H480.129" stroke="#FDEF25" stroke-width="5" stroke-miterlimit="10"/>
<path d="M514.83 261.588H480.129" stroke="#FDEF25" stroke-width="5" stroke-miterlimit="10"/>
<path d="M514.83 266.306H480.129" stroke="#FDEF25" stroke-width="5" stroke-miterlimit="10"/>
<path d="M514.83 271.041H480.129" stroke="#FDEF25" stroke-width="5" stroke-miterlimit="10"/>
<path d="M514.83 275.76H480.129" stroke="#FDEF25" stroke-width="5" stroke-miterlimit="10"/>
<path d="M525.071 241.579C525.071 233.91 531.1 227.692 538.544 227.629C546.003 227.692 552.017 233.91 552.017 241.579H525.071Z" fill="#7FAB96" stroke="#FDEF25" stroke-width="5" stroke-miterlimit="10"/>
<path d="M511.536 294.11C511.52 294.11 511.489 294.11 511.473 294.11H457.161C457.13 294.11 457.099 294.11 457.068 294.11C451.489 294.03 446.718 290.491 444.698 285.485H499.119C501.155 290.491 505.926 294.03 511.536 294.11Z" fill="#FDEF25"/>
<path d="M482.398 243.619H476.12V238.454H479.072V241.323C479.072 241.387 479.103 241.435 479.134 241.451L479.15 241.467L482.398 243.619Z" fill="#DDDFD7"/>
<path d="M484.837 240.24V240.925C484.837 241.053 484.821 241.18 484.821 241.308C484.821 241.34 484.806 241.387 484.806 241.419C484.79 241.483 484.79 241.547 484.775 241.611C484.604 242.487 484.091 243.205 483.454 243.476C483.407 243.492 483.361 243.508 483.314 243.524C483.236 243.555 483.143 243.571 483.065 243.587C483.034 243.587 483.003 243.603 482.972 243.603L479.414 241.228C479.445 240.67 479.787 240.224 480.191 240.224H484.837V240.24Z" fill="#DDDFD7"/>
<path d="M519.508 238.454V243.619H513.229L516.462 241.467L516.477 241.451C516.493 241.435 516.493 241.435 516.508 241.435C516.508 241.419 516.524 241.419 516.524 241.403C516.524 241.403 516.524 241.387 516.539 241.387C516.539 241.371 516.539 241.371 516.555 241.371C516.555 241.371 516.555 241.371 516.555 241.355C516.555 241.339 516.555 241.339 516.555 241.323V238.454H519.508V238.454Z" fill="#DDDFD7"/>
<path d="M516.244 241.243L512.686 243.619C512.592 243.603 512.499 243.587 512.406 243.571C512.375 243.555 512.344 243.555 512.313 243.539C512.266 243.523 512.235 243.507 512.188 243.491C512.157 243.475 512.111 243.459 512.08 243.444C511.598 243.173 511.194 242.646 510.992 241.993C510.961 241.897 510.93 241.801 510.914 241.706C510.899 241.674 510.898 241.626 510.883 241.578C510.852 241.371 510.821 241.164 510.821 240.94V240.255H515.483C515.871 240.239 516.213 240.685 516.244 241.243Z" fill="#DDDFD7"/>
<path d="M516.244 235.839V240.335C516.213 240.303 516.182 240.255 516.151 240.223C516.088 240.159 516.026 240.111 515.964 240.064C515.809 239.968 515.638 239.904 515.467 239.904H480.175C479.989 239.904 479.818 239.968 479.678 240.064C479.616 240.111 479.554 240.159 479.492 240.223C479.461 240.255 479.43 240.287 479.398 240.335V235.839C479.398 235.234 479.74 234.755 480.175 234.755H515.467C515.886 234.755 516.244 235.25 516.244 235.839Z" fill="#DDDFD7"/>
<path d="M549.267 301.077V363.573H549.251C542.507 362.393 534.162 360.177 525.055 356.893C519.43 354.868 514.162 352.716 509.438 350.579L511.971 336.071L516.275 311.44C502.771 307.103 500.58 293.775 500.58 293.775H511.442C518.964 293.775 525.04 287.525 525.04 279.825V275.233H518.062C513.167 275.233 509.189 270.291 509.189 265.269V263.643H524.698C527.573 263.643 530.277 265.03 532.002 267.39L543.346 282.934C547.2 288.163 549.267 294.524 549.267 301.077Z" fill="#A0505A"/>
<path d="M549.267 349.495V363.573H549.251C542.507 362.393 534.162 360.177 525.055 356.893C519.43 354.868 514.161 352.716 509.437 350.579L511.97 336.072C517.565 337.474 523.781 339.372 530.246 341.699C537.239 344.218 543.548 346.817 548.832 349.32C549.003 349.368 549.127 349.432 549.267 349.495Z" fill="#73325A"/>
<path d="M525.755 275.234H518.265C513.37 275.234 509.392 270.291 509.392 265.269V263.643H525.755V275.234Z" fill="#A0505A"/>
<path d="M521.046 290.762C521.046 290.762 531.847 294.923 532.826 309.224" stroke="#73325A" stroke-width="5" stroke-miterlimit="10"/>
<path d="M516.307 311.775H523.657" stroke="#73325A" stroke-width="5" stroke-miterlimit="10"/>
<path d="M509.453 133.024L514.379 129.676C520.797 125.323 529.391 129.628 529.997 137.488L531.069 151.406C531.66 159.042 539.849 163.395 546.267 159.489L549.375 157.592" stroke="#FDEF25" stroke-width="6" stroke-miterlimit="10"/>
<path d="M437.86 81.3211L501.155 119.01L533.027 192.427L496.462 167.158L456.726 119.393L437.86 81.3211Z" fill="#292426"/>
<path d="M438.031 78.7862L502.662 117.288L535.219 192.251" stroke="#FDEF25" stroke-width="6" stroke-miterlimit="10"/>
<path d="M495.801 168.779C498.759 166.217 492.112 153.151 480.956 139.594C469.8 126.037 458.359 117.124 455.401 119.686C452.444 122.247 459.09 135.314 470.246 148.871C481.402 162.427 492.844 171.341 495.801 168.779Z" fill="white"/>
<path d="M494.004 169.562C496.903 167.052 490.384 154.239 479.443 140.945C468.503 127.651 457.284 118.909 454.386 121.42C451.487 123.93 458.006 136.743 468.947 150.037C479.887 163.331 491.105 172.073 494.004 169.562Z" fill="white" stroke="#FDEF25" stroke-width="5" stroke-miterlimit="10"/>
<path d="M501.714 163.618L495.685 168.831C496.803 167.859 496.555 165.404 495.203 161.976C492.981 156.332 487.775 148.09 480.844 139.64C473.898 131.206 466.842 124.558 461.792 121.369C458.731 119.424 456.4 118.755 455.281 119.727L461.31 114.514C464.263 111.947 476.229 120.333 487.386 133.901C498.544 147.468 504.682 161.067 501.714 163.618Z" fill="#FDEF25"/>
<path d="M566.128 143.673C567.837 142.828 569.5 142.079 571.1 141.457C572.048 142.478 572.872 143.673 573.509 145.013C574.146 146.352 574.55 147.755 574.737 149.142C573.26 150.034 571.66 150.927 569.966 151.772C561.466 155.997 553.727 157.607 552.67 155.375C551.598 153.127 557.627 147.898 566.128 143.673Z" fill="#FDEF25"/>
<path d="M551.116 158.405C552.154 158.405 552.996 157.541 552.996 156.476C552.996 155.411 552.154 154.547 551.116 154.547C550.077 154.547 549.235 155.411 549.235 156.476C549.235 157.541 550.077 158.405 551.116 158.405Z" stroke="#292426" stroke-width="6" stroke-miterlimit="10"/>
<path d="M440.144 350.405V417.907H365.195L374.798 344.602C374.798 347.567 389.421 351.266 407.463 352.86C425.505 354.47 440.144 353.37 440.144 350.405Z" fill="#7FAB96"/>
<path d="M439.802 348.667C439.802 351.633 425.303 352.733 407.432 351.122C389.561 349.512 375.062 345.813 375.062 342.864C375.062 339.899 389.561 338.798 407.432 340.409C425.319 342.003 439.802 345.702 439.802 348.667Z" fill="#7FAB96"/>
<path d="M450.199 199.027L454.736 202.041C459.274 205.644 452.996 221.746 440.719 237.976C428.443 254.222 414.814 264.457 410.276 260.854L408.039 258.686" stroke="#7FAB96" stroke-width="6" stroke-miterlimit="10"/>
<path d="M387.184 274.66L438.699 226.29L456.71 170.027L401.729 221.284L387.184 274.66Z" fill="#7FAB96"/>
<path d="M384.558 280.527L440.627 227.884L458.917 170.729" stroke="#DDDFD7" stroke-width="6" stroke-miterlimit="10" stroke-linecap="round"/>
<path d="M414.209 226.13L365.289 274.134C362.911 276.462 359.026 274.262 359.694 270.945L361.062 264.138C361.683 261.061 358.28 258.813 355.809 260.662L339.648 272.731" stroke="#DDDFD7" stroke-width="6" stroke-miterlimit="10"/>
<path d="M326.485 289.918C325.039 291.161 323.594 292.309 322.195 293.313C321.03 292.564 319.958 291.624 319.01 290.476C318.077 289.328 317.347 288.084 316.834 286.777C318.046 285.533 319.383 284.274 320.828 283.014C328.054 276.781 335.172 273.257 336.741 275.171C338.295 277.084 333.711 283.684 326.485 289.918Z" fill="#FDEF25"/>
<path d="M338.14 275.824C339.178 275.824 340.02 274.96 340.02 273.895C340.02 272.829 339.178 271.966 338.14 271.966C337.101 271.966 336.259 272.829 336.259 273.895C336.259 274.96 337.101 275.824 338.14 275.824Z" stroke="#DDDFD7" stroke-width="6" stroke-miterlimit="10"/>
<path d="M416.524 299.595V351.728C413.649 351.6 410.587 351.409 407.433 351.122C395.793 350.085 385.599 348.14 379.896 346.1L380.751 340.329L383.61 320.958H379.911C374.643 320.958 370.385 316.59 370.385 311.185V291.99C370.385 288.196 371.722 284.545 374.162 281.691L386.329 267.422C387.122 266.498 388.614 267.072 388.614 268.299V287.701C388.614 290.029 387.806 292.277 386.329 294.047L385.242 295.354H398.451C400.362 295.354 401.481 293.17 400.409 291.544C398.777 289.104 396.632 285.629 394.597 281.611C390.541 273.656 397.58 269.208 397.58 269.208L413.695 290.651C415.529 293.25 416.524 296.39 416.524 299.595Z" fill="#FDEF25"/>
<path d="M388.613 267.262V287.701C388.613 290.029 387.805 292.277 386.329 294.047L385.241 295.354" stroke="white" stroke-width="5" stroke-miterlimit="10" stroke-linecap="round"/>
<path d="M385.241 295.338L376.508 305.398" stroke="white" stroke-width="5" stroke-miterlimit="10" stroke-linecap="round"/>
<path d="M388.614 278.821C388.614 281.149 387.805 283.397 386.329 285.167L385.241 286.474L376.523 296.518" stroke="white" stroke-width="5" stroke-miterlimit="10" stroke-linecap="round"/>
<path d="M388.612 269.957C388.612 272.285 387.804 274.533 386.328 276.302L385.24 277.61L376.522 287.654" stroke="white" stroke-width="5" stroke-miterlimit="10" stroke-linecap="round"/>
<path d="M383.609 321.485H390.307" stroke="white" stroke-width="5" stroke-miterlimit="10" stroke-linecap="round"/>
<path d="M416.524 341.429V351.728C413.649 351.6 410.587 351.409 407.433 351.122C395.793 350.086 385.599 348.141 379.896 346.1L380.751 340.329C386.594 339.452 396.368 339.404 407.448 340.393C410.587 340.696 413.633 341.03 416.524 341.429Z" fill="#DDDFD7"/>
<path d="M341.31 417.907H254.644V329.759C254.644 333.521 268.894 336.566 286.485 336.566C304.077 336.566 318.327 333.521 318.327 329.759V329.743L341.31 417.907Z" fill="#7FAB96"/>
<path d="M318.094 328.005C318.094 331.784 303.999 334.829 286.594 334.829C269.189 334.829 255.094 331.784 255.094 328.021V328.005C255.141 324.259 269.22 321.213 286.594 321.213C303.968 321.213 318.063 324.259 318.094 328.005Z" fill="#7FAB96"/>
<path d="M318.094 328.069C317.985 331.8 303.921 334.829 286.594 334.829C283.253 334.829 280.052 334.717 277.037 334.51V301.715H260.596C258.498 301.715 256.804 299.978 256.804 297.825V295.195C256.804 294.015 257.317 292.963 258.125 292.245C257.317 291.528 256.804 290.476 256.804 289.296V286.665C256.804 285.629 257.208 284.672 257.861 283.987C257.208 283.285 256.804 282.345 256.804 281.309V278.678C256.804 277.61 257.223 276.637 257.907 275.92C257.223 275.218 256.804 274.246 256.804 273.178V268.411C256.804 266.258 258.498 264.521 260.596 264.521H281.59C282.289 264.106 283.424 262.639 281.497 261.779L276.99 260.694C273.416 258.861 271.147 255.816 271.147 251.703H286.998C289.655 251.703 292.033 253.424 292.934 255.991L317.705 326.937L318.094 328.069Z" fill="#E57281"/>
<path d="M318.171 328.101C318.125 328.053 318.094 328.021 318.094 328.021C318.094 331.784 303.999 334.829 286.594 334.829C283.253 334.829 280.052 334.717 277.037 334.51V321.548C280.052 321.341 283.269 321.229 286.594 321.229C302.29 321.229 315.312 323.717 317.705 326.953C317.767 327.033 317.938 327.463 318.171 328.101Z" fill="#292426"/>
<path d="M281.947 220.2V233.129C281.947 240.16 276.399 245.851 269.546 245.851C262.693 245.851 257.145 240.16 257.145 233.129V220.2C257.145 223.356 262.693 225.907 269.546 225.907C276.399 225.907 281.947 223.356 281.947 220.2Z" fill="white"/>
<path d="M269.546 225.907C276.395 225.907 281.947 223.352 281.947 220.2C281.947 217.047 276.395 214.492 269.546 214.492C262.697 214.492 257.145 217.047 257.145 220.2C257.145 223.352 262.697 225.907 269.546 225.907Z" fill="#FDEF25"/>
<path d="M281.947 198.103V233.114C281.947 237.833 279.445 241.946 275.731 244.146C275.731 244.146 275.731 244.146 275.716 244.146C273.898 245.214 271.784 245.836 269.546 245.836C267.309 245.836 265.211 245.23 263.392 244.162C263.377 244.162 263.377 244.146 263.361 244.146C259.647 241.946 257.145 237.833 257.145 233.114V198.103H281.947Z" stroke="#FDEF25" stroke-width="6" stroke-miterlimit="10"/>
<path d="M269.547 203.81C276.473 203.81 282.087 201.255 282.087 198.103C282.087 194.951 276.473 192.395 269.547 192.395C262.621 192.395 257.006 194.951 257.006 198.103C257.006 201.255 262.621 203.81 269.547 203.81Z" fill="white" stroke="#FDEF25" stroke-width="5" stroke-miterlimit="10"/>
<path d="M269.547 198.964C270.559 198.964 271.38 198.121 271.38 197.082C271.38 196.043 270.559 195.201 269.547 195.201C268.534 195.201 267.713 196.043 267.713 197.082C267.713 198.121 268.534 198.964 269.547 198.964Z" fill="#FDEF25"/>
<path d="M265.506 237.386C266.399 237.386 267.122 236.644 267.122 235.728C267.122 234.812 266.399 234.07 265.506 234.07C264.614 234.07 263.89 234.812 263.89 235.728C263.89 236.644 264.614 237.386 265.506 237.386Z" fill="white" stroke="#FDEF25" stroke-width="5" stroke-miterlimit="10"/>
<path d="M275.203 221.571C275.941 221.571 276.54 220.957 276.54 220.2C276.54 219.442 275.941 218.828 275.203 218.828C274.465 218.828 273.867 219.442 273.867 220.2C273.867 220.957 274.465 221.571 275.203 221.571Z" fill="white"/>
<path d="M262.274 231.853C263.012 231.853 263.61 231.24 263.61 230.483C263.61 229.725 263.012 229.112 262.274 229.112C261.536 229.112 260.938 229.725 260.938 230.483C260.938 231.24 261.536 231.853 262.274 231.853Z" fill="#FDEF25"/>
<path d="M281.466 310.643H257.627C257.192 310.643 257.068 310.054 257.441 309.846L265.77 306.61C267.076 306.1 267.946 304.808 267.946 303.373V252.42C267.946 249.04 266.237 245.867 263.393 244.161C265.211 245.229 267.309 245.835 269.547 245.835C271.8 245.835 273.898 245.214 275.716 244.145C272.857 245.835 271.147 249.024 271.147 252.404V303.357C271.147 304.792 272.017 306.084 273.323 306.594L281.652 309.83C282.025 310.053 281.901 310.643 281.466 310.643Z" fill="white" stroke="#FDEF25" stroke-width="5" stroke-miterlimit="10"/>
<path d="M260.72 178.955C261.887 178.955 262.833 177.985 262.833 176.787C262.833 175.59 261.887 174.619 260.72 174.619C259.553 174.619 258.607 175.59 258.607 176.787C258.607 177.985 259.553 178.955 260.72 178.955Z" fill="#FDEF25"/>
<path d="M275.203 182.447C276.216 182.447 277.037 181.605 277.037 180.566C277.037 179.527 276.216 178.684 275.203 178.684C274.191 178.684 273.37 179.527 273.37 180.566C273.37 181.605 274.191 182.447 275.203 182.447Z" fill="white" stroke="#FDEF25" stroke-width="5" stroke-miterlimit="10"/>
<path d="M266.221 189.781C266.959 189.781 267.558 189.167 267.558 188.409C267.558 187.652 266.959 187.038 266.221 187.038C265.483 187.038 264.885 187.652 264.885 188.409C264.885 189.167 265.483 189.781 266.221 189.781Z" fill="white" stroke="#FDEF25" stroke-width="5" stroke-miterlimit="10"/>
<path d="M265.522 173.088C266.131 173.088 266.625 172.582 266.625 171.956C266.625 171.331 266.131 170.825 265.522 170.825C264.912 170.825 264.418 171.331 264.418 171.956C264.418 172.582 264.912 173.088 265.522 173.088Z" fill="#FDEF25"/>
<path d="M285.522 269.639V301.732H260.596C258.498 301.732 256.804 299.994 256.804 297.842V295.211C256.804 294.032 257.317 292.979 258.125 292.262C257.317 291.545 256.804 290.492 256.804 289.312V286.682C256.804 285.646 257.208 284.689 257.861 284.003C257.208 283.302 256.804 282.361 256.804 281.325V278.694C256.804 277.626 257.223 276.654 257.907 275.936C257.223 275.235 256.804 274.262 256.804 273.194V269.655H285.522V269.639Z" fill="#E57281"/>
<path d="M257.239 289.089C257.239 291.528 259.166 293.505 261.544 293.505H281.715C284.092 293.505 286.019 291.528 286.019 289.089" stroke="#292426" stroke-width="5" stroke-miterlimit="10" stroke-linecap="round"/>
<path d="M257.239 281.133C257.239 283.572 259.166 285.549 261.544 285.549H281.715C284.092 285.549 286.019 283.572 286.019 281.133" stroke="#292426" stroke-width="5" stroke-miterlimit="10" stroke-linecap="round"/>
<path d="M257.239 273.178C257.239 275.618 259.166 277.595 261.544 277.595H281.715C284.092 277.595 286.019 275.618 286.019 273.178" stroke="#292426" stroke-width="5" stroke-miterlimit="10" stroke-linecap="round"/>
<path d="M261.342 301.461H281.714C284.092 301.461 286.019 299.484 286.019 297.045V267.216" stroke="#292426" stroke-width="5" stroke-miterlimit="10" stroke-linecap="round"/>
<path d="M266.967 267.088H264.9C264.216 267.088 263.657 267.662 263.657 268.363C263.657 269.065 264.216 269.639 264.9 269.639H276.462C277.705 269.639 278.731 268.602 278.731 267.311C278.731 265.78 279.943 264.537 281.435 264.537H283.315C284.807 264.537 286.019 265.78 286.019 267.311V272.477" stroke="#292426" stroke-width="5" stroke-miterlimit="10" stroke-linecap="round"/>
<path d="M408.07 102.78L356.338 157.209L296.695 89.7551L361.792 42.7555L408.07 102.78Z" fill="#7FAB96"/>
<path d="M354.317 159.824L291.738 89.4522L360.362 40.0931" stroke="#FDEF25" stroke-width="6" stroke-miterlimit="10"/>
<path d="M355.327 99.9744L359.228 99.3845C365.646 98.412 371.598 102.972 372.546 109.54L375.949 133.327C377.099 141.346 385.491 145.938 392.623 142.43L408.894 134.443" stroke="#FDEF25" stroke-width="6" stroke-miterlimit="10"/>
<path d="M429.64 139.003C431.303 139.927 432.872 140.884 434.302 141.84C434.053 143.227 433.587 144.598 432.903 145.922C432.22 147.229 431.349 148.393 430.355 149.365C428.785 148.664 427.138 147.851 425.475 146.926C417.161 142.319 411.365 136.818 412.515 134.634C413.665 132.45 421.326 134.395 429.64 139.003Z" fill="#FDEF25"/>
<path d="M410.743 135.926C411.782 135.926 412.624 135.062 412.624 133.996C412.624 132.931 411.782 132.067 410.743 132.067C409.705 132.067 408.863 132.931 408.863 133.996C408.863 135.062 409.705 135.926 410.743 135.926Z" stroke="#7FAB96" stroke-width="6" stroke-miterlimit="10"/>
<path d="M225.848 358.185V417.907H158.575V382.721C160.036 386.643 177.161 384.14 195.436 376.966C211.877 370.509 224.573 362.569 225.848 358.185Z" fill="#DDDFD7"/>
<path d="M225.848 356.447C224.558 360.832 211.877 368.771 195.421 375.228C177.161 382.403 160.036 384.906 158.56 380.984C157.084 377.062 171.847 368.181 190.121 361.007C208.381 353.833 224.387 351.202 225.848 355.124C226.003 355.523 226.003 355.969 225.848 356.447Z" fill="#7FAB96"/>
<path d="M211.598 316.845V367.448L207.884 369.377C204.123 371.258 199.912 373.124 195.436 374.877C187.216 378.114 179.213 380.394 172.779 381.573L176.478 366.667L182.507 342.338C179.648 342.338 176.944 341.031 175.126 338.767L150.37 309.878C154.613 305.908 160.953 311.313 160.953 311.313L158.576 298.862C158.016 295.912 158.855 292.851 160.829 290.635L168.35 282.169C169.842 280.495 172.53 281.149 173.152 283.317L178.498 302.242C178.498 302.242 191.769 312.636 194.255 312.636C197.068 312.636 198.047 310.293 192.794 302.592C188.847 296.805 192.794 292.58 192.794 292.58L205.646 303.676C209.422 306.961 211.598 311.775 211.598 316.845Z" fill="white" stroke="#FDEF25" stroke-width="5" stroke-miterlimit="10"/>
<path d="M183.269 313.896L173.867 306.179L168.723 287.973C168.133 285.884 165.631 285.262 164.201 286.873" stroke="#FDEF25" stroke-width="5" stroke-miterlimit="10"/>
<path d="M177.114 317.291L168.94 310.468L164.076 293.234C163.517 291.257 161.062 290.667 159.71 292.197" stroke="#FDEF25" stroke-width="5" stroke-miterlimit="10"/>
<path d="M169.889 319.029L160.938 311.329" stroke="#FDEF25" stroke-width="5" stroke-miterlimit="10"/>
<path d="M182.507 342.338H192.965" stroke="#FDEF25" stroke-width="5" stroke-miterlimit="10"/>
<path d="M211.598 354.407V367.783C206.967 370.302 201.45 372.852 195.436 375.228C187.2 378.464 179.197 380.744 172.748 381.924L176.478 367.001C180.611 364.961 185.242 362.92 190.137 361.007C198.047 357.914 205.537 355.65 211.598 354.407Z" fill="#FDEF25"/>
<path d="M201.062 185.954L205.786 196.588C206.237 200.526 203.502 204.081 199.663 204.56C195.825 205.022 193.09 208.593 193.541 212.531L194.225 218.43" stroke="#FDEF25" stroke-width="6" stroke-miterlimit="10"/>
<path d="M255.732 151.789L280.627 111.931L195.002 111.23L166.952 187.852L213.261 185.62L255.732 151.789Z" fill="#DDDFD7"/>
<path d="M281.652 108.934L192.127 107.898L162.399 188.314" stroke="#FDEF25" stroke-width="6" stroke-miterlimit="10"/>
<path d="M254.193 145.81C259.166 154.563 250.712 169.135 235.297 178.35C219.881 187.565 203.362 187.931 198.389 179.179C197.705 177.983 197.285 176.692 197.083 175.305C195.84 166.552 203.968 154.595 217.286 146.639C230.603 138.684 244.745 137.313 251.551 142.733C252.624 143.594 253.51 144.614 254.193 145.81Z" fill="#7FAB96" stroke="white" stroke-width="6" stroke-miterlimit="10"/>
<path d="M250.246 138.859L254.194 145.81C253.51 144.614 252.624 143.594 251.552 142.733C244.745 137.313 230.604 138.684 217.286 146.639C203.968 154.595 195.856 166.552 197.084 175.304C197.271 176.691 197.706 177.983 198.389 179.178L194.442 172.227C189.469 163.475 197.923 148.903 213.339 139.688C228.739 130.489 245.274 130.106 250.246 138.859Z" stroke="white" stroke-width="5" stroke-miterlimit="10" stroke-linecap="round"/>
<path d="M192.888 239.921C192.282 241.754 191.63 243.508 190.946 245.118C189.563 245.102 188.164 244.863 186.797 244.385C185.414 243.907 184.171 243.237 183.052 242.392C183.456 240.686 183.953 238.885 184.559 237.051C187.574 227.868 191.863 221.076 194.163 221.858C196.463 222.655 195.888 230.738 192.888 239.921Z" fill="#FDEF25"/>
<path d="M194.473 221.889C195.512 221.889 196.354 221.026 196.354 219.96C196.354 218.895 195.512 218.031 194.473 218.031C193.435 218.031 192.593 218.895 192.593 219.96C192.593 221.026 193.435 221.889 194.473 221.889Z" stroke="#7FAB96" stroke-width="6" stroke-miterlimit="10"/>
<path d="M114.24 352.653V417.907H44.3719V321.867C45.7394 326.57 60.3625 336.375 78.5133 344.57C97.8295 353.322 113.836 356.926 114.24 352.653Z" fill="#7FAB96"/>
<path d="M114.24 350.915C113.82 355.188 97.8295 351.569 78.5132 342.832C60.3625 334.621 45.7394 324.817 44.3719 320.129C44.2786 319.827 44.2475 319.54 44.2786 319.284C44.6827 315.012 60.6889 318.631 80.0051 327.367C99.3213 336.104 114.659 346.642 114.24 350.915Z" fill="#292426"/>
<path d="M72.8866 257.314C74.5494 253.806 78.0149 251.574 81.8222 251.574H92.8089L93.3839 296.884L101.045 338.527L103.485 351.76C97.0203 350.293 88.1936 347.216 78.5277 342.848C73.0576 340.377 66.2044 336.71 61.6357 334.127V278.996C61.6357 278.247 61.7755 277.498 62.0242 276.796L72.8866 257.314Z" fill="#A0505A"/>
<path d="M103.47 351.76C97.0058 350.293 88.1791 347.216 78.5133 342.848C73.0432 340.377 66.19 336.71 61.6213 334.127V320.273C66.6096 321.915 73.9911 324.657 80.0051 327.367C88.117 331.034 95.2032 334.813 101.046 338.527L103.47 351.76Z" fill="#73325A"/>
<path d="M144.387 200.638L85.9413 310.962C83.7812 315.043 77.8294 316.016 72.6546 313.13C67.4797 310.245 65.04 304.601 67.2 300.504L125.646 190.179L144.387 200.638Z" fill="white" stroke="#FDEF25" stroke-width="5" stroke-miterlimit="10"/>
<path d="M144.377 200.665C146.54 196.58 144.101 190.931 138.928 188.046C133.755 185.162 127.808 186.135 125.644 190.22C123.48 194.305 125.919 199.954 131.092 202.838C136.265 205.722 142.213 204.749 144.377 200.665Z" fill="#7FAB96" stroke="#FDEF25" stroke-width="5" stroke-miterlimit="10"/>
<path d="M106.205 242.871L133.82 219.737L133.385 227.964L142.227 230.228L122.087 242.982C127.495 242.026 134.006 241.244 139.368 241.675C145.755 242.185 143.61 249.854 141.217 256.406C146.811 255.848 165.568 244.194 172.639 246.394C176.959 247.733 175.405 256.773 174.162 261.763C175.964 261.859 185.086 261.747 185.086 261.747L180.269 266.259L182.911 270.771C172.654 271.233 172.53 269.575 173.82 262.114C174.037 253.999 165.273 261.795 146.609 266.371C137.363 268.634 138.56 262.465 140.844 256.039C139.927 253.09 133.074 249.885 111.054 255.784L106.205 242.871Z" fill="#DDDFD7"/>
<path d="M106.61 256.964C111.115 256.964 114.768 253.217 114.768 248.594C114.768 243.972 111.115 240.224 106.61 240.224C102.104 240.224 98.451 243.972 98.451 248.594C98.451 253.217 102.104 256.964 106.61 256.964Z" fill="white" stroke="#DDDFD7" stroke-width="5" stroke-miterlimit="10"/>
<path d="M103.797 251.574V252.1C103.797 257.457 99.5701 261.81 94.3332 261.81H84.4031V251.574H103.797Z" fill="#A0505A"/>
<path d="M115.887 271.232L113.261 277.546L110.199 284.927L108.537 288.929L106.004 295.035C105.941 295.195 105.848 295.37 105.77 295.514C105.77 295.53 105.755 295.529 105.755 295.545C104.947 296.98 103.377 297.873 101.652 297.873H81.5281C79.0883 297.873 77.4256 295.498 78.3269 293.313L79.7876 289.79L83.0044 282.042L85.7705 275.361L88.2103 269.494C88.9251 267.772 90.6501 266.64 92.577 266.64H112.701C115.126 266.672 116.788 269.048 115.887 271.232Z" fill="#A0505A"/>
<path d="M86.6098 275.394C87.449 274.437 88.6611 273.863 89.9665 273.863H109.189C111.21 273.863 112.67 275.649 112.468 277.546" stroke="#73325A" stroke-width="5" stroke-miterlimit="10" stroke-linecap="round"/>
<path d="M83.9993 282.074C84.8229 281.229 85.9573 280.735 87.185 280.735H106.408C108.615 280.735 110.138 282.839 109.578 284.912" stroke="#73325A" stroke-width="5" stroke-miterlimit="10" stroke-linecap="round"/>
<path d="M80.9843 289.806C81.8079 289.009 82.9113 288.547 84.0923 288.547H103.315C105.584 288.547 107.154 290.811 106.423 292.947" stroke="#73325A" stroke-width="5" stroke-miterlimit="10" stroke-linecap="round"/>
<path d="M150.495 85.8015C151.784 84.3826 153.074 83.0593 154.348 81.8795C155.592 82.4694 156.773 83.2825 157.845 84.3029C158.902 85.3232 159.787 86.4711 160.456 87.6987C159.399 89.0857 158.218 90.5047 156.928 91.9236C150.494 99.0182 143.859 103.402 142.072 101.713C140.3 100.023 144.061 92.8961 150.495 85.8015Z" fill="#FDEF25"/>
<path d="M105.335 141.984L103.284 143.292C95.8402 148.027 81.3414 137.839 70.9141 120.541C60.4712 103.243 58.047 85.4029 65.4751 80.6679L67.5885 79.3287L80.1604 117.273L105.335 141.984Z" fill="#7FAB96"/>
<path d="M126.159 162.439L105.335 141.984L80.145 117.257L67.5731 79.3285L56.3377 45.418L108.661 88.671L126.159 162.439Z" fill="#7FAB96" stroke="white" stroke-width="6" stroke-miterlimit="10"/>
<path d="M127.791 160.414L110.417 86.7738L57.4412 43.9672" stroke="#292426" stroke-width="6" stroke-miterlimit="10"/>
<path d="M98.5133 110.289C97.1769 104.614 100.58 98.8901 106.112 97.5191C111.365 96.2118 116.695 99.2887 118.342 104.55L122.709 119.01C125.118 127.013 136.353 126.391 137.923 118.165L140.44 104.885" stroke="#FDEF25" stroke-width="6" stroke-miterlimit="10"/>
<path d="M141.031 105.251C142.069 105.251 142.911 104.388 142.911 103.322C142.911 102.257 142.069 101.393 141.031 101.393C139.992 101.393 139.15 102.257 139.15 103.322C139.15 104.388 139.992 105.251 141.031 105.251Z" stroke="#7FAB96" stroke-width="6" stroke-miterlimit="10"/>
</svg>
