<svg width="317" height="247" viewBox="0 0 317 247" fill="none" xmlns="http://www.w3.org/2000/svg">
<path d="M311.789 105.821C311.235 105.355 310.586 105.044 309.899 104.913C309.175 104.73 308.435 104.616 307.699 104.488L298.165 102.981C297.203 102.786 296.222 102.728 295.246 102.812C294.756 102.856 294.28 103.006 293.843 103.254C293.407 103.501 293.02 103.842 292.705 104.255C292.421 104.639 292.266 105.119 292.264 105.613C292.317 106.111 292.465 106.591 292.698 107.023C292.79 107.224 292.869 107.433 292.934 107.647C293.025 108.127 293.139 108.602 293.275 109.069C293.317 109.17 293.372 109.264 293.437 109.349C293.439 109.373 293.439 109.397 293.437 109.421C293.333 110.007 293.67 110.618 293.519 111.183C293.387 111.667 292.957 111.96 292.686 112.363C292.505 112.649 292.405 112.987 292.398 113.335C292.391 113.683 292.478 114.026 292.647 114.32C292.938 114.812 293.464 115.148 293.615 115.712C293.813 116.455 293.279 117.173 292.802 117.746C291.926 118.801 291.116 119.92 290.378 121.095C290.171 121.384 290.037 121.728 289.991 122.093C289.948 122.831 290.595 123.481 290.483 124.215C290.394 124.793 289.879 125.145 289.433 125.489C287.788 126.677 286.467 128.588 286.335 130.748C285.913 127.311 284.614 124.073 282.587 121.409C282.033 120.679 281.425 119.945 281.197 119.019C281.112 118.65 281.096 118.255 280.98 117.899C280.593 116.774 279.361 116.29 278.823 115.254C278.436 114.524 278.436 113.586 277.956 112.945C277.475 112.304 276.72 112.159 276.306 111.539C276.099 111.12 275.923 110.682 275.779 110.232C275.606 109.865 275.361 109.543 275.063 109.29C275.006 109.239 274.946 109.193 274.885 109.149C274.949 109.086 275.001 109.009 275.036 108.923C275.071 108.837 275.09 108.743 275.09 108.649C275.09 108.152 274.641 107.825 274.25 107.579C273.746 107.265 273.254 106.925 272.774 106.573C273.298 106.305 273.752 105.898 274.095 105.388C274.525 104.628 274.702 103.729 274.598 102.841C274.572 102.125 274.328 101.439 273.905 100.893C273.661 100.608 273.355 100.405 273.1 100.137C272.437 99.4283 272.213 98.3797 271.938 97.4118C271.574 96.1383 271.005 94.8011 269.944 94.1262C269.432 93.7993 268.836 93.6465 268.337 93.3026C267.837 92.9588 267.419 92.3093 267.593 91.6852C267.709 91.2607 268.069 90.9678 268.313 90.607C268.605 90.1404 268.716 89.5668 268.624 89.0105C268.532 88.4542 268.244 87.9601 267.822 87.6354C267.535 87.4359 267.183 87.2618 267.125 86.8968C266.9 86.8329 266.697 86.7011 266.538 86.5164C266.379 86.3317 266.271 86.1016 266.226 85.8525C266.139 85.3533 266.139 84.8405 266.226 84.3412C266.327 83.5517 266.426 82.7649 266.524 81.981C266.695 82.0587 266.878 82.0988 267.063 82.0988C267.247 82.0988 267.43 82.0587 267.601 81.981C267.936 82.5772 268.325 83.1347 268.763 83.6451C269.942 85.1716 270.86 86.9188 271.473 88.8028C271.694 89.482 271.919 90.2419 272.492 90.6027C272.689 90.7258 272.914 90.7895 273.107 90.9211C273.346 91.1036 273.551 91.3341 273.711 91.6003C274.176 92.2753 274.641 92.946 275.102 93.621L275.125 93.7229C275.137 93.7826 275.158 93.8399 275.187 93.8927C275.273 93.9985 275.391 94.0651 275.52 94.0795C276.945 94.4403 278.544 94.7714 279.779 93.9181C280.895 93.154 281.383 91.6428 282.327 90.6325C282.997 89.915 283.946 89.3589 284.136 88.3486C283.91 88.2721 283.687 88.1828 283.47 88.0812C283.663 87.8689 283.857 87.6227 284.12 87.3425C284.503 86.9319 284.848 86.4812 285.15 85.9968C285.477 85.3993 285.737 84.7608 285.925 84.095C286.671 81.7631 287.42 79.4297 288.171 77.0949C288.527 75.9912 288.883 74.879 289.333 73.8049C289.797 72.6418 290.347 71.5253 290.854 70.3834C292.164 67.4136 293.174 64.2963 293.867 61.0867C293.99 60.6488 294.031 60.1882 293.987 59.7325C293.879 58.9981 293.371 58.4208 292.887 57.8986C292.401 57.321 291.846 56.817 291.238 56.4001C290.932 56.192 290.592 56.0525 290.237 55.9898C289.882 55.9271 289.52 55.9425 289.17 56.035C288.179 56.3534 287.555 57.4656 287.327 58.5821C287.098 59.6986 287.183 60.849 287.087 61.9782C286.947 63.6125 286.436 65.1917 286.312 66.8303C286.246 67.7769 286.312 68.7363 286.208 69.683C286.017 70.9219 285.623 72.1127 285.046 73.1979C283.79 75.786 282.09 78.0836 280.039 79.9646C279.803 80.1811 279.559 80.3891 279.326 80.6225C279.326 80.44 279.353 80.2532 279.377 80.0707C279.208 80.1188 279.044 80.1827 278.885 80.2617C278.904 80.0473 278.885 79.8309 278.827 79.625C278.517 78.6104 277.138 78.3514 276.891 77.3199C276.849 77.0648 276.827 76.8064 276.825 76.5473C276.743 75.6431 276.182 74.879 275.988 74.0002C275.81 73.1894 275.946 72.3022 275.601 71.5508C275.307 71.081 274.961 70.6532 274.571 70.2773C274.106 69.6947 273.77 69.0015 273.591 68.2524C273.541 68.0444 273.495 67.8279 273.44 67.6199C273.499 67.1488 273.451 66.6692 273.301 66.2232C272.949 65.2639 272.039 64.6483 271.709 63.6762C271.454 62.9206 271.566 61.9782 271.082 61.3923C270.825 61.1124 270.51 60.9042 270.164 60.7853C268.392 60.0286 266.532 59.5471 264.638 59.3547C263.577 59.2486 262.408 59.1891 261.649 58.3698C260.762 57.4189 260.72 55.7082 259.682 54.9738C258.768 54.3243 257.475 54.804 256.766 55.7167C256.659 55.8509 256.561 55.9927 256.472 56.1412C256.342 55.5722 256.315 54.9812 256.39 54.4007C256.39 54.2564 256.417 54.1078 256.429 53.9762C258.177 53.3498 259.665 52.0617 260.627 50.3424C260.627 50.3424 260.627 50.3424 260.627 50.3679L260.673 50.4995C260.785 50.8093 260.964 51.1065 261.227 51.1405C261.402 51.1382 261.571 51.0708 261.707 50.9494C261.941 50.7715 262.156 50.5665 262.35 50.3381C262.448 50.2193 262.541 50.0962 262.629 49.9688C262.807 49.7037 262.96 49.4192 263.086 49.1198C263.278 48.6693 263.408 48.1901 263.473 47.6977C263.543 47.2053 263.55 46.7001 263.628 46.2077C263.7 45.8265 263.795 45.4508 263.91 45.0827C263.949 44.9596 263.988 44.8365 264.023 44.7134C264.058 44.5903 264.108 44.4247 264.147 44.2889C264.389 43.4158 264.519 42.51 264.534 41.5975C264.534 41.4447 264.534 41.2919 264.534 41.1391C264.52 40.5435 264.397 39.9571 264.174 39.414C263.951 38.871 263.631 38.3823 263.233 37.9765C262.567 37.3779 261.684 37.1275 261.196 36.3166C260.878 35.7733 260.809 35.0728 260.623 34.4361C260.422 33.674 260.03 32.9889 259.492 32.4585C258.954 31.928 258.292 31.5734 257.579 31.4348C256.721 31.3317 255.86 31.5913 255.17 32.1607L255.116 32.2074C254.732 32.5289 254.407 32.9263 254.156 33.3791C253.644 33.2246 253.176 32.9328 252.793 32.53C252.406 32.1352 252.107 31.6386 251.716 31.2565C251.351 30.8896 250.902 30.6369 250.417 30.5249C249.932 30.4129 249.429 30.4457 248.959 30.6198C248.476 30.8321 248.045 31.1671 247.702 31.5973C247.36 32.0276 247.115 32.5407 246.988 33.0946C246.775 33.9691 246.814 34.9752 246.369 35.7054C246.024 36.2742 245.459 36.5544 245.064 37.0723C244.818 37.4002 244.651 37.7896 244.576 38.2057C244.529 38.4384 244.507 38.6763 244.51 38.9146C244.51 39.0208 244.51 39.1269 244.533 39.2288C244.533 39.2288 244.533 39.2627 244.533 39.2797C244.547 39.396 244.569 39.511 244.599 39.6236C244.709 40.0539 244.906 40.4515 245.176 40.7867C245.431 41.1077 245.751 41.3604 246.109 41.5254C246.256 41.5879 246.406 41.6404 246.558 41.6824L247.019 41.797L247.182 41.8395C246.626 42.9841 246.317 44.2535 246.279 45.5496C246.242 46.8458 246.476 48.1341 246.965 49.3151C246.965 49.4339 246.938 49.5528 246.926 49.6717C246.863 51.3432 246.93 53.0176 247.128 54.6766C247.182 55.3346 247.213 56.0605 246.845 56.5827C246.677 56.7881 246.489 56.9718 246.283 57.1303C246.492 56.8331 246.705 56.5402 246.922 56.2473C246.376 55.6445 245.513 55.5681 244.738 55.6275C243.239 55.7502 241.784 56.2375 240.479 57.0539C239.611 57.6015 238.721 58.3274 237.729 58.2C237.145 58.1279 236.568 57.7755 235.998 57.9453C235.678 58.0888 235.38 58.2834 235.112 58.5227C234.9 58.6892 234.644 58.7756 234.384 58.7689C233.776 57.9496 232.835 57.3935 232.107 56.727C231.278 55.9185 230.52 55.0274 229.841 54.0653C228.587 52.4055 227.336 50.7414 226.104 49.0646C225.067 47.6553 224.002 46.1313 223.82 44.3271C223.801 44.1481 223.792 43.9681 223.793 43.788C223.818 42.9307 223.916 42.078 224.087 41.2409C224.133 41.0388 224.133 40.8275 224.087 40.6254C223.971 40.2009 223.525 40.0438 223.142 39.9504C223.192 39.6236 223.227 39.2882 223.247 38.9698C223.463 35.319 223.227 31.6089 223.932 28.0345C224.199 26.6591 224.637 25.2667 225.539 24.2691C226.952 22.7027 229.318 22.3249 230.403 20.4698C231.309 18.9246 230.949 16.7383 229.81 15.3757C228.672 14.013 226.918 13.4569 225.249 13.5248C224.78 13.5072 224.318 13.6432 223.92 13.9154C223.549 14.277 223.271 14.7397 223.115 15.2568L221.454 19.6844C220.972 20.8372 220.566 22.0259 220.238 23.2418C219.773 25.1011 219.668 27.0624 219.301 28.9387C219.301 30.382 218.453 32.1819 217.988 33.5107C217.469 35.0049 216.907 36.4822 216.439 38.0062C216.323 38.3882 215.916 39.5217 215.664 40.5532C215.569 40.6139 215.481 40.6866 215.401 40.7697C215.199 41.0538 215.015 41.3531 214.851 41.6654C214.499 42.1749 213.926 42.4465 213.539 42.939C213.151 43.4314 213.07 44.3356 213.608 44.5818C213.717 44.6221 213.83 44.6491 213.945 44.6625C214.016 44.669 214.086 44.6818 214.154 44.7007C214.735 44.879 214.964 45.6813 214.878 46.3435C214.793 47.0058 214.491 47.6171 214.441 48.2793C214.336 49.4509 214.964 50.5419 215.568 51.5268C216.193 52.5944 216.884 53.6141 217.635 54.579C218.182 55.2497 218.797 55.8525 219.347 56.4978C221.442 58.858 223.107 61.6173 224.989 64.1814C225.666 65.1491 226.436 66.0343 227.285 66.8218C227.84 67.2975 228.421 67.7355 229.024 68.1335L232.261 70.3834C232.629 70.6784 233.044 70.8931 233.485 71.0159C233.629 71.0372 233.775 71.0372 233.919 71.0159C233.938 71.1221 233.954 71.2239 233.977 71.3301C234.229 72.4423 234.782 73.4526 234.844 74.586C234.906 75.7195 234.813 76.8784 234.887 78.0246C234.957 79.0816 235.17 80.1471 235.224 81.1871C235.332 83.1908 234.883 85.169 234.449 87.1303C233.795 89.9999 233.4 92.929 232.126 95.5313C231.77 96.2487 231.351 96.9789 231.351 97.7981C231.351 97.8958 231.351 97.9977 231.375 98.0953L230.794 98.4561C230.623 98.5623 230.453 98.6684 230.298 98.7788C229.562 99.3052 228.776 99.8867 228.474 100.795C228.23 101.53 228.343 102.37 228.048 103.083C228.034 103.115 228.019 103.146 228.002 103.177C227.692 103.839 227.076 104.331 226.937 105.057C226.832 105.613 227.034 106.203 226.937 106.755C226.937 106.755 226.937 106.755 226.937 106.776C226.849 107.054 226.779 107.337 226.728 107.626C226.724 107.72 226.731 107.814 226.751 107.906C226.825 108.227 226.987 108.516 227.216 108.733C227.355 108.88 227.507 109.012 227.669 109.128C227.834 109.247 228.004 109.358 228.18 109.459L228.281 109.519C228.428 109.604 228.575 109.684 228.726 109.761L228.827 109.807C229.001 109.892 229.179 109.969 229.357 110.037L229.481 110.079C229.621 110.13 229.764 110.177 229.907 110.215L230.004 110.249L230.093 110.27L230.48 110.359L230.623 110.389C230.794 110.42 230.968 110.446 231.146 110.465H231.301C231.433 110.465 231.561 110.487 231.688 110.491H231.87C232.006 110.491 232.138 110.491 232.258 110.491H232.397C232.579 110.491 232.761 110.461 232.943 110.436H233.001C233.164 110.41 233.326 110.381 233.489 110.342L233.613 110.313C233.764 110.274 233.915 110.236 234.066 110.185L234.147 110.16C234.329 110.1 234.511 110.037 234.689 109.96C235.306 109.683 235.904 109.358 236.478 108.988C236.866 108.755 237.253 108.517 237.64 108.3C237.927 108.142 238.222 108 238.523 107.876C239.256 107.533 240.052 107.387 240.847 107.451C241.239 107.51 241.627 107.597 242.008 107.71C242.008 107.757 242.008 107.804 242.008 107.85C242.323 109.888 242.634 111.926 242.941 113.963C243.448 113.563 243.985 113.21 244.545 112.906C244.44 113.214 244.371 113.535 244.339 113.862C244.316 114.114 244.316 114.369 244.339 114.621C244.374 115.025 244.452 115.47 244.231 115.789C244.095 115.984 243.844 116.094 243.77 116.315C243.716 116.541 243.703 116.776 243.731 117.007C243.716 117.271 243.614 117.52 243.445 117.708C243.276 117.897 243.05 118.013 242.81 118.034C242.921 118.376 242.923 118.749 242.817 119.092C242.711 119.436 242.503 119.73 242.225 119.928C242.063 120.013 241.912 120.122 241.776 120.25C241.643 120.438 241.554 120.658 241.516 120.891C241.005 122.994 239.952 124.89 238.484 126.355C237.934 126.829 237.431 127.367 236.986 127.959C236.71 128.418 236.483 128.909 236.308 129.424C235.275 132.192 234.227 134.961 233.164 137.732C232.575 139.281 232.002 140.856 231.816 142.524C231.351 147.101 227.634 150.981 228.331 155.523C228.472 156.657 228.889 157.729 229.539 158.626C230.314 159.649 231.475 160.235 232.637 160.71C235.623 161.984 238.771 162.68 241.908 163.38L246.833 164.488C247.8 164.732 248.781 164.902 249.769 164.998C250.957 165.087 252.177 164.964 253.335 165.295C254.051 165.499 254.737 165.877 255.476 165.919C256.111 165.957 256.894 165.809 257.269 166.377C257.645 166.946 257.354 167.698 257.711 168.203C258.284 169.005 259.682 168.203 260.305 168.958C260.476 169.249 260.606 169.565 260.692 169.897C260.787 170.102 260.919 170.284 261.08 170.431C261.118 170.671 261.133 170.914 261.126 171.157C261.045 172.143 260.858 173.115 260.569 174.053C260.104 175.776 259.64 177.501 259.178 179.227C259.002 179.837 258.872 180.462 258.791 181.095C258.762 181.403 258.762 181.713 258.791 182.021C258.872 182.959 259.364 183.927 260.181 184.232C260.815 184.416 261.489 184.325 262.063 183.978C262.617 183.66 263.137 183.276 263.612 182.831C264.47 182.12 265.223 181.27 265.847 180.31C267.783 177.134 267.155 172.838 268.515 169.328C269.417 166.984 271.175 165.083 271.76 162.612C271.897 162.142 271.913 161.64 271.806 161.16C271.562 160.311 270.737 159.827 269.967 159.522H269.932C269.299 159.275 268.652 159.072 267.996 158.915C267.833 158.876 267.667 158.847 267.5 158.817C267.132 158.488 266.839 158.07 266.644 157.594C266.614 157.342 266.553 157.095 266.462 156.86C266.401 156.759 266.318 156.675 266.221 156.616C266.124 156.557 266.016 156.524 265.905 156.52C265.517 156.478 264.999 156.631 264.576 156.597C263.713 156.529 263.14 155.599 262.365 155.17C261.591 154.742 260.751 154.848 259.926 154.911C259.631 154.956 259.331 154.935 259.043 154.852C258.699 154.678 258.385 154.441 258.113 154.152C257.637 153.745 257.081 153.466 256.488 153.335C255.896 153.205 255.285 153.227 254.702 153.4C254.331 153.564 253.939 153.662 253.54 153.689C252.785 153.642 252.251 152.904 251.693 152.343C250.167 150.811 247.995 150.407 246.144 149.401C245.861 149.286 245.624 149.063 245.478 148.773C245.265 148.196 245.745 147.618 246.179 147.224L249.362 144.324C252.847 141.149 257.203 138.759 258.822 134.102C258.991 133.478 259.253 132.888 259.597 132.357C259.722 132.195 259.866 132.053 260.026 131.933C260.731 131.433 261.584 131.25 262.408 131.423C263.412 131.67 264.364 132.125 265.212 132.765C266.598 133.685 267.947 134.675 269.258 135.736C270.557 136.754 271.793 137.866 272.956 139.065C274.989 141.187 276.682 143.704 278.575 145.993C280.469 148.281 282.633 150.416 285.263 151.511C287.892 152.606 291.071 152.56 293.329 150.722C295.935 148.599 296.771 144.804 297.43 141.323C298.882 139.786 299.319 137.447 300.028 135.38C300.473 134.068 301.043 132.833 301.523 131.525C302.096 129.989 302.545 128.401 302.994 126.818C303.503 125.227 303.849 123.58 304.024 121.906C304.21 119.261 303.564 116.447 304.241 113.963C305.136 113.747 305.949 113.195 306.828 112.872C308.137 112.401 309.539 112.478 310.925 112.486H311.014C311.492 112.542 311.972 112.418 312.377 112.134C312.842 111.709 312.915 110.983 312.939 110.325C312.993 108.7 312.9 106.874 311.789 105.821ZM255.682 33.4088C255.361 33.4956 255.03 33.5215 254.702 33.4852L255.682 33.4088Z" fill="url(#paint0_linear)"/>
<path d="M257.207 60.2631C256.738 60.6997 256.189 61.0198 255.596 61.2013L252.851 62.2796C251.36 62.8654 249.803 63.4555 248.231 63.2432C247.352 63.1243 243.584 62.5173 243.015 61.7659C242.148 60.6028 245.187 58.892 246.225 57.9114C246.46 57.726 246.678 57.5155 246.876 57.2831C247.263 56.7652 247.213 56.0393 247.159 55.3855C246.962 53.7294 246.894 52.0578 246.957 50.3891C246.987 49.9913 247.039 49.5958 247.112 49.2047C247.499 47.252 249.157 47.9651 250.466 48.483C252.041 49.0441 253.565 49.7676 255.016 50.6438C255.458 50.8936 255.842 51.2508 256.139 51.6881C256.712 52.639 256.483 53.887 256.39 55.0842C256.309 56.0138 256.313 56.9053 256.843 57.5802C257.11 57.8383 257.355 58.1225 257.575 58.4293C257.699 58.7382 257.73 59.0824 257.664 59.412C257.598 59.7416 257.438 60.0397 257.207 60.2631Z" fill="#BE6F72"/>
<path d="M219.281 29.6688C219.669 27.7883 219.754 25.8483 220.218 23.9847C220.546 22.773 220.953 21.5884 221.434 20.44L223.142 16.0719C223.298 15.5561 223.576 15.0947 223.947 14.7346C224.346 14.4644 224.808 14.3285 225.276 14.3441C226.945 14.2762 228.699 14.845 229.837 16.1907C230.976 17.5364 231.336 19.7141 230.43 21.2551C229.346 23.1102 226.98 23.4838 225.566 25.046C224.664 26.0435 224.226 27.4317 223.959 28.8028C223.254 32.3687 223.491 36.0662 223.274 39.7085C223.204 40.8419 223.003 42.1366 222.112 42.7225C221.574 43.0116 220.975 43.1391 220.377 43.0918L217.837 43.1385C217.411 43.1385 215.866 43.4314 215.583 43.0791C215.088 42.4635 216.218 39.3986 216.423 38.7151C216.88 37.1996 217.442 35.7223 217.972 34.2323C218.433 32.9036 219.281 31.1079 219.281 29.6688Z" fill="#BE6F72"/>
<path d="M271.733 163.032C271.148 165.486 269.39 167.396 268.488 169.735C267.128 173.237 267.74 177.521 265.819 180.688C265.196 181.649 264.443 182.501 263.585 183.213C263.11 183.657 262.59 184.04 262.036 184.355C261.462 184.703 260.788 184.794 260.154 184.61C259.337 184.304 258.845 183.337 258.764 182.403C258.735 182.096 258.735 181.788 258.764 181.481C258.845 180.849 258.975 180.226 259.151 179.618C259.616 177.9 260.079 176.179 260.541 174.456C260.831 173.521 261.018 172.552 261.099 171.569C261.149 170.499 260.53 169.107 260.793 168.109C260.913 167.659 261.362 167.26 261.568 166.883C261.859 166.339 262.083 165.755 262.234 165.146C262.551 163.962 262.768 162.697 263.434 161.699C263.869 161.108 264.377 160.586 264.944 160.15C265.363 159.748 265.854 159.445 266.385 159.263C266.9 159.163 267.429 159.191 267.934 159.343C268.591 159.497 269.237 159.699 269.87 159.946H269.905C270.679 160.252 271.5 160.723 271.744 161.58C271.863 162.056 271.859 162.559 271.733 163.032Z" fill="#292426"/>
<path d="M312.935 110.843C312.911 111.501 312.838 112.236 312.373 112.647C311.969 112.931 311.488 113.056 311.01 113H310.906C309.523 113 308.117 112.915 306.809 113.386C305.813 113.747 304.9 114.409 303.862 114.541C302.433 114.719 301.089 113.862 299.823 113.114C298.631 112.41 297.407 111.773 296.156 111.204C295.335 110.835 293.658 110.597 293.263 109.612C293.128 109.146 293.014 108.673 292.922 108.194C292.857 107.98 292.778 107.772 292.686 107.57C292.454 107.14 292.306 106.662 292.252 106.165C292.254 105.67 292.41 105.191 292.694 104.807C293.01 104.397 293.396 104.059 293.832 103.814C294.267 103.568 294.742 103.42 295.23 103.376C296.206 103.293 297.188 103.35 298.15 103.546L307.684 105.049C308.42 105.163 309.159 105.278 309.883 105.473C310.571 105.604 311.219 105.916 311.773 106.382C312.9 107.418 312.993 109.239 312.935 110.843Z" fill="#292426"/>
<path d="M304.555 113.56C303.393 116.247 304.23 119.427 304.021 122.398C303.845 124.068 303.499 125.712 302.99 127.297C302.541 128.876 302.092 130.46 301.519 131.992C301.039 133.266 300.47 134.539 300.024 135.838C299.316 137.91 298.863 140.24 297.426 141.781C296.768 145.254 295.931 149.049 293.325 151.155C291.06 152.988 287.904 153.052 285.259 151.944C282.614 150.836 280.465 148.714 278.571 146.426C276.678 144.137 274.985 141.646 272.952 139.515C271.787 138.316 270.549 137.205 269.247 136.191C267.935 135.146 266.586 134.164 265.2 133.245C264.351 132.608 263.4 132.154 262.396 131.907C261.572 131.734 260.719 131.917 260.015 132.417C259.855 132.537 259.71 132.679 259.585 132.841C259.24 133.37 258.979 133.958 258.81 134.582C257.184 139.226 252.82 141.612 249.335 144.778L246.152 147.669C245.718 148.064 245.238 148.641 245.451 149.215C245.597 149.504 245.834 149.727 246.117 149.843C247.968 150.845 250.14 151.248 251.666 152.776C252.224 153.337 252.758 154.075 253.513 154.118C253.912 154.092 254.304 153.996 254.675 153.833C255.257 153.66 255.869 153.638 256.461 153.768C257.053 153.897 257.609 154.175 258.086 154.58C258.357 154.87 258.672 155.107 259.016 155.281C259.304 155.364 259.604 155.384 259.899 155.34C260.723 155.277 261.599 155.196 262.338 155.599C263.078 156.002 263.686 156.953 264.549 157.021C264.971 157.055 265.475 156.902 265.878 156.945C265.988 156.949 266.097 156.982 266.194 157.041C266.291 157.1 266.374 157.183 266.435 157.284C266.526 157.518 266.587 157.763 266.617 158.015C266.776 158.613 267.31 158.978 267.659 159.471C268.193 160.226 268.271 161.254 268.217 162.209C268.041 165.195 266.827 167.994 264.824 170.028C264.256 170.665 263.531 171.108 262.737 171.302C262.34 171.393 261.926 171.345 261.555 171.164C261.184 170.984 260.874 170.68 260.669 170.296C260.583 169.965 260.452 169.65 260.282 169.362C259.659 168.61 258.261 169.408 257.688 168.606C257.331 168.105 257.587 167.303 257.246 166.785C256.905 166.267 256.084 166.36 255.453 166.331C254.714 166.288 254.028 165.906 253.312 165.707C252.15 165.376 250.934 165.499 249.745 165.41C248.757 165.314 247.777 165.144 246.81 164.9L241.884 163.796C238.748 163.096 235.599 162.387 232.614 161.135C231.472 160.659 230.321 160.074 229.516 159.055C228.867 158.159 228.449 157.089 228.308 155.956C227.607 151.426 231.324 147.555 231.793 142.991C231.959 141.327 232.567 139.757 233.14 138.211C234.191 135.449 235.239 132.686 236.285 129.921C236.454 129.406 236.675 128.913 236.943 128.452C237.389 127.861 237.891 127.324 238.442 126.851C239.909 125.392 240.962 123.499 241.474 121.401C241.512 121.167 241.601 120.947 241.733 120.76C241.871 120.634 242.021 120.527 242.183 120.441C242.459 120.244 242.667 119.95 242.773 119.608C242.879 119.265 242.877 118.893 242.767 118.552C243.008 118.531 243.233 118.415 243.402 118.226C243.571 118.038 243.673 117.789 243.689 117.525C243.661 117.295 243.674 117.062 243.728 116.837C243.821 116.617 244.053 116.506 244.188 116.311C244.409 115.993 244.332 115.547 244.297 115.148C244.274 114.895 244.274 114.641 244.297 114.388C244.382 113.489 244.748 112.65 245.335 112.015C246.26 111.017 247.577 111.276 248.855 111.039C250.129 110.737 251.374 110.3 252.572 109.735C255.932 108.284 259.47 107.387 263.07 107.074C266.688 106.762 270.322 107.396 273.673 108.925C274.16 109.141 274.62 109.426 275.04 109.774C275.338 110.025 275.582 110.346 275.756 110.712C275.899 111.161 276.075 111.597 276.283 112.015C276.697 112.635 277.479 112.834 277.932 113.42C278.385 114.006 278.424 114.995 278.8 115.721C279.338 116.757 280.585 117.236 280.957 118.361C281.073 118.718 281.088 119.108 281.173 119.478C281.383 120.403 282.01 121.133 282.564 121.864C284.594 124.525 285.893 127.764 286.312 131.203C286.436 129.05 287.757 127.144 289.41 125.956C289.855 125.637 290.37 125.285 290.459 124.708C290.572 123.978 289.925 123.328 289.968 122.585C290.015 122.222 290.148 121.88 290.355 121.592C291.093 120.419 291.903 119.303 292.779 118.251C293.255 117.678 293.79 116.977 293.592 116.222C293.441 115.657 292.915 115.326 292.624 114.834C292.455 114.54 292.368 114.198 292.375 113.851C292.382 113.504 292.482 113.166 292.663 112.881C292.934 112.478 293.364 112.185 293.495 111.705C293.646 111.14 293.31 110.529 293.414 109.948C293.556 109.482 293.837 109.082 294.212 108.814C294.726 108.301 295.31 107.88 295.943 107.566C296.965 107.142 298.104 107.299 299.188 107.464C301 107.74 303.033 108.165 304.055 109.829C304.71 110.869 305.043 112.448 304.555 113.56Z" fill="#292426"/>
<path opacity="0.1" d="M312.935 110.843C312.911 111.501 312.838 112.236 312.373 112.647C311.969 112.931 311.488 113.056 311.01 113H310.906C311.064 112.117 312.044 111.612 312.214 110.716C312.244 110.441 312.221 110.162 312.148 109.897C312.074 109.632 311.952 109.386 311.789 109.175C310.96 107.948 309.628 107.269 308.303 106.772C304.562 105.366 300.554 105.037 296.663 105.817C295.605 106.006 294.576 106.353 293.604 106.849C293.282 107.07 292.971 107.311 292.674 107.57C292.442 107.14 292.294 106.662 292.241 106.165C292.242 105.67 292.398 105.191 292.682 104.807C292.998 104.397 293.385 104.059 293.82 103.814C294.255 103.568 294.731 103.42 295.219 103.376C296.194 103.293 297.176 103.35 298.138 103.546L307.672 105.049C308.408 105.163 309.148 105.278 309.872 105.473C310.559 105.604 311.208 105.916 311.761 106.382C312.9 107.418 312.993 109.239 312.935 110.843Z" fill="black"/>
<path opacity="0.1" d="M271.733 163.032C271.148 165.486 269.39 167.396 268.488 169.735C267.128 173.237 267.74 177.521 265.819 180.688C265.196 181.649 264.443 182.501 263.585 183.213C263.11 183.657 262.59 184.04 262.036 184.355C261.462 184.703 260.788 184.794 260.154 184.61C259.337 184.304 258.845 183.337 258.764 182.403C258.735 182.096 258.735 181.788 258.764 181.481L258.787 181.549C259.124 182.441 259.674 183.375 260.541 183.532C260.867 183.558 261.194 183.509 261.502 183.39C261.81 183.271 262.092 183.084 262.33 182.84C263.608 181.715 264.352 180.038 265.06 178.421C265.615 177.254 266.054 176.026 266.369 174.757C266.524 174.036 266.598 173.297 266.757 172.575C267.492 169.069 269.998 166.208 270.551 162.654C270.597 162.41 270.607 162.159 270.582 161.912C270.509 161.588 270.397 161.277 270.249 160.986C270.115 160.658 270.016 160.313 269.955 159.959C270.73 160.264 271.551 160.736 271.795 161.593C271.895 162.07 271.873 162.568 271.733 163.032Z" fill="black"/>
<path opacity="0.1" d="M265.885 156.945C265.527 157.972 264.924 158.875 264.139 159.56C263.036 160.481 261.746 161.093 260.379 161.343C259.743 161.521 259.075 161.512 258.443 161.317C257.583 160.99 256.963 160.107 256.084 159.853C255.457 159.666 254.783 159.832 254.148 159.73C253.006 159.556 252.119 158.6 251.197 157.836C248.374 155.51 244.669 154.759 241.846 152.432C241.72 152.348 241.616 152.229 241.544 152.088C241.489 151.936 241.47 151.771 241.485 151.609C241.496 150.198 241.785 148.806 242.334 147.529C242.783 146.639 243.317 145.803 243.929 145.037C246.458 141.641 248.998 138.22 252.026 135.354C253.296 134.153 254.683 133.032 256.286 132.489C257.176 132.188 258.934 131.903 260.019 132.413C259.859 132.532 259.714 132.675 259.589 132.837C259.244 133.366 258.982 133.954 258.814 134.578C257.184 139.226 252.82 141.612 249.335 144.778L246.152 147.669C245.718 148.064 245.238 148.641 245.451 149.215C245.597 149.504 245.834 149.727 246.117 149.843C247.968 150.845 250.14 151.248 251.666 152.776C252.224 153.337 252.758 154.075 253.513 154.118C253.912 154.092 254.304 153.996 254.675 153.833C255.257 153.66 255.869 153.638 256.461 153.768C257.053 153.897 257.609 154.175 258.086 154.58C258.357 154.87 258.672 155.107 259.016 155.281C259.304 155.364 259.604 155.384 259.899 155.34C260.723 155.277 261.599 155.196 262.338 155.599C263.078 156.002 263.686 156.953 264.549 157.021C264.979 157.055 265.483 156.894 265.885 156.945Z" fill="black"/>
<path d="M230.271 99.3306C229.535 99.8485 228.753 100.434 228.451 101.334C228.203 102.069 228.319 102.909 228.021 103.622C227.723 104.336 227.053 104.832 226.906 105.596C226.801 106.152 227.007 106.738 226.906 107.294C226.818 107.584 226.747 107.878 226.693 108.177C226.654 108.81 227.15 109.324 227.634 109.676C228.665 110.411 229.838 110.87 231.06 111.018C232.282 111.165 233.518 110.996 234.67 110.525C235.704 110.1 236.637 109.408 237.629 108.865C238.595 108.255 239.701 107.96 240.816 108.016C241.455 108.092 242.066 108.347 242.705 108.441C243.021 108.509 243.347 108.492 243.655 108.392C243.963 108.291 244.245 108.11 244.475 107.863C244.672 107.565 244.805 107.22 244.862 106.857C245.4 104.527 245.157 102.056 244.645 99.7127C244.134 97.3694 243.36 95.1153 242.814 92.7847C242.426 91.057 242.128 89.2868 241.482 87.6524C240.835 86.0181 239.747 84.4983 238.225 83.8743C238.105 83.8097 237.969 83.7903 237.838 83.8191C237.74 83.8639 237.654 83.9338 237.586 84.0229C236.382 85.4214 235.475 87.0942 234.93 88.9217C234.322 90.9551 234.155 93.1116 233.597 95.1535C233.357 96.0025 233.048 97.1402 232.436 97.7897C231.824 98.4392 230.964 98.8424 230.271 99.3306Z" fill="#292426"/>
<path opacity="0.1" d="M256.39 55.0714C254.569 55.7057 252.599 55.5797 250.858 54.7177C249.116 53.8558 247.727 52.3186 246.957 50.4018C246.987 50.004 247.039 49.6085 247.112 49.2174C247.499 47.2647 249.157 47.9779 250.466 48.4958C252.041 49.0568 253.565 49.7803 255.016 50.6565C255.458 50.9063 255.842 51.2635 256.139 51.7008C256.712 52.639 256.483 53.887 256.39 55.0714Z" fill="black"/>
<path d="M254.051 55.046C258.329 55.046 261.796 51.2448 261.796 46.5558C261.796 41.8668 258.329 38.0656 254.051 38.0656C249.774 38.0656 246.307 41.8668 246.307 46.5558C246.307 51.2448 249.774 55.046 254.051 55.046Z" fill="#BE6F72"/>
<path opacity="0.1" d="M275.067 110.003C275.067 110.707 274.195 110.932 273.549 110.894C271.225 110.746 268.952 110.045 266.652 110.257C263.744 110.546 261.072 112.308 258.156 112.469C257.033 112.533 255.891 112.35 254.783 112.575C253.35 112.868 252.073 113.823 250.613 113.959C249.346 114.078 248.096 113.556 246.829 113.611C245.944 113.669 245.081 113.938 244.301 114.401C244.385 113.502 244.752 112.663 245.338 112.028C246.264 111.03 247.581 111.289 248.858 111.051C250.133 110.75 251.378 110.313 252.576 109.748C255.936 108.297 259.474 107.4 263.074 107.086C266.69 106.771 270.322 107.401 273.673 108.925C274.16 109.141 274.62 109.426 275.04 109.774C275.061 109.848 275.07 109.925 275.067 110.003Z" fill="black"/>
<path d="M250.469 62.0588L247.333 60.7853L246.008 60.2504C245.469 60.0025 244.901 59.8368 244.32 59.758C242.802 59.6306 241.373 60.7386 240.564 62.1522C239.755 63.5658 239.449 65.2511 239.189 66.894C238.833 69.141 238.531 71.3966 238.283 73.6606C238.016 75.7051 237.88 77.7676 237.876 79.833C237.965 85.0884 238.98 90.2716 240.095 95.387C240.642 97.655 241.054 99.9591 241.331 102.285C241.424 103.245 241.466 104.208 241.559 105.172C241.66 106.254 241.822 107.324 241.985 108.398L242.918 114.498C244.08 113.594 245.4 112.8 246.829 112.754C248.096 112.703 249.35 113.221 250.613 113.102C252.065 112.97 253.35 112.015 254.783 111.722C255.891 111.497 257.033 111.675 258.16 111.616C261.072 111.455 263.748 109.689 266.652 109.404C268.956 109.175 271.245 109.888 273.553 110.037C274.195 110.079 275.067 109.854 275.067 109.145C275.067 108.653 274.618 108.326 274.226 108.08C272.383 106.863 270.628 105.49 268.979 103.975C267.454 102.65 265.905 101.292 264.855 99.5004C262.327 95.1917 263.194 89.3632 261.037 84.8167C259.283 81.1235 261.037 76.2841 261.037 72.1197C261.037 70.0438 261.037 67.9425 260.592 65.9261C260.313 64.7983 259.967 63.6921 259.554 62.6149L258.048 58.4335C258.016 58.3113 257.955 58.2011 257.87 58.1151C257.768 58.0386 257.648 57.9986 257.525 58.0005C256.62 57.9411 255.728 58.2545 255.023 58.8792C254.315 59.5118 253.862 60.4202 253.165 61.0782C252.402 61.8041 251.418 62.4409 250.469 62.0588Z" fill="#E3E8F4"/>
<path d="M255.531 59.6476C255.778 58.4845 256.046 57.2746 256.754 56.3662C257.463 55.4577 258.756 54.978 259.67 55.6275C260.708 56.3662 260.751 58.0727 261.637 59.0236C262.412 59.8386 263.573 59.9023 264.627 60.0084C266.521 60.1974 268.381 60.6776 270.153 61.4348C270.498 61.5522 270.813 61.7589 271.07 62.0376C271.554 62.6404 271.458 63.5658 271.698 64.3172C272.027 65.2851 272.937 65.9006 273.289 66.8643C273.677 67.934 273.289 69.1311 272.964 70.2306C272.379 72.2046 272.011 74.2549 271.442 76.2374C270.873 78.2198 270.064 80.1726 268.732 81.6668C268.143 82.3291 267.268 82.9404 266.493 82.5456L266.195 84.9016C266.108 85.3994 266.108 85.9108 266.195 86.4086C266.24 86.6577 266.348 86.8878 266.507 87.0725C266.666 87.2572 266.869 87.3891 267.093 87.4529C267.152 87.818 267.504 87.992 267.791 88.1915C268.002 88.3501 268.183 88.5531 268.322 88.7889C268.462 89.0246 268.557 89.2883 268.603 89.5647C268.648 89.8411 268.644 90.1247 268.589 90.3991C268.534 90.6735 268.43 90.9332 268.282 91.1631C268.038 91.5239 267.678 91.8083 267.562 92.2371C267.388 92.8569 267.802 93.5106 268.306 93.8502C268.809 94.1898 269.401 94.3469 269.913 94.6738C270.974 95.3445 271.543 96.6647 271.907 97.9467C272.178 98.9146 272.403 99.9631 273.069 100.668C273.324 100.935 273.63 101.139 273.874 101.419C274.296 101.966 274.54 102.652 274.567 103.368C274.673 104.255 274.495 105.155 274.064 105.915C273.289 107.129 271.845 107.49 270.579 108.037C268.522 108.963 266.83 110.618 265.018 112.028C264.28 112.679 263.41 113.128 262.481 113.335C261.227 113.518 259.992 112.911 258.729 112.855C257.974 112.863 257.222 112.971 256.491 113.178L254.167 113.73C254.291 111.756 253.3 109.778 252.746 107.897C251.701 104.357 251.507 100.57 251.755 96.86C252.003 93.1498 252.692 89.4905 253.374 85.8483C253.85 83.3012 253.803 80.6395 254.535 78.1647C255.221 75.7832 256.2 73.4951 256.561 71.0159C257.149 67.0043 254.702 63.604 255.531 59.6476Z" fill="#4E886C"/>
<path d="M273.146 67.4968C273.36 67.9281 273.51 68.3937 273.591 68.8764C273.77 69.6242 274.106 70.316 274.571 70.8971C274.961 71.2738 275.307 71.7015 275.601 72.1706C275.957 72.9092 275.822 73.8092 275.988 74.6158C276.182 75.4945 276.743 76.2586 276.825 77.1628C276.827 77.4219 276.849 77.6803 276.891 77.9354C277.142 78.9627 278.521 79.2089 278.827 80.2363C279.032 80.9027 278.68 81.6286 278.746 82.3291C278.794 82.5457 278.805 82.7701 278.78 82.9913C278.693 83.2415 278.539 83.4573 278.339 83.6111C277.057 84.9532 276.17 86.684 275.791 88.5821C275.418 90.4697 275.222 92.3943 275.206 94.3257L273.692 92.131C273.532 91.8647 273.327 91.6342 273.088 91.4517C272.894 91.3244 272.67 91.2607 272.472 91.1334C271.899 90.7768 271.675 90.0212 271.454 89.3419C270.841 87.4618 269.922 85.7187 268.743 84.1969C268.127 83.4031 267.411 82.605 267.276 81.5735C267.235 81.0996 267.258 80.6219 267.345 80.1556C267.732 77.3751 268.147 74.5266 269.382 72.0602C269.959 70.9056 270.706 69.8613 271.26 68.6896C271.632 67.9128 272.155 65.8921 273.146 67.4968Z" fill="#4E886C"/>
<path d="M234.945 70.1669C234.952 70.5243 234.869 70.8769 234.705 71.1857C234.557 71.3738 234.364 71.513 234.148 71.588C233.932 71.6629 233.701 71.6706 233.481 71.6102C233.04 71.4889 232.625 71.2756 232.258 70.982C231.179 70.2348 230.099 69.4863 229.02 68.7363C228.418 68.3383 227.837 67.9017 227.282 67.4288C226.432 66.6428 225.662 65.759 224.985 64.7926C223.103 62.2456 221.438 59.482 219.343 57.1515C218.774 56.5147 218.181 55.9034 217.632 55.237C216.88 54.2736 216.189 53.2552 215.564 52.189C214.96 51.2084 214.332 50.1216 214.437 48.95C214.499 48.2878 214.789 47.6765 214.874 47.0185C214.96 46.3605 214.731 45.5582 214.15 45.3799C214.082 45.361 214.012 45.3482 213.941 45.3417C213.827 45.3284 213.714 45.3013 213.604 45.261C213.066 45.0148 213.147 44.1021 213.535 43.6224C213.922 43.1427 214.495 42.8753 214.847 42.3489C215.011 42.0366 215.195 41.7372 215.397 41.4532C215.657 41.2095 215.966 41.039 216.299 40.9565C218.533 40.2349 220.896 40.1371 223.173 40.6721C223.56 40.7655 224.002 40.9353 224.118 41.3471C224.164 41.5477 224.164 41.7578 224.118 41.9584C223.947 42.7954 223.849 43.6481 223.824 44.5054C223.823 44.6841 223.832 44.8627 223.851 45.0403C224.033 46.8402 225.098 48.3642 226.135 49.7693C227.367 51.4419 228.618 53.1017 229.872 54.7573C230.551 55.7167 231.309 56.6049 232.138 57.4104C232.912 58.1151 233.915 58.684 234.519 59.5882C235.011 60.3183 234.852 61.3159 234.906 62.1947C235.086 64.8479 235.099 67.5117 234.945 70.1669Z" fill="#4E886C"/>
<path d="M284.124 87.8774C284.507 87.4698 284.852 87.0219 285.154 86.5402C285.48 85.9433 285.74 85.3064 285.929 84.6426L288.175 77.6595C288.531 76.5558 288.887 75.4478 289.336 74.3738C289.801 73.2149 290.351 72.0984 290.858 70.9777C292.163 68.0284 293.172 64.9326 293.867 61.7447C293.989 61.3066 294.03 60.8462 293.987 60.3905C293.879 59.6561 293.371 59.083 292.887 58.5609C292.401 57.9845 291.846 57.482 291.238 57.0666C290.932 56.8584 290.592 56.7189 290.237 56.6563C289.882 56.5936 289.519 56.609 289.17 56.7015C288.179 57.0199 287.555 58.1321 287.327 59.2486C287.098 60.365 287.183 61.507 287.087 62.6446C286.947 64.2747 286.436 65.8497 286.312 67.484C286.246 68.4307 286.312 69.3858 286.208 70.3282C286.017 71.5658 285.623 72.7552 285.046 73.8389C283.788 76.4204 282.088 78.712 280.039 80.5886C279.478 81.0428 278.973 81.5751 278.536 82.172C278.172 82.7691 277.926 83.4428 277.812 84.1502C277.555 85.2274 277.667 86.3706 278.126 87.3637C278.757 88.5439 279.969 89.0618 281.127 89.325C282.691 89.6815 283.052 89.0957 284.124 87.8774Z" fill="#BE6F72"/>
<path d="M254.098 34.2535C254.431 33.5668 254.942 33.0029 255.566 32.6322C256.19 32.2615 256.899 32.1005 257.606 32.1692C258.318 32.3074 258.981 32.6614 259.519 33.1911C260.056 33.7208 260.448 34.405 260.65 35.1662C260.832 35.7987 260.905 36.4992 261.223 37.0426C261.703 37.8619 262.594 38.0996 263.26 38.6939C263.658 39.0989 263.978 39.5869 264.201 40.1292C264.424 40.6715 264.547 41.2573 264.561 41.8522C264.598 43.0673 264.423 44.2791 264.046 45.4223C263.886 45.9102 263.757 46.4094 263.659 46.9166C263.581 47.409 263.574 47.91 263.504 48.4024C263.418 49.0409 263.217 49.6541 262.911 50.206C262.606 50.7579 262.203 51.2373 261.726 51.6159C261.591 51.7373 261.421 51.8046 261.246 51.8069C260.944 51.7687 260.758 51.3824 260.646 51.0343C260.03 49.0858 260.177 46.7044 259.043 45.1507C258.527 44.5239 257.903 44.0147 257.207 43.6521C256.924 43.4516 256.604 43.3198 256.27 43.2658C255.779 43.2948 255.307 43.484 254.915 43.8092C254.098 44.4102 253.191 44.8498 252.235 45.1082C251.758 45.232 251.262 45.2376 250.783 45.1245C250.304 45.0114 249.854 44.7825 249.466 44.4545C248.932 43.9705 248.541 43.2446 247.948 42.8668C247.356 42.489 246.736 42.5102 246.152 42.2513C245.779 42.0775 245.448 41.8128 245.182 41.4773C244.917 41.1418 244.725 40.7444 244.621 40.3153C244.518 39.8862 244.505 39.4368 244.583 39.0013C244.662 38.5659 244.83 38.1558 245.075 37.8024C245.462 37.293 246.036 37.0043 246.38 36.4397C246.825 35.7096 246.787 34.7077 247 33.8333C247.126 33.28 247.37 32.7677 247.713 32.3387C248.056 31.9098 248.487 31.5766 248.971 31.3669C249.44 31.1922 249.943 31.1588 250.428 31.27C250.913 31.3813 251.362 31.6332 251.728 31.9994C252.115 32.3815 252.425 32.8739 252.804 33.2729C253.179 33.6661 253.638 33.9498 254.138 34.0982C254.639 34.2465 255.166 34.2547 255.67 34.1219" fill="#292426"/>
<path opacity="0.1" d="M260.464 96.7369C260.239 96.957 260.079 97.2464 260.006 97.5675C259.932 97.8885 259.949 98.2263 260.054 98.5368C260.139 98.7363 264.135 97.8915 264.557 97.8279C265.61 97.6623 267.457 97.743 268.166 96.686C269.429 94.8139 265.517 95.2299 264.801 95.2978C263.438 95.4251 261.502 95.6289 260.464 96.7369Z" fill="black"/>
<path d="M224.11 41.9753C223.939 42.8123 223.841 43.6651 223.816 44.5224C222.654 44.7813 221.446 44.3568 220.331 43.9323L217.128 42.7352C216.933 42.5987 216.699 42.5487 216.471 42.5952C216.244 42.6417 216.041 42.7813 215.905 42.9857C215.39 43.5715 214.681 44.6837 213.968 45.3417C213.854 45.3283 213.741 45.3013 213.631 45.261C213.093 45.0148 213.175 44.1021 213.562 43.6224C213.949 43.1427 214.522 42.8753 214.875 42.3489C215.038 42.0366 215.222 41.7372 215.424 41.4532C215.684 41.2095 215.993 41.039 216.327 40.9565C218.56 40.2349 220.923 40.1371 223.2 40.6721C223.587 40.7655 224.029 40.9353 224.145 41.3471C224.183 41.5563 224.171 41.7727 224.11 41.9753Z" fill="#292426"/>
<path opacity="0.1" d="M253.405 122.568C253.962 122.772 254.566 123.069 254.756 123.68L250.272 122.432L247.948 121.783C247.538 121.668 246.066 121.537 245.795 121.184C245.408 120.666 246.783 121.023 247.031 121.061C247.782 121.184 248.533 121.312 249.281 121.46C250.69 121.736 252.045 122.19 253.405 122.568Z" fill="black"/>
<path opacity="0.1" d="M255.143 126.919C254.756 126.635 253.645 126.669 253.168 126.546C252.471 126.363 251.786 126.121 251.101 125.888C249.71 125.391 248.332 124.827 246.903 124.462C246.64 124.398 245.741 124.381 245.784 124.016C245.826 123.651 246.682 123.523 246.895 123.506C248.161 123.404 249.741 124.054 250.919 124.517C252.419 125.106 253.84 125.914 255.143 126.919Z" fill="black"/>
<path opacity="0.1" d="M252.301 118.688C250.88 118.264 249.59 117.296 248.127 117.109C247.745 117.125 247.37 116.999 247.062 116.752C246.89 116.567 246.77 116.331 246.717 116.073C247.697 116.018 248.835 116.472 249.726 116.901C250.216 117.132 250.688 117.407 251.135 117.725C251.461 117.941 251.949 118.565 252.301 118.688Z" fill="black"/>
<path d="M279.392 80.6777C279.152 82.4426 279.5 84.2434 280.371 85.7503C281.243 87.2572 282.581 88.3694 284.14 88.8835C283.95 89.8896 283.001 90.4457 282.331 91.1631C281.386 92.1692 280.899 93.6762 279.783 94.4403C278.54 95.2893 276.941 94.9582 275.524 94.6016C275.395 94.5858 275.276 94.5176 275.191 94.4106C275.161 94.3597 275.141 94.3037 275.129 94.245C274.66 92.3645 274.354 90.3565 274.834 88.4717C275.222 86.8671 276.151 85.5002 276.894 84.0823C277.638 82.6644 277.708 81.1447 279.392 80.6777Z" fill="#4E886C"/>
<path d="M244.769 56.3364C243.27 56.456 241.815 56.9419 240.51 57.7585C239.642 58.3019 238.752 59.0321 237.76 58.9005C237.176 58.8283 236.599 58.476 236.029 58.6458C235.709 58.7876 235.41 58.9823 235.143 59.2231C235.007 59.3413 234.846 59.4191 234.675 59.4489C234.504 59.4786 234.329 59.4593 234.167 59.3929L233.779 65.2681C233.632 67.501 233.489 69.7806 233.977 71.9583C234.229 73.0706 234.782 74.0809 234.844 75.2101C234.906 76.3393 234.813 77.4982 234.887 78.6401C234.957 79.6971 235.17 80.7372 235.224 81.7942C235.332 83.7894 234.883 85.7676 234.449 87.7076C233.795 90.5688 233.4 93.4936 232.126 96.0831C231.77 96.8006 231.351 97.5307 231.351 98.3458C231.351 98.4476 231.351 98.5453 231.375 98.6429C230.987 98.8764 230.627 99.0971 230.298 99.3264C229.562 99.8485 228.776 100.43 228.474 101.334C228.23 102.069 228.343 102.909 228.048 103.618C227.754 104.327 227.08 104.832 226.933 105.596C226.829 106.152 227.03 106.738 226.933 107.294C226.845 107.582 226.774 107.876 226.72 108.173C226.681 108.81 227.173 109.324 227.661 109.672C228.373 110.186 229.158 110.565 229.985 110.792L232.296 100.732C234.404 96.4593 236.158 91.9883 237.536 87.3722C237.93 85.8634 238.436 84.3925 239.05 82.9743C239.488 82.1721 239.876 81.3381 240.211 80.4782C240.564 79.4085 240.599 78.2495 240.769 77.1204C240.971 75.8024 241.276 74.5058 241.679 73.2446C242.097 71.8819 242.581 70.5235 242.667 69.0929C242.794 67.0468 242.117 64.886 242.837 62.9927C243.143 62.2841 243.541 61.6278 244.018 61.0442C245.017 59.7028 245.927 58.2977 246.926 56.9562C246.407 56.3492 245.544 56.2855 244.769 56.3364Z" fill="#4E886C"/>
<g opacity="0.1">
<path opacity="0.1" d="M255.682 32.8569L255.198 32.8951L255.143 32.9376C255.325 32.9295 255.505 32.9025 255.682 32.8569Z" fill="black"/>
<path opacity="0.1" d="M264.542 41.6697C264.461 42.5137 264.295 43.3452 264.046 44.1488C263.886 44.6366 263.757 45.1359 263.659 45.6431C263.581 46.1355 263.574 46.6364 263.504 47.1289C263.418 47.7674 263.217 48.3806 262.911 48.9325C262.606 49.4844 262.203 49.9637 261.726 50.3424C261.591 50.4638 261.421 50.5311 261.246 50.5334C260.944 50.4952 260.758 50.1089 260.646 49.7608C260.03 47.8123 260.177 45.4308 259.043 43.8771C258.527 43.2504 257.903 42.7412 257.207 42.3786C256.924 42.178 256.604 42.0463 256.27 41.9923C255.779 42.0213 255.307 42.2105 254.915 42.5357C254.098 43.1367 253.191 43.5763 252.235 43.8347C251.758 43.9585 251.262 43.9641 250.783 43.851C250.304 43.7379 249.854 43.509 249.466 43.1809C248.932 42.697 248.541 41.9711 247.948 41.5933C247.356 41.2155 246.736 41.2367 246.152 40.9777C245.786 40.8067 245.461 40.5477 245.2 40.22C244.938 39.8922 244.747 39.5041 244.641 39.0844C244.628 39.0315 244.617 38.9776 244.61 38.9231C244.514 39.397 244.524 39.8896 244.641 40.358C244.747 40.7776 244.938 41.1657 245.2 41.4935C245.461 41.8212 245.786 42.0802 246.152 42.2513C246.736 42.5102 247.395 42.5145 247.948 42.8668C248.502 43.2191 248.932 43.9705 249.466 44.4545C249.854 44.7825 250.304 45.0114 250.783 45.1245C251.262 45.2376 251.758 45.232 252.235 45.1082C253.191 44.8498 254.098 44.4102 254.915 43.8092C255.307 43.484 255.779 43.2948 256.27 43.2658C256.604 43.3198 256.924 43.4516 257.207 43.6521C257.894 44.0218 258.509 44.5352 259.016 45.1634C260.15 46.7171 260.003 49.0986 260.619 51.0471C260.731 51.3994 260.917 51.7815 261.219 51.8197C261.405 51.8207 261.585 51.7484 261.726 51.6159C262.205 51.2362 262.61 50.755 262.916 50.2008C263.222 49.6466 263.423 49.0307 263.508 48.3896C263.577 47.8972 263.585 47.3963 263.663 46.9039C263.76 46.3967 263.89 45.8974 264.05 45.4096C264.427 44.2663 264.602 43.0546 264.565 41.8395C264.557 41.7886 264.549 41.7291 264.542 41.6697Z" fill="black"/>
</g>
<path d="M240.041 75.7322L239.778 79.608C239.739 80.1344 238.821 92.6658 232.052 107.311C226.244 119.873 214.94 136.233 193.6 145.428C191.935 146.15 190.206 146.823 188.415 147.449L186.416 140.572C191.433 138.841 196.265 136.524 200.829 133.661C211.707 126.775 220.164 116.948 226.062 104.302C229.191 97.5686 231.421 90.3775 232.684 82.9488H208.404V75.7322H240.041Z" fill="#FDEF25"/>
<path opacity="0.1" d="M190.986 145.432C212.323 136.237 223.63 119.881 229.435 107.32C236.204 92.6743 237.125 80.1513 237.16 79.6165L237.423 75.7407H240.134L239.871 79.6165C239.836 80.1429 238.914 92.6743 232.145 107.32C226.337 119.881 215.033 136.237 193.696 145.432C192.031 146.154 190.302 146.829 188.507 147.457L188.244 146.553C189.179 146.188 190.093 145.814 190.986 145.432Z" fill="white"/>
<path d="M148.266 140.572L146.268 147.449C144.473 146.82 142.744 146.145 141.079 145.424C119.742 136.229 108.434 119.873 102.63 107.311C95.8609 92.6658 94.9392 80.1428 94.9044 79.608L94.6411 75.7322H126.263V82.9488H101.979C103.249 90.3784 105.485 97.5694 108.62 104.302C114.518 116.948 122.971 126.775 133.849 133.656C138.414 136.523 143.247 138.841 148.266 140.572Z" fill="#FDEF25"/>
<path opacity="0.1" d="M143.689 145.432C122.352 136.237 111.044 119.881 105.24 107.32C98.4709 92.6743 97.5492 80.1513 97.5144 79.6165L97.2511 75.7407H94.5404L94.8037 79.6165C94.8386 80.1429 95.7602 92.6743 102.529 107.32C108.338 119.881 119.641 136.237 140.978 145.432C142.643 146.154 144.373 146.829 146.167 147.457L146.43 146.553C145.498 146.188 144.584 145.814 143.689 145.432Z" fill="white"/>
<path d="M203.869 207.05V245.964H130.809V207.05L133.133 203.653C156.808 194.442 161.606 170.419 162.563 160.914C162.705 159.601 162.786 158.28 162.807 156.958H171.841C171.861 158.28 171.942 159.601 172.085 160.914C173.057 170.419 177.855 194.45 201.515 203.653L203.869 207.05Z" fill="#FDEF25"/>
<path opacity="0.1" d="M203.869 207.05H130.809V211.931H203.869V207.05Z" fill="black"/>
<path opacity="0.1" d="M137.005 203.653C160.681 194.442 165.478 170.419 166.435 160.914C166.577 159.601 166.659 158.28 166.679 156.958H162.807C162.786 158.28 162.705 159.601 162.563 160.914C161.591 170.419 156.793 194.45 133.133 203.653L130.809 207.05V245.964H134.681V207.05L137.005 203.653Z" fill="white"/>
<path opacity="0.1" d="M119.711 75.7322H126.263V82.9488H120.292C120.057 80.5716 119.863 78.1661 119.711 75.7322Z" fill="black"/>
<path opacity="0.1" d="M148.266 140.572L146.268 147.449C144.473 146.82 142.744 146.145 141.079 145.424C138.339 141.757 135.919 137.817 133.849 133.656C138.414 136.523 143.247 138.841 148.266 140.572Z" fill="black"/>
<path opacity="0.1" d="M186.413 140.572C191.429 138.841 196.261 136.524 200.826 133.661C198.754 137.822 196.334 141.763 193.596 145.432C191.931 146.154 190.202 146.827 188.411 147.453L186.413 140.572Z" fill="black"/>
<path opacity="0.1" d="M214.964 75.7322C214.811 78.1661 214.618 80.5716 214.383 82.9488H208.415V75.7322H214.964Z" fill="black"/>
<path opacity="0.1" d="M172.1 160.914C168.955 161.582 165.723 161.582 162.578 160.914C162.72 159.601 162.802 158.28 162.822 156.958H171.856C171.876 158.28 171.958 159.601 172.1 160.914Z" fill="black"/>
<path d="M120.485 63.7781C120.652 117.292 141.563 160.566 167.341 160.566C193.119 160.566 214.026 117.292 214.197 63.7781H120.485Z" fill="#FDEF25"/>
<path opacity="0.1" d="M128.811 63.7781H120.485C120.652 117.292 141.563 160.566 167.341 160.566C168.736 160.563 170.128 160.434 171.504 160.18C147.673 155.816 128.97 114.379 128.811 63.7781Z" fill="white"/>
<path d="M192.186 221.946H142.492V235.954H192.186V221.946Z" fill="#292426"/>
<path opacity="0.1" d="M144.815 223.856H192.186V221.946H142.492V235.954H144.815V223.856Z" fill="white"/>
<path d="M93.9828 115.445C93.0883 115.118 87.8218 110.55 87.423 108.483C87.0241 106.416 90.2072 87.1557 90.2072 87.1557C90.2072 87.1557 89.9129 87.1557 89.4328 87.092V86.7821L90.0872 61.4815C90.0872 61.4815 92.7707 44.5011 87.7018 45.4902C82.6329 46.4794 85.8121 61.4815 85.8121 61.4815C85.8121 61.4815 85.2351 69.0971 84.8285 71.381C84.4412 73.5842 82.6677 82.5583 83.8759 85.3473C83.9201 85.4464 83.9692 85.5427 84.023 85.636C84.023 85.636 84.2244 95.2086 82.0365 96.5161C79.9493 97.7599 79.0819 104.021 79.0083 104.582L78.896 104.531C78.2728 104.103 77.7257 103.555 77.2812 102.913C77.2348 102.85 77.1999 102.782 77.1573 102.714C78.582 100.957 79.3499 98.6753 79.3075 96.3249C79.2652 93.9744 78.4158 91.7279 76.9288 90.0339C76.2375 89.2466 75.4264 88.5974 74.5318 88.1151C74.5058 87.304 74.3306 86.5069 74.0168 85.7718C73.01 83.4115 67.4338 80.3254 63.4723 80.2532C61.6446 80.1938 60.146 80.7626 59.5999 82.3291C59.3211 83.1229 59.4063 84.0271 59.2902 84.8506C59.0578 86.5487 58.0626 87.8774 56.7847 88.9344C56.2687 88.3029 55.7109 87.7141 55.1157 87.1727C53.8224 86.0859 51.2434 82.5031 51.2434 82.5031C51.2434 82.5031 43.1927 73.3634 42.5963 70.8588C42 68.3542 33.9571 53.3139 32.168 55.9331C30.379 58.5524 38.329 69.9674 38.329 69.9674C38.329 69.9674 39.8392 74.1148 41.0009 75.5157C42.1626 76.9166 51.0691 91.0951 51.0691 91.0951L51.4951 92.063C49.6131 93.1498 47.8937 94.5336 47.2858 96.6902C46.3951 99.8655 48.3429 103.058 49.6905 106.029C52.316 111.828 52.6916 119.223 49.3033 124.521C46.2673 129.199 41.0009 131.423 36.0714 133.368C38.4521 135.417 41.4096 136.493 44.4357 136.411C43.2972 140.028 39.2622 141.225 35.8235 141.896C37.6281 143.798 40.2109 144.49 42.6893 144.91C43.9031 145.137 45.133 145.243 46.3642 145.228H46.6662L46.9682 145.203C47.388 145.172 47.8057 145.114 48.219 145.029C50.0081 144.63 51.7468 143.56 52.6606 141.828C53.4351 140.347 53.7062 138.326 55.1119 137.583C55.4779 137.402 55.8723 137.3 56.2736 137.282H56.231C56.4943 137.282 56.7654 137.282 57.0287 137.282L62.8876 137.345C63.1315 137.345 63.3833 137.345 63.635 137.345C65.2885 137.303 67.0543 136.989 67.8946 135.49C68.2403 134.762 68.4222 133.955 68.4251 133.134C68.549 131.101 68.4251 129.008 68.4754 126.958C68.975 130.689 69.4977 136.505 68.2547 138.653C67.2449 140.28 66.0208 141.735 64.6224 142.97C64.2707 143.294 63.949 143.655 63.6621 144.048C63.4723 144.197 63.36 144.278 63.36 144.278L63.24 144.672C62.7986 145.406 62.4788 146.219 62.2951 147.075C62.2275 147.295 62.2025 147.528 62.2215 147.758C62.3571 148.06 61.2535 149.304 61.5749 149.826C58.8177 153.37 58.295 158.74 58.295 158.74L53.2609 167.12C50.6741 174.57 46.8017 175.335 46.8017 175.335C46.8017 175.335 37.7055 168.644 37.4577 168.317C37.2099 167.991 33.7325 166.356 33.7325 166.356C33.3225 165.568 32.6965 164.941 31.9434 164.565C30.7507 164.021 30.65 162.018 30.65 162.018C30.5029 157.284 27.9665 156.924 27.9665 156.924C25.9219 156.733 24.3613 157.132 23.1609 157.862L22.7969 157.891C21.0388 158.049 18.9245 158.223 16.6011 158.392C10.1381 158.859 8.60072 163.448 8.60072 163.448C8.60072 163.448 7.80688 164.429 8.84855 165.49C9.89022 166.551 16.5585 165.49 16.8411 165.465C16.3329 165.525 15.819 165.486 15.3232 165.35C16.3726 165.308 17.817 165.265 19.0484 165.265H19.3466C19.2691 165.981 19.2315 166.701 19.2343 167.422C19.2343 168.78 22.6613 169.65 22.6613 169.65L33.0974 179.839C33.0974 179.839 39.6572 183.052 43.8316 187.675C48.006 192.298 51.6964 188.307 51.6964 188.307C56.1148 187.11 68.8278 170.262 68.8394 170.245C68.8394 170.737 69.1066 187.123 69.6139 190.413C69.6341 190.58 69.6718 190.744 69.7262 190.901C70.3226 192.315 69.5248 196.178 69.1802 197.808C68.9604 199.172 68.876 200.559 68.9285 201.943C68.9285 201.943 64.1616 221.895 64.5566 223.648C64.9516 225.401 61.9737 233.547 61.9737 233.547V240.339L62.4926 240.31C62.4251 240.419 62.3631 240.533 62.3067 240.649L62.2719 240.721C62.2719 240.721 65.4511 241.481 67.5887 241.265C69.7262 241.048 73.3972 243.069 73.3972 243.069C73.3972 243.069 74.6403 243.714 78.4662 243.986C82.2921 244.258 82.2921 242.135 82.2921 242.135C81.8545 239.244 75.8097 238.276 75.6238 238.247C75.1359 237.911 74.679 237.546 74.3034 237.232L74.2259 237.164C74.2512 237.1 74.2732 237.035 74.2917 236.969C74.9384 234.082 71.3604 232.83 71.3604 232.83V232.125C73.6838 230.818 74.1446 221.844 74.1446 221.844C74.1446 221.844 77.6297 210.747 78.1177 208.896C78.6056 207.045 78.1177 204.273 78.1177 204.273L78.4662 201.879C78.4662 201.879 79.2135 200.249 79.2135 199.922C79.3103 199.094 79.6011 198.307 80.0577 197.638C80.6037 196.929 79.4614 195.244 79.4614 195.244L80.4566 192.417V189.314L82.78 178.056C82.78 178.056 85.2157 164.943 84.3716 160.651C83.5274 156.359 85.3668 154.177 85.3668 154.177C85.201 154.273 85.0303 154.358 84.8556 154.432C85.0881 153.842 85.2886 153.239 85.4558 152.623L90.6835 153.332V153.417H92.5694C92.5694 153.417 91.973 145.352 91.973 142.1C91.973 138.848 93.9828 127.178 93.9828 127.178C93.9828 127.178 94.8773 115.772 93.9828 115.445ZM70.7756 106.029C70.7756 106.348 70.7485 106.679 70.7292 107.018L70.6246 107.192L70.431 107.014L70.1948 107.417L70.1251 107.456C69.6139 107.167 69.3506 105.516 68.9827 105.872L68.9324 105.919C68.8511 105.817 68.7697 105.787 68.6845 105.872L68.6071 105.944C68.6071 105.821 68.6071 105.694 68.6071 105.567C69.3155 105.766 70.0441 105.868 70.7756 105.868C70.7795 105.923 70.7756 105.978 70.7756 106.029ZM88.1626 143.59H88.2749L88.089 144.125C88.1123 143.946 88.1355 143.772 88.1626 143.59ZM69.0757 239.855L68.3631 239.66L68.7504 239.588L69.1105 239.847L69.1531 239.881L69.0757 239.855ZM76.3557 238.714C76.1195 238.578 75.8794 238.421 75.6471 238.259C75.7245 238.306 76.0304 238.48 76.3557 238.714Z" fill="url(#paint1_linear)"/>
<path d="M90.7338 135.571L86.0444 148.968H87.1829L82.7722 152.823L90.7338 153.91V135.571Z" fill="#292426"/>
<path d="M83.3802 144.142H90.7338L93.4329 119.796H83.3802V144.142Z" fill="#292426"/>
<path d="M69.0175 125.561L70.6052 125.268L74.253 124.589C74.253 124.589 85.2079 121.88 87.4694 121.66C88.8394 121.461 90.1754 121.044 91.4347 120.42C92.0272 120.14 92.4028 119.928 92.4028 119.928L88.4568 112.028L82.3346 107.052C82.3346 107.052 78.4622 106.148 76.8242 103.678C76.4587 103.146 76.2207 102.522 76.132 101.864C76.0434 101.205 76.107 100.533 76.3169 99.9079C77.316 96.5119 70.3496 103.155 70.3496 103.155C70.3496 103.155 70.4154 104.747 70.3496 106.776C70.3496 107.176 70.3148 107.592 70.2877 108.016C70.2877 108.296 70.2528 108.576 70.2257 108.865C70.0553 110.881 69.7068 112.957 69.0175 114.197C67.333 117.228 69.0175 125.561 69.0175 125.561Z" fill="#FBBEBE"/>
<path opacity="0.1" d="M70.3496 106.946H70.5045C70.7833 106.946 71.0079 106.297 71.279 106.267C73.4591 106.038 75.4495 105.537 76.832 103.843C76.4674 103.312 76.23 102.689 76.1413 102.031C76.0527 101.373 76.1158 100.702 76.3247 100.078C77.3238 96.6817 70.3573 103.321 70.3573 103.321C70.3573 103.321 70.4309 104.917 70.3496 106.946Z" fill="black"/>
<path d="M61.8691 97.3184C61.8686 98.5406 62.0878 99.7508 62.5142 100.88C62.9406 102.009 63.5658 103.035 64.3542 103.899C65.1425 104.764 66.0784 105.449 67.1085 105.916C68.1385 106.384 69.2426 106.624 70.3574 106.624C70.6362 106.624 70.9112 106.624 71.1861 106.581C72.8217 106.405 74.3755 105.713 75.6589 104.588C76.9424 103.462 77.9003 101.953 78.4163 100.242C78.9324 98.5319 78.9844 96.694 78.5661 94.9518C78.1477 93.2096 77.277 91.6379 76.0597 90.4276C74.8423 89.2174 73.3307 88.4205 71.7082 88.1338C70.0857 87.8471 68.4222 88.0829 66.9196 88.8125C65.417 89.5422 64.1399 90.7343 63.2434 92.2442C62.3469 93.7541 61.8695 95.5169 61.8691 97.3184Z" fill="#FBBEBE"/>
<path d="M59.263 83.1951C58.9842 83.9847 59.0694 84.8676 58.9571 85.7039C58.5427 88.7222 55.743 90.5306 53.2105 91.7956C50.6779 93.0606 47.8201 94.5592 47.0147 97.4755C46.1318 100.63 48.0602 103.792 49.4 106.751C52.01 112.516 52.3818 119.868 49.0128 125.141C46.0195 129.81 40.8034 132.026 35.8932 133.97C38.2564 136.009 41.1935 137.08 44.1994 137.001C43.0726 140.597 39.0647 141.79 35.6492 142.452C37.4421 144.345 40.0095 145.033 42.4685 145.449C44.2614 145.755 46.1008 145.954 47.8898 145.56C49.6789 145.165 51.375 144.099 52.2966 142.376C53.0711 140.903 53.3344 138.895 54.7323 138.152C55.3633 137.88 56.0431 137.771 56.7188 137.834L62.5274 137.901C64.3358 137.901 66.4772 137.749 67.4105 136.055C67.7547 135.331 67.9353 134.528 67.9371 133.712C68.1888 129.534 67.4569 125.12 69.0253 121.307C69.4977 120.157 66.4656 118.336 66.7831 117.118C67.8752 112.928 68.1501 109.629 68.1385 105.27C68.1385 101.895 70.1405 98.9868 71.794 96.1383C73.4475 93.2899 74.8299 89.6943 73.525 86.6378C72.0535 83.229 61.0017 78.275 59.263 83.1951Z" fill="#292426"/>
<path d="M66.9962 238.633L68.4754 239.707L68.7039 239.872L68.7465 239.902L70.5006 241.176L74.5976 241.931L78.1989 241.66C78.1989 241.66 79.2367 239.282 77.6065 239.338C77.0843 239.308 76.5754 239.147 76.1195 238.866L75.8949 238.743C75.6586 238.607 75.4224 238.455 75.1901 238.293C74.7061 237.958 74.2491 237.593 73.8812 237.283C73.3391 236.825 72.979 236.476 72.979 236.476L66.9962 238.633Z" fill="#FBBEBE"/>
<path opacity="0.1" d="M68.4948 239.707L68.7232 239.872L68.7658 239.902L70.52 241.176L74.617 241.931L78.2183 241.66C78.2183 241.66 79.2561 239.282 77.6258 239.338C77.1036 239.308 76.5947 239.147 76.1388 238.866C76.4254 239.113 76.6655 239.38 76.6887 239.605C76.7545 240.212 74.0245 241.303 74.0245 241.303L70.1754 240.187C70.1754 240.187 69.5209 239.983 68.6264 239.728L68.5412 239.703L68.4948 239.707Z" fill="black"/>
<path d="M61.9117 240.743C61.9117 240.743 65.0677 241.498 67.1897 241.282C69.3118 241.065 72.9673 243.069 72.9673 243.069C72.9673 243.069 74.2026 243.706 78.0014 243.978C81.8002 244.249 81.8002 242.135 81.8002 242.135C81.3665 239.261 75.3643 238.315 75.1785 238.272C75.252 238.315 75.5657 238.489 75.8832 238.722C76.3092 239.028 76.77 239.427 76.8049 239.749C76.8707 240.352 74.1407 241.447 74.1407 241.447L70.2915 240.335C70.2915 240.335 69.6371 240.127 68.7426 239.873H68.6574C67.331 239.476 65.9834 239.172 64.6223 238.96C62.965 238.765 62.1169 240.31 61.9427 240.658C61.93 240.685 61.9196 240.714 61.9117 240.743Z" fill="#292426"/>
<path d="M12.1672 164.403L13.8439 165.813C13.8439 165.813 14.3318 165.787 15.0598 165.762H15.2922C16.3339 165.719 17.7705 165.677 18.9903 165.677C19.7788 165.638 20.5689 165.686 21.3486 165.821C22.185 166.144 23.672 160.574 23.672 160.574L21.9914 160.15L21.4338 160.006L21.0465 159.904L19.6796 159.551L15.5361 160.069L12.6241 162.124L12.1672 164.403Z" fill="#FBBEBE"/>
<path opacity="0.1" d="M12.1672 164.403L13.8439 165.813C13.8439 165.813 14.3318 165.787 15.0598 165.762C14.7258 165.621 14.4503 165.35 14.2854 165.002C13.2011 161.704 18.5798 160.294 18.5798 160.294L21.0853 160.175L21.5732 160.15H21.9604L21.4028 160.006L21.0156 159.904L19.6486 159.551L15.5052 160.069L12.5931 162.124L12.1672 164.403Z" fill="black"/>
<path d="M8.86011 165.893C9.87467 166.921 16.5197 165.893 16.7985 165.868C16.2942 165.93 15.7838 165.891 15.2921 165.753C15.0487 165.706 14.8181 165.599 14.6172 165.441C14.4162 165.283 14.2499 165.078 14.1304 164.841C13.0462 161.538 18.4249 160.133 18.4249 160.133L20.9303 160.014L21.4144 159.989L27.5056 159.7L27.7999 157.862C27.7999 157.862 25.8211 158.066 22.7155 158.337C20.969 158.494 18.8431 158.668 16.5468 158.834C10.1303 159.301 8.60453 163.864 8.60453 163.864C8.60453 163.864 7.82618 164.841 8.86011 165.893Z" fill="#292426"/>
<path d="M83.384 86.2133C83.4253 86.3141 83.4745 86.4107 83.5312 86.502L85.0104 88.8792L88.8596 89.3037L88.9022 87.6312L89.5488 62.4663C89.5488 62.4663 92.213 45.5879 87.179 46.56C82.1449 47.5322 85.3047 62.4663 85.3047 62.4663C85.3047 62.4663 84.7316 70.0396 84.3289 72.3149C83.9378 74.5139 82.1836 83.454 83.384 86.2133Z" fill="#FBBEBE"/>
<path d="M74.7448 148.718L75.8406 150.773L78.2918 155.37C78.2918 155.37 82.7373 157.157 83.8758 155.794C84.4993 155.052 85.1731 152.458 85.6455 150.276C86.0327 148.51 86.2922 147.02 86.2922 147.02L74.7448 148.718Z" fill="#FBBEBE"/>
<path opacity="0.1" d="M74.7448 148.718L75.8406 150.772C75.9094 150.708 75.9717 150.635 76.0265 150.556C77.2657 148.824 82.7218 150.187 85.6455 150.297C86.0327 148.531 86.2922 147.041 86.2922 147.041L74.7448 148.718Z" fill="black"/>
<path opacity="0.1" d="M18.9902 165.669C19.7788 165.63 20.5688 165.678 21.3485 165.813C22.1849 166.135 23.6719 160.566 23.6719 160.566L21.4337 159.989L27.5249 159.7L27.8193 157.862C27.8193 157.862 25.8405 158.066 22.7348 158.337C22.0931 158.742 21.5205 159.267 21.0426 159.887L20.9497 160.014C19.6524 161.759 19.1722 164.009 18.9902 165.669Z" fill="black"/>
<path opacity="0.1" d="M66.9962 238.633L68.7039 239.872C71.2519 239.367 73.5792 238.574 73.8541 237.325C73.8554 237.306 73.8554 237.286 73.8541 237.266C73.312 236.808 72.9519 236.459 72.9519 236.459L66.9962 238.633Z" fill="black"/>
<path opacity="0.1" d="M61.9465 240.671C64.1967 240.548 66.4386 240.284 68.6612 239.881C67.3338 239.482 65.9848 239.174 64.6223 238.96C62.9688 238.765 62.1208 240.31 61.9465 240.671Z" fill="black"/>
<path d="M19.1762 167.812C19.1762 169.166 22.58 170.032 22.58 170.032L32.9463 180.148C32.9463 180.148 39.4597 183.341 43.6031 187.938C47.7466 192.536 51.4021 188.588 51.4021 188.588C55.7934 187.399 68.4405 170.627 68.4405 170.627C68.4405 170.627 68.7348 189.781 69.3273 191.186C69.9198 192.591 69.1298 196.433 68.7852 198.058C68.5677 199.414 68.4846 200.792 68.5373 202.168C68.5373 202.168 63.8014 222.022 64.1964 223.754C64.5914 225.486 61.629 233.602 61.629 233.602V240.365C61.629 240.365 73.2268 239.877 73.8657 237.011C74.5047 234.146 70.9576 232.898 70.9576 232.898V232.193C73.281 230.894 73.7186 221.971 73.7186 221.971C73.7186 221.971 77.1766 210.934 77.6684 209.096C78.1602 207.258 77.6684 204.494 77.6684 204.494L78.0131 202.117C78.0131 202.117 78.7527 200.491 78.7527 200.168C78.8494 199.344 79.1388 198.562 79.593 197.897C80.1351 197.192 79.0005 195.516 79.0005 195.516L79.988 192.701V189.619L82.3114 178.421C82.3114 178.421 84.7316 165.38 83.8913 161.105C83.051 156.83 84.8788 154.669 84.8788 154.669C80.9173 156.945 78.9192 151.88 78.2648 149.703C78.0983 149.142 78.0169 148.769 78.0169 148.769C78.0169 148.769 72.5762 146.57 67.5112 147.096C66.4825 147.188 65.4687 147.423 64.4946 147.797C58.868 150.017 57.9813 159.212 57.9813 159.212L52.9975 167.545C50.4301 174.957 46.581 175.712 46.581 175.712C46.581 175.712 37.5506 169.06 37.2873 168.733C37.0239 168.407 33.5853 166.785 33.5853 166.785C33.1787 166 32.5567 165.376 31.8078 165.002C30.6229 164.459 30.5261 162.455 30.5261 162.455C30.3789 157.747 27.8619 157.361 27.8619 157.361C19.1258 156.563 19.1762 166.462 19.1762 167.812Z" fill="#4E886C"/>
<path d="M69.4164 141.361H74.7448V123.239H69.4164V141.361Z" fill="#292426"/>
<path opacity="0.1" d="M83.3801 86.1751C83.3793 86.1878 83.3793 86.2006 83.3801 86.2133C83.4214 86.3141 83.4706 86.4107 83.5273 86.502L85.0066 88.8792L88.8557 89.3037L88.8983 87.6312C87.6979 87.5293 84.964 87.1685 83.3801 86.1751Z" fill="black"/>
<path d="M83.5312 86.502C83.5312 86.502 83.7287 96.0195 81.5563 97.3185C79.3839 98.6174 78.5397 105.384 78.5397 105.384C78.5397 105.384 85.1227 110.13 86.5903 112.219C88.058 114.307 91.4269 119.283 90.7338 120.471C90.0406 121.66 92.4144 127.072 92.4144 127.072C92.4144 127.072 88.0696 136.81 89.057 140.491C90.0445 144.171 90.1413 153.905 90.1413 153.905H92.0194C92.0194 153.905 91.4269 145.899 91.4269 142.652C91.4269 139.404 93.398 127.828 93.398 127.828C93.398 127.828 94.2886 116.468 93.398 116.145C92.5073 115.823 87.2796 111.276 86.8846 109.217C86.4897 107.159 89.6495 87.992 89.6495 87.992C89.6495 87.992 85.6029 87.801 83.5312 86.502Z" fill="white"/>
<path opacity="0.1" d="M69.3157 121.558C69.4958 122.882 69.9358 124.148 70.6052 125.268L74.253 124.589C74.253 124.589 85.2079 121.88 87.4694 121.66C88.8394 121.461 90.1754 121.044 91.4347 120.42C90.5667 117.048 88.8725 114.002 86.5361 111.612L85.146 110.198C83.0974 108.113 80.7232 106.449 78.137 105.286C78.2996 105.435 89.7928 116.192 87.2758 118.302C84.7587 120.412 77.9821 115.275 77.9821 115.275L70.276 108.016L69.9972 107.753L69.5519 108.513C69.7785 108.615 69.9995 108.731 70.2141 108.861C72.8404 110.441 74.7894 113.097 75.6354 116.247C77.2192 122.084 69.3157 121.558 69.3157 121.558Z" fill="black"/>
<path d="M66.9458 148.608C66.9458 148.608 74.2491 153.044 76.0226 150.556C76.4099 150.008 77.2269 149.771 78.2454 149.707C78.0789 149.147 77.9976 148.773 77.9976 148.773C77.9976 148.773 72.5569 146.574 67.4918 147.101C67.1588 148.017 66.9458 148.608 66.9458 148.608Z" fill="#4E886C"/>
<path d="M70.307 107.761L78.2919 115.292C78.2919 115.292 85.0414 120.446 87.5856 118.319C90.1297 116.192 78.4429 105.299 78.4429 105.299C81.0236 106.466 83.3954 108.124 85.448 110.198L86.8382 111.612C90.4937 115.326 91.3186 115.326 91.4425 120.785C91.4735 122.131 91.0552 124.062 90.7338 124.411C89.5489 125.684 88.7202 134.934 88.9022 136.017C89.0842 137.099 86.6949 146.443 87.4694 149.041C88.2439 151.639 77.7885 147.742 76.0188 150.233C74.2491 152.725 66.9458 148.285 66.9458 148.285C66.9458 148.285 70.9924 136.921 71.9799 136.165C72.9674 135.41 74.1523 129.564 71.9799 126.86C69.8075 124.156 69.6139 121.558 69.6139 121.558C69.6139 121.558 77.5135 122.093 75.9297 116.256C75.4842 114.564 74.7111 112.997 73.6633 111.663C72.6155 110.328 71.3175 109.256 69.8578 108.521L70.307 107.761Z" fill="#E8E8F0"/>
<path opacity="0.1" d="M80.9638 126.915C80.9638 126.915 77.9007 133.245 73.9393 134.887C73.8115 134.938 73.6876 134.985 73.552 135.027C69.4163 136.407 81.2736 128.876 80.9638 126.915Z" fill="black"/>
<path d="M38.1276 70.9183C38.1276 70.9183 39.6068 75.0318 40.7918 76.4369C41.9767 77.842 50.7593 91.9102 50.7593 91.9102L51.5028 93.6083L52.1417 95.0558L57.7683 94.4063L58.1555 91.9187L57.9387 91.63C57.3733 90.8872 55.8321 88.892 54.7982 88.0217C53.5164 86.9435 50.949 83.3734 50.949 83.3734C50.949 83.3734 42.9564 74.2804 42.3639 71.7928C41.7715 69.3052 33.775 54.3879 32.0015 56.969C30.2279 59.55 38.1276 70.9183 38.1276 70.9183Z" fill="#FBBEBE"/>
<g opacity="0.1">
<path opacity="0.1" d="M54.4535 137.833C53.7781 137.769 53.0983 137.877 52.467 138.148C51.0729 138.891 50.8096 140.898 50.0351 142.371C49.129 144.095 47.4019 145.161 45.6245 145.555C45.2712 145.63 44.9144 145.684 44.5557 145.717C45.6878 145.837 46.8297 145.783 47.9479 145.555C49.7254 145.161 51.4524 144.095 52.3586 142.371C53.133 140.898 53.3964 138.891 54.7904 138.148C55.1564 137.967 55.551 137.866 55.9521 137.85L54.4535 137.833Z" fill="#292424"/>
<path opacity="0.1" d="M68.2082 105.27C68.2082 101.895 70.2102 98.9868 71.8598 96.1383C73.5095 93.2899 74.8958 89.6943 73.5908 86.6378C72.4756 84.0271 65.7531 80.5249 61.873 81.2169C65.6718 81.756 70.3535 84.4983 71.2674 86.6378C72.5724 89.6943 71.1861 93.2899 69.5364 96.1383C67.8868 98.9868 65.877 101.895 65.8848 105.27C65.8848 109.625 65.6176 112.911 64.5256 117.118C64.2119 118.327 67.2362 120.157 66.7715 121.303C65.1994 125.124 65.9351 129.53 65.6834 133.707C65.6782 134.523 65.4964 135.327 65.1529 136.051C64.3784 137.447 62.7907 137.808 61.2457 137.884H62.5971C64.4016 137.884 66.5431 137.732 67.4763 136.038C67.8198 135.314 68.0016 134.511 68.0068 133.695C68.2585 129.517 67.5228 125.107 69.095 121.29C69.5674 120.144 66.5353 118.319 66.849 117.105C67.941 112.928 68.2159 109.625 68.2082 105.27Z" fill="#292424"/>
</g>
<path opacity="0.1" d="M51.5027 93.5998L52.1417 95.0473L57.7682 94.3978L58.1555 91.9102L57.9386 91.6216C57.3384 91.9442 52.8426 94.3172 51.5027 93.5998Z" fill="black"/>
<path opacity="0.1" d="M72.278 109.871C72.278 109.871 70.8956 107.494 70.1056 108.139C69.3157 108.784 69.0097 106.191 68.5567 106.624C68.1036 107.057 66.7831 108.262 66.2333 106.577C65.8034 105.236 61.1256 96.7496 59.2281 93.3366C58.7402 92.4536 58.4343 91.9102 58.4343 91.9102C58.4343 91.9102 53.1059 94.8308 51.8242 93.8587V95.9133L52.9084 96.0237L58.717 107.91C58.717 107.91 60.5447 111.098 60.4208 112.21C60.2969 113.322 62.7636 118.192 63.1586 118.514C63.5536 118.837 67.8054 124.249 67.8054 124.249C67.8054 124.249 69.9778 135.936 68.0997 139.183C66.2216 142.431 62.9688 144.808 62.9688 144.808C62.9688 144.808 61.9891 147.945 62.1324 148.272C62.2757 148.599 60.9939 150.004 61.5864 150.437C62.1789 150.87 62.9688 153.897 62.9688 153.897C62.9688 153.897 65.7337 149.028 67.2285 148.272C68.7232 147.517 70.6361 137.558 70.6361 137.558C70.6361 137.558 71.1821 131.691 71.2247 127.904C71.2673 124.118 71.0931 109.871 72.278 109.871Z" fill="black"/>
<path d="M71.9799 109.871C71.9799 109.871 70.6013 107.494 69.8114 108.139C69.0214 108.784 68.7116 106.191 68.2624 106.624C67.8132 107.057 66.4927 108.262 65.939 106.577C65.5053 105.236 60.8275 96.7496 58.9339 93.3366L58.14 91.9102C58.14 91.9102 52.8116 94.8308 51.526 93.8587V95.9133L52.6141 96.0237L58.4227 107.91C58.4227 107.91 60.2543 111.098 60.1266 112.21C59.9988 113.322 62.45 118.192 62.8643 118.514C63.2787 118.837 67.5112 124.249 67.5112 124.249C67.5112 124.249 69.6836 135.936 67.8094 139.183C66.8193 140.815 65.6149 142.277 64.2351 143.522C63.0762 144.57 62.2605 146.004 61.9117 147.606C61.8445 147.824 61.8207 148.056 61.842 148.285C61.9853 148.608 60.7035 150.017 61.296 150.45C61.8885 150.883 62.6862 153.922 62.6862 153.922C62.6862 153.922 65.4511 149.053 66.9458 148.298C68.4405 147.542 70.3574 137.583 70.3574 137.583C70.3574 137.583 70.8995 131.716 70.946 127.93C70.9924 124.143 70.8182 109.871 71.9799 109.871Z" fill="white"/>
<path opacity="0.1" d="M58.4575 159.106C58.4575 159.106 62.6049 159.955 64.2661 161.266C65.9274 162.578 57.9503 159.212 57.9503 159.212L58.4575 159.106Z" fill="black"/>
<path opacity="0.1" d="M68.4289 170.627C68.4289 170.627 72.7543 174.579 71.9799 178.149C71.2054 181.719 69.2072 190.702 69.2072 190.702L68.4289 170.627Z" fill="black"/>
<path opacity="0.1" d="M30.5996 163.028C30.5996 163.028 24.5045 163.758 24.8995 164.624C25.2945 165.49 30.5996 163.826 30.5996 163.826V163.028Z" fill="black"/>
<path opacity="0.1" d="M77.4012 195.893C77.4012 195.893 77.7885 196.433 75.527 195.893C73.2655 195.354 74.9345 193.69 74.9345 193.69L77.4012 195.893Z" fill="black"/>
<path opacity="0.1" d="M76.6267 203.361C76.6267 203.361 73.5288 203.9 71.8676 203.361C70.2063 202.821 76.6267 203.361 76.6267 203.361Z" fill="black"/>
<path opacity="0.1" d="M70.2528 232.575C70.2528 232.575 69.7107 231.926 66.9962 233.114C64.2816 234.303 63.1974 234.358 62.4074 233.963C61.6174 233.569 70.2528 232.575 70.2528 232.575Z" fill="black"/>
<path opacity="0.1" d="M73.2655 162.107L69.4164 167.978C69.4164 167.978 71.4881 162.837 73.2655 162.107Z" fill="black"/>
<path opacity="0.1" d="M65.7841 108.139C65.7841 108.139 65.6176 110.088 63.1354 110.848C60.6532 111.607 60.1808 112.223 60.1808 112.223" fill="black"/>
<path opacity="0.1" d="M59.3327 94.0158C59.3327 94.0158 56.0567 96.5628 52.6374 96.0237L59.3327 94.0158Z" fill="black"/>
<path opacity="0.1" d="M61.8265 148.552C61.8265 148.552 62.783 149.21 65.0793 146.332L61.8265 148.552Z" fill="black"/>
<path opacity="0.1" d="M85.6765 118.034C85.7695 117.508 85.4364 117.02 85.1228 116.608L84.48 115.759C84.3543 115.585 84.2129 115.426 84.0579 115.284C83.6706 114.957 83.1749 114.859 82.7722 114.566" fill="black"/>
<defs>
<linearGradient id="paint0_linear" x1="263.086" y1="184.347" x2="263.086" y2="13.5673" gradientUnits="userSpaceOnUse">
<stop stop-color="#808080" stop-opacity="0.25"/>
<stop offset="0.54" stop-color="#808080" stop-opacity="0.12"/>
<stop offset="1" stop-color="#808080" stop-opacity="0.1"/>
</linearGradient>
<linearGradient id="paint1_linear" x1="15382" y1="106345" x2="34508.2" y2="106345" gradientUnits="userSpaceOnUse">
<stop stop-color="#808080" stop-opacity="0.25"/>
<stop offset="0.54" stop-color="#808080" stop-opacity="0.12"/>
<stop offset="1" stop-color="#808080" stop-opacity="0.1"/>
</linearGradient>
</defs>
</svg>
