<svg width="228" height="228" viewBox="0 0 228 228" fill="none" xmlns="http://www.w3.org/2000/svg">
<path d="M204.688 101.092C204.202 100.673 203.632 100.393 203.029 100.276C202.393 100.111 201.743 100.008 201.097 99.8939L192.725 98.5392C191.88 98.3632 191.019 98.3119 190.162 98.3866C189.732 98.4262 189.313 98.5612 188.93 98.784C188.547 99.0067 188.208 99.3127 187.931 99.684C187.681 100.03 187.545 100.46 187.543 100.905C187.59 101.353 187.72 101.784 187.924 102.172C188.005 102.353 188.075 102.541 188.132 102.733C188.212 103.165 188.312 103.591 188.431 104.011C188.468 104.102 188.516 104.187 188.574 104.263C188.575 104.285 188.575 104.306 188.574 104.328C188.482 104.855 188.778 105.404 188.645 105.912C188.529 106.347 188.152 106.61 187.914 106.973C187.755 107.23 187.667 107.534 187.661 107.846C187.655 108.159 187.731 108.467 187.88 108.732C188.135 109.174 188.597 109.476 188.73 109.983C188.903 110.651 188.434 111.296 188.016 111.811C187.247 112.76 186.535 113.765 185.887 114.822C185.705 115.082 185.588 115.391 185.547 115.719C185.51 116.383 186.078 116.967 185.979 117.627C185.901 118.146 185.449 118.462 185.058 118.772C183.613 119.84 182.453 121.557 182.337 123.5C181.966 120.409 180.825 117.499 179.046 115.104C178.56 114.448 178.026 113.788 177.825 112.956C177.75 112.624 177.737 112.269 177.635 111.949C177.295 110.937 176.213 110.502 175.741 109.571C175.401 108.915 175.401 108.072 174.979 107.495C174.557 106.919 173.894 106.789 173.531 106.232C173.349 105.855 173.194 105.462 173.068 105.057C172.915 104.727 172.701 104.438 172.439 104.21C172.389 104.165 172.337 104.123 172.283 104.084C172.339 104.027 172.384 103.958 172.415 103.88C172.446 103.803 172.463 103.719 172.463 103.634C172.463 103.187 172.068 102.893 171.725 102.672C171.283 102.39 170.851 102.084 170.429 101.768C170.889 101.527 171.288 101.161 171.589 100.703C171.966 100.019 172.122 99.2108 172.031 98.4133C172.008 97.7696 171.794 97.1531 171.422 96.6618C171.208 96.4061 170.939 96.2229 170.715 95.9825C170.134 95.3453 169.936 94.4027 169.695 93.5327C169.375 92.3879 168.875 91.1859 167.944 90.5791C167.495 90.2853 166.971 90.1479 166.533 89.8388C166.094 89.5297 165.727 88.9459 165.88 88.3849C165.982 88.0033 166.298 87.74 166.512 87.4157C166.768 86.9963 166.866 86.4806 166.785 85.9805C166.704 85.4805 166.451 85.0364 166.08 84.7445C165.829 84.5651 165.519 84.4087 165.468 84.0805C165.271 84.0231 165.093 83.9046 164.953 83.7386C164.814 83.5725 164.719 83.3657 164.679 83.1418C164.603 82.693 164.603 82.2321 164.679 81.7833C164.768 81.0735 164.855 80.3663 164.941 79.6616C165.091 79.7315 165.252 79.7675 165.414 79.7675C165.576 79.7675 165.737 79.7315 165.886 79.6616C166.181 80.1975 166.523 80.6987 166.907 81.1575C167.942 82.5297 168.748 84.1003 169.287 85.7939C169.481 86.4044 169.678 87.0875 170.181 87.4118C170.355 87.5225 170.552 87.5798 170.722 87.6981C170.931 87.8621 171.111 88.0693 171.252 88.3086C171.66 88.9154 172.068 89.5183 172.473 90.125L172.493 90.2166C172.504 90.2703 172.523 90.3218 172.548 90.3692C172.623 90.4644 172.727 90.5243 172.84 90.5371C174.092 90.8615 175.496 91.1591 176.581 90.3921C177.56 89.7053 177.988 88.3468 178.818 87.4386C179.406 86.7937 180.239 86.2938 180.406 85.3856C180.207 85.3168 180.012 85.2366 179.821 85.1452C179.991 84.9544 180.161 84.733 180.392 84.4812C180.728 84.1121 181.031 83.7069 181.297 83.2715C181.584 82.7344 181.812 82.1604 181.977 81.562C182.632 79.4657 183.289 77.3682 183.949 75.2694C184.262 74.2773 184.575 73.2775 184.969 72.312C185.377 71.2665 185.86 70.2629 186.306 69.2364C187.455 66.5668 188.342 63.7646 188.951 60.8794C189.059 60.4857 189.095 60.0717 189.056 59.6621C188.961 59.0019 188.516 58.4829 188.091 58.0136C187.663 57.4943 187.176 57.0413 186.642 56.6665C186.374 56.4794 186.075 56.354 185.764 56.2977C185.452 56.2414 185.133 56.2552 184.826 56.3384C183.956 56.6246 183.409 57.6244 183.208 58.628C183.007 59.6316 183.082 60.6657 182.997 61.6807C182.875 63.1499 182.426 64.5694 182.317 66.0424C182.259 66.8934 182.317 67.7558 182.225 68.6067C182.058 69.7204 181.712 70.7909 181.205 71.7664C180.102 74.0928 178.609 76.1582 176.808 77.849C176.601 78.0436 176.387 78.2306 176.183 78.4405C176.183 78.2764 176.207 78.1085 176.227 77.9444C176.079 77.9876 175.934 78.0451 175.795 78.1161C175.812 77.9234 175.795 77.7288 175.744 77.5437C175.472 76.6317 174.262 76.3989 174.044 75.4717C174.008 75.2423 173.988 75.0101 173.986 74.7772C173.915 73.9644 173.422 73.2775 173.252 72.4876C173.095 71.7587 173.214 70.9612 172.912 70.2858C172.654 69.8634 172.35 69.4789 172.007 69.141C171.599 68.6172 171.304 67.9941 171.147 67.3207C171.103 67.1338 171.062 66.9392 171.014 66.7522C171.066 66.3288 171.024 65.8976 170.892 65.4967C170.582 64.6343 169.783 64.081 169.494 63.2071C169.27 62.5279 169.368 61.6807 168.943 61.1541C168.718 60.9025 168.441 60.7154 168.138 60.6084C166.581 59.9283 164.948 59.4954 163.285 59.3225C162.354 59.2271 161.327 59.1736 160.66 58.4372C159.881 57.5824 159.844 56.0445 158.933 55.3844C158.13 54.8005 156.995 55.2317 156.372 56.0522C156.279 56.1729 156.192 56.3003 156.114 56.4338C156 55.9223 155.976 55.391 156.042 54.8692C156.042 54.7395 156.066 54.6059 156.076 54.4876C157.612 53.9246 158.918 52.7667 159.762 51.2211C159.762 51.2211 159.762 51.2211 159.762 51.244L159.803 51.3623C159.902 51.6409 160.058 51.908 160.29 51.9386C160.443 51.9365 160.592 51.8759 160.711 51.7668C160.916 51.6068 161.106 51.4226 161.276 51.2173C161.362 51.1105 161.443 50.9998 161.52 50.8853C161.677 50.647 161.812 50.3913 161.922 50.1221C162.091 49.7172 162.205 49.2864 162.262 48.8438C162.323 48.4011 162.33 47.947 162.398 47.5044C162.461 47.1617 162.544 46.824 162.646 46.4931C162.68 46.3825 162.714 46.2718 162.745 46.1612C162.775 46.0505 162.819 45.9017 162.853 45.7796C163.066 44.9947 163.181 44.1805 163.193 43.3602C163.193 43.2229 163.193 43.0855 163.193 42.9481C163.181 42.4128 163.074 41.8856 162.877 41.3975C162.681 40.9093 162.4 40.47 162.051 40.1052C161.466 39.5672 160.691 39.342 160.262 38.6132C159.983 38.1247 159.922 37.4951 159.759 36.9227C159.583 36.2377 159.239 35.6218 158.766 35.145C158.294 34.6681 157.712 34.3494 157.086 34.2248C156.333 34.1321 155.577 34.3655 154.971 34.8773L154.924 34.9193C154.587 35.2083 154.301 35.5655 154.08 35.9725C153.631 35.8336 153.22 35.5713 152.884 35.2093C152.544 34.8544 152.282 34.408 151.938 34.0645C151.617 33.7347 151.223 33.5075 150.797 33.4069C150.372 33.3062 149.929 33.3356 149.517 33.4921C149.093 33.683 148.714 33.9842 148.413 34.3709C148.113 34.7576 147.898 35.2189 147.786 35.7168C147.599 36.5029 147.633 37.4073 147.242 38.0637C146.94 38.575 146.443 38.8269 146.096 39.2924C145.881 39.5872 145.734 39.9372 145.668 40.3113C145.627 40.5205 145.607 40.7343 145.61 40.9485C145.61 41.0439 145.61 41.1393 145.631 41.2309C145.631 41.2309 145.631 41.2615 145.631 41.2767C145.643 41.3813 145.662 41.4846 145.688 41.5858C145.785 41.9727 145.958 42.3301 146.195 42.6314C146.42 42.92 146.7 43.1471 147.015 43.2954C147.143 43.3516 147.275 43.3988 147.409 43.4366L147.814 43.5396L147.956 43.5778C147.468 44.6066 147.197 45.7477 147.164 46.9128C147.131 48.078 147.337 49.236 147.766 50.2977C147.766 50.4045 147.742 50.5114 147.732 50.6182C147.677 52.1208 147.736 53.626 147.909 55.1173C147.956 55.7087 147.984 56.3613 147.661 56.8306C147.514 57.0153 147.348 57.1804 147.168 57.3229C147.351 57.0558 147.538 56.7925 147.729 56.5292C147.249 55.9873 146.491 55.9186 145.811 55.972C144.495 56.0824 143.217 56.5204 142.07 57.2542C141.309 57.7465 140.527 58.399 139.656 58.2845C139.143 58.2197 138.636 57.9029 138.136 58.0556C137.855 58.1846 137.593 58.3594 137.358 58.5745C137.172 58.7242 136.947 58.8019 136.718 58.7959C136.184 58.0594 135.358 57.5595 134.719 56.9604C133.991 56.2336 133.325 55.4326 132.73 54.5678C131.628 53.0757 130.53 51.5798 129.448 50.0725C128.537 48.8056 127.602 47.4357 127.442 45.8139C127.426 45.653 127.418 45.4912 127.418 45.3293C127.44 44.5587 127.527 43.7921 127.677 43.0397C127.717 42.858 127.717 42.668 127.677 42.4864C127.575 42.1048 127.184 41.9636 126.847 41.8796C126.891 41.5858 126.922 41.2843 126.939 40.9981C127.129 37.7164 126.922 34.3813 127.541 31.1682C127.775 29.9318 128.16 28.6802 128.952 27.7834C130.193 26.3753 132.271 26.0357 133.223 24.3681C134.018 22.9791 133.702 21.0139 132.702 19.789C131.703 18.564 130.162 18.0641 128.697 18.1252C128.286 18.1094 127.88 18.2316 127.531 18.4763C127.204 18.8014 126.96 19.2173 126.823 19.6821L125.365 23.6622C124.942 24.6984 124.585 25.767 124.297 26.86C123.889 28.5314 123.797 30.2943 123.474 31.981C123.474 33.2784 122.729 34.8964 122.321 36.0908C121.866 37.434 121.372 38.762 120.961 40.1319C120.859 40.4754 120.502 41.4942 120.281 42.4215C120.197 42.4761 120.12 42.5414 120.05 42.6161C119.872 42.8715 119.711 43.1405 119.567 43.4213C119.257 43.8792 118.754 44.1234 118.414 44.5661C118.074 45.0087 118.003 45.8215 118.475 46.0429C118.571 46.0791 118.671 46.1034 118.771 46.1154C118.833 46.1212 118.895 46.1327 118.955 46.1497C119.465 46.31 119.666 47.0312 119.591 47.6265C119.516 48.2218 119.251 48.7713 119.206 49.3666C119.115 50.4198 119.666 51.4005 120.196 52.2858C120.745 53.2455 121.352 54.1622 122.012 55.0295C122.491 55.6324 123.032 56.1743 123.515 56.7543C125.354 58.876 126.816 61.3564 128.469 63.6612C129.064 64.5311 129.74 65.3269 130.485 66.0348C130.972 66.4623 131.482 66.8561 132.012 67.2139L134.855 69.2364C135.177 69.5015 135.542 69.6945 135.929 69.805C136.056 69.824 136.184 69.824 136.31 69.805C136.327 69.9003 136.341 69.9919 136.361 70.0873C136.582 71.0871 137.069 71.9953 137.123 73.0142C137.177 74.033 137.096 75.0748 137.16 76.1051C137.222 77.0553 137.409 78.0131 137.456 78.948C137.551 80.7492 137.157 82.5274 136.776 84.2904C136.201 86.87 135.855 89.503 134.736 91.8422C134.423 92.4871 134.056 93.1435 134.056 93.8799C134.056 93.9677 134.056 94.0593 134.076 94.147L133.566 94.4714C133.417 94.5668 133.267 94.6622 133.131 94.7614C132.485 95.2346 131.795 95.7574 131.529 96.574C131.315 97.2342 131.414 97.9897 131.155 98.6308C131.143 98.6596 131.129 98.6876 131.115 98.7148C130.842 99.3101 130.302 99.7527 130.179 100.405C130.088 100.905 130.264 101.436 130.179 101.932C130.179 101.932 130.179 101.932 130.179 101.951C130.102 102.2 130.041 102.455 129.996 102.714C129.992 102.799 129.999 102.883 130.016 102.966C130.081 103.255 130.223 103.515 130.424 103.71C130.547 103.842 130.68 103.961 130.822 104.065C130.967 104.172 131.117 104.271 131.271 104.362L131.359 104.416C131.489 104.492 131.618 104.565 131.75 104.633L131.839 104.675C131.992 104.752 132.148 104.82 132.305 104.881L132.413 104.92C132.536 104.965 132.662 105.007 132.787 105.042L132.872 105.072L132.951 105.091L133.291 105.171L133.417 105.198C133.566 105.226 133.719 105.249 133.876 105.267H134.012C134.127 105.267 134.239 105.286 134.352 105.29H134.511C134.63 105.29 134.746 105.29 134.852 105.29H134.974C135.134 105.29 135.294 105.263 135.453 105.24H135.504C135.647 105.217 135.79 105.19 135.933 105.156L136.042 105.129C136.174 105.095 136.307 105.061 136.439 105.015L136.511 104.992C136.671 104.939 136.83 104.881 136.987 104.813C137.528 104.563 138.053 104.271 138.558 103.939C138.898 103.729 139.238 103.515 139.578 103.321C139.83 103.178 140.089 103.051 140.353 102.939C140.996 102.631 141.696 102.5 142.393 102.557C142.738 102.61 143.078 102.688 143.414 102.79C143.414 102.832 143.414 102.874 143.414 102.916C143.69 104.748 143.963 106.579 144.233 108.411C144.678 108.052 145.149 107.734 145.641 107.461C145.549 107.738 145.488 108.026 145.461 108.32C145.44 108.547 145.44 108.776 145.461 109.003C145.491 109.365 145.559 109.766 145.365 110.052C145.246 110.228 145.025 110.327 144.961 110.525C144.914 110.728 144.902 110.939 144.927 111.147C144.913 111.384 144.823 111.608 144.675 111.778C144.526 111.947 144.329 112.051 144.117 112.071C144.215 112.378 144.217 112.713 144.124 113.022C144.031 113.33 143.848 113.595 143.604 113.773C143.462 113.849 143.329 113.947 143.21 114.063C143.093 114.231 143.015 114.429 142.982 114.639C142.532 116.529 141.608 118.233 140.319 119.55C139.836 119.976 139.395 120.46 139.003 120.992C138.762 121.405 138.562 121.846 138.408 122.309C137.501 124.797 136.581 127.286 135.647 129.777C135.13 131.17 134.627 132.585 134.464 134.085C134.056 138.199 130.791 141.686 131.404 145.77C131.527 146.79 131.894 147.753 132.464 148.559C133.145 149.479 134.165 150.005 135.185 150.433C137.806 151.577 140.571 152.203 143.325 152.833L147.65 153.829C148.499 154.048 149.36 154.201 150.228 154.287C151.272 154.367 152.343 154.256 153.36 154.554C153.989 154.737 154.591 155.077 155.24 155.115C155.798 155.149 156.485 155.016 156.814 155.527C157.144 156.038 156.889 156.714 157.202 157.168C157.705 157.889 158.933 157.168 159.48 157.847C159.63 158.108 159.744 158.392 159.82 158.69C159.903 158.875 160.019 159.038 160.16 159.171C160.194 159.387 160.207 159.605 160.201 159.824C160.13 160.71 159.966 161.584 159.711 162.426C159.303 163.976 158.897 165.526 158.491 167.078C158.336 167.626 158.222 168.188 158.151 168.757C158.125 169.034 158.125 169.312 158.151 169.589C158.222 170.432 158.654 171.302 159.371 171.577C159.928 171.742 160.52 171.66 161.024 171.348C161.51 171.063 161.967 170.717 162.384 170.318C163.137 169.678 163.799 168.914 164.346 168.051C166.046 165.197 165.495 161.335 166.689 158.179C167.481 156.073 169.025 154.363 169.538 152.142C169.659 151.72 169.673 151.268 169.579 150.837C169.365 150.074 168.641 149.639 167.964 149.364H167.934C167.378 149.142 166.81 148.96 166.233 148.819C166.091 148.784 165.944 148.757 165.798 148.731C165.475 148.435 165.217 148.059 165.047 147.632C165.02 147.405 164.966 147.183 164.887 146.972C164.833 146.881 164.76 146.805 164.675 146.752C164.59 146.699 164.495 146.67 164.397 146.666C164.057 146.628 163.601 146.766 163.231 146.735C162.473 146.674 161.969 145.838 161.289 145.453C160.609 145.067 159.871 145.163 159.147 145.22C158.888 145.26 158.624 145.242 158.372 145.167C158.07 145.011 157.794 144.798 157.556 144.537C157.137 144.172 156.649 143.92 156.129 143.803C155.609 143.686 155.072 143.706 154.56 143.862C154.235 144.009 153.89 144.097 153.54 144.121C152.877 144.079 152.408 143.415 151.918 142.911C150.578 141.534 148.671 141.171 147.045 140.267C146.796 140.163 146.589 139.963 146.46 139.702C146.273 139.183 146.695 138.664 147.076 138.309L149.871 135.703C152.931 132.849 156.757 130.7 158.178 126.514C158.326 125.953 158.556 125.423 158.858 124.946C158.968 124.8 159.095 124.672 159.235 124.564C159.854 124.115 160.603 123.951 161.327 124.106C162.208 124.328 163.044 124.737 163.788 125.312C165.006 126.139 166.19 127.029 167.342 127.983C168.483 128.898 169.567 129.898 170.589 130.975C172.374 132.883 173.86 135.146 175.523 137.203C177.186 139.26 179.087 141.179 181.396 142.163C183.704 143.148 186.496 143.106 188.478 141.454C190.767 139.546 191.501 136.134 192.079 133.005C193.355 131.624 193.739 129.521 194.361 127.663C194.752 126.484 195.252 125.373 195.674 124.198C196.177 122.816 196.571 121.389 196.966 119.966C197.413 118.537 197.716 117.056 197.87 115.551C198.033 113.174 197.466 110.644 198.061 108.411C198.846 108.217 199.56 107.72 200.332 107.43C201.481 107.007 202.712 107.076 203.93 107.083H204.008C204.427 107.133 204.849 107.022 205.205 106.766C205.613 106.385 205.677 105.732 205.698 105.141C205.745 103.679 205.664 102.038 204.688 101.092ZM155.42 35.9992C155.139 36.0773 154.848 36.1005 154.56 36.0679L155.42 35.9992Z" fill="url(#paint0_linear)"/>
<path d="M156.76 60.1391C156.348 60.5315 155.866 60.8192 155.345 60.9824L152.935 61.9517C151.625 62.4783 150.258 63.0087 148.878 62.8179C148.106 62.7111 144.798 62.1654 144.298 61.4899C143.536 60.4444 146.205 58.9065 147.117 58.025C147.323 57.8584 147.514 57.6692 147.688 57.4603C148.028 56.9947 147.984 56.3422 147.936 55.7545C147.763 54.2658 147.704 52.7632 147.759 51.2631C147.786 50.9055 147.831 50.55 147.895 50.1985C148.235 48.4431 149.691 49.0842 150.84 49.5497C152.223 50.0541 153.561 50.7044 154.835 51.4921C155.223 51.7166 155.561 52.0377 155.821 52.4308C156.325 53.2856 156.124 54.4075 156.042 55.4836C155.971 56.3193 155.974 57.1206 156.44 57.7274C156.675 57.9594 156.89 58.2148 157.083 58.4906C157.192 58.7683 157.219 59.0777 157.161 59.374C157.103 59.6703 156.963 59.9382 156.76 60.1391Z" fill="#BE6F72"/>
<path d="M123.457 32.6373C123.797 30.9469 123.872 29.203 124.28 27.5278C124.568 26.4385 124.925 25.3737 125.348 24.3414L126.847 20.4148C126.984 19.9511 127.228 19.5364 127.554 19.2127C127.904 18.9698 128.31 18.8477 128.721 18.8617C130.186 18.8006 131.727 19.312 132.726 20.5216C133.726 21.7313 134.042 23.6889 133.247 25.0741C132.294 26.7417 130.217 27.0775 128.976 28.4817C128.183 29.3785 127.799 30.6263 127.565 31.8589C126.946 35.0643 127.153 38.388 126.963 41.6621C126.901 42.681 126.725 43.8449 125.943 44.3715C125.47 44.6314 124.944 44.746 124.419 44.7035L122.189 44.7454C121.815 44.7454 120.458 45.0087 120.21 44.692C119.774 44.1387 120.767 41.3835 120.947 40.7692C121.349 39.4069 121.842 38.0789 122.308 36.7395C122.712 35.5451 123.457 33.931 123.457 32.6373Z" fill="#BE6F72"/>
<path d="M169.515 152.52C169.001 154.726 167.457 156.443 166.665 158.545C165.472 161.694 166.009 165.544 164.322 168.391C163.775 169.255 163.114 170.021 162.36 170.661C161.943 171.06 161.487 171.404 161 171.688C160.496 172 159.904 172.082 159.348 171.917C158.63 171.642 158.198 170.772 158.127 169.932C158.101 169.657 158.101 169.38 158.127 169.104C158.198 168.536 158.312 167.976 158.467 167.429C158.875 165.885 159.282 164.338 159.688 162.789C159.942 161.949 160.106 161.078 160.177 160.194C160.221 159.232 159.677 157.981 159.909 157.084C160.014 156.679 160.409 156.321 160.589 155.981C160.845 155.492 161.041 154.967 161.174 154.42C161.452 153.356 161.643 152.219 162.228 151.322C162.609 150.79 163.056 150.321 163.554 149.929C163.921 149.567 164.352 149.296 164.819 149.131C165.271 149.042 165.736 149.067 166.179 149.204C166.756 149.342 167.324 149.523 167.879 149.746H167.91C168.59 150.021 169.311 150.444 169.525 151.215C169.629 151.643 169.625 152.094 169.515 152.52Z" fill="#292426"/>
<path d="M205.694 105.606C205.674 106.198 205.609 106.858 205.201 107.228C204.846 107.483 204.424 107.595 204.004 107.545H203.913C202.699 107.545 201.464 107.469 200.315 107.892C199.441 108.217 198.639 108.812 197.727 108.93C196.473 109.09 195.293 108.32 194.181 107.648C193.134 107.015 192.059 106.442 190.961 105.931C190.24 105.599 188.767 105.385 188.421 104.5C188.302 104.081 188.202 103.655 188.121 103.225C188.064 103.033 187.995 102.845 187.914 102.664C187.71 102.278 187.58 101.847 187.533 101.401C187.535 100.956 187.671 100.526 187.921 100.18C188.198 99.8116 188.538 99.5082 188.92 99.2875C189.302 99.0668 189.72 98.9331 190.148 98.8941C191.005 98.8194 191.867 98.8707 192.712 99.0467L201.084 100.398C201.73 100.501 202.379 100.604 203.015 100.779C203.619 100.897 204.188 101.177 204.674 101.596C205.664 102.527 205.745 104.164 205.694 105.606Z" fill="#292426"/>
<path d="M198.336 108.049C197.316 110.464 198.05 113.322 197.867 115.994C197.713 117.495 197.409 118.972 196.962 120.397C196.568 121.817 196.173 123.24 195.67 124.618C195.249 125.762 194.749 126.907 194.358 128.075C193.735 129.937 193.338 132.032 192.076 133.417C191.498 136.539 190.763 139.95 188.475 141.843C186.486 143.491 183.715 143.549 181.392 142.553C179.07 141.557 177.182 139.649 175.52 137.592C173.857 135.535 172.371 133.295 170.586 131.38C169.563 130.302 168.475 129.304 167.332 128.392C166.18 127.453 164.996 126.57 163.778 125.743C163.033 125.171 162.198 124.763 161.316 124.541C160.593 124.386 159.844 124.55 159.225 124.999C159.085 125.107 158.958 125.235 158.848 125.381C158.545 125.856 158.315 126.385 158.168 126.945C156.74 131.12 152.907 133.265 149.847 136.111L147.052 138.71C146.671 139.065 146.249 139.584 146.436 140.099C146.565 140.36 146.773 140.56 147.021 140.664C148.647 141.564 150.554 141.927 151.894 143.301C152.384 143.804 152.853 144.468 153.516 144.506C153.866 144.483 154.211 144.397 154.536 144.251C155.048 144.095 155.584 144.075 156.104 144.192C156.624 144.308 157.113 144.558 157.532 144.922C157.77 145.183 158.046 145.396 158.348 145.552C158.601 145.627 158.864 145.645 159.123 145.605C159.847 145.548 160.616 145.476 161.265 145.838C161.915 146.201 162.449 147.056 163.207 147.117C163.578 147.147 164.02 147.01 164.373 147.048C164.471 147.051 164.566 147.081 164.651 147.134C164.736 147.187 164.809 147.262 164.863 147.353C164.942 147.563 164.996 147.784 165.023 148.01C165.162 148.548 165.631 148.876 165.937 149.318C166.407 149.998 166.475 150.921 166.427 151.78C166.273 154.464 165.207 156.98 163.448 158.809C162.949 159.381 162.312 159.779 161.616 159.954C161.267 160.035 160.904 159.992 160.578 159.83C160.252 159.668 159.98 159.395 159.8 159.049C159.724 158.752 159.609 158.469 159.46 158.21C158.912 157.534 157.685 158.252 157.182 157.53C156.869 157.08 157.093 156.359 156.794 155.893C156.495 155.428 155.774 155.512 155.22 155.485C154.57 155.447 153.968 155.103 153.339 154.924C152.319 154.626 151.251 154.737 150.207 154.657C149.34 154.571 148.479 154.418 147.63 154.199L143.305 153.207C140.55 152.577 137.786 151.94 135.164 150.814C134.161 150.387 133.151 149.86 132.444 148.944C131.874 148.14 131.507 147.177 131.383 146.159C130.768 142.087 134.032 138.607 134.443 134.505C134.59 133.009 135.123 131.597 135.627 130.208C136.549 127.725 137.47 125.241 138.388 122.755C138.536 122.293 138.73 121.85 138.966 121.435C139.357 120.904 139.798 120.422 140.282 119.996C141.57 118.684 142.495 116.983 142.944 115.097C142.978 114.887 143.056 114.689 143.172 114.521C143.293 114.407 143.425 114.311 143.567 114.234C143.809 114.057 143.992 113.793 144.085 113.485C144.178 113.177 144.177 112.843 144.08 112.536C144.291 112.517 144.489 112.413 144.637 112.243C144.786 112.074 144.875 111.85 144.889 111.613C144.865 111.406 144.876 111.196 144.923 110.995C145.005 110.796 145.209 110.697 145.328 110.521C145.522 110.235 145.454 109.835 145.423 109.476C145.403 109.249 145.403 109.02 145.423 108.793C145.498 107.985 145.82 107.231 146.334 106.66C147.147 105.763 148.303 105.996 149.425 105.782C150.545 105.511 151.638 105.119 152.69 104.61C155.64 103.306 158.747 102.499 161.908 102.218C165.085 101.937 168.276 102.508 171.218 103.882C171.646 104.076 172.05 104.333 172.419 104.645C172.68 104.871 172.895 105.159 173.048 105.488C173.173 105.892 173.328 106.284 173.51 106.66C173.874 107.217 174.561 107.396 174.959 107.923C175.356 108.449 175.39 109.338 175.72 109.991C176.193 110.922 177.288 111.353 177.614 112.365C177.716 112.685 177.73 113.036 177.805 113.368C177.988 114.2 178.539 114.856 179.025 115.513C180.808 117.905 181.949 120.816 182.317 123.908C182.426 121.973 183.585 120.26 185.037 119.191C185.428 118.905 185.881 118.588 185.959 118.069C186.057 117.413 185.49 116.829 185.527 116.161C185.568 115.835 185.686 115.527 185.867 115.268C186.515 114.214 187.226 113.211 187.996 112.265C188.414 111.75 188.883 111.121 188.71 110.441C188.577 109.934 188.115 109.636 187.86 109.193C187.711 108.93 187.635 108.622 187.641 108.31C187.647 107.998 187.735 107.694 187.894 107.438C188.132 107.076 188.509 106.812 188.625 106.381C188.757 105.874 188.461 105.324 188.553 104.801C188.678 104.383 188.924 104.023 189.254 103.782C189.705 103.321 190.218 102.943 190.774 102.66C191.671 102.279 192.671 102.42 193.623 102.569C195.215 102.817 197 103.199 197.897 104.694C198.472 105.629 198.764 107.049 198.336 108.049Z" fill="#292426"/>
<path opacity="0.1" d="M205.694 105.606C205.674 106.198 205.609 106.858 205.201 107.228C204.846 107.483 204.424 107.595 204.004 107.545H203.913C204.052 106.751 204.912 106.297 205.062 105.492C205.087 105.245 205.067 104.994 205.003 104.756C204.939 104.517 204.831 104.297 204.688 104.107C203.96 103.004 202.79 102.393 201.628 101.947C198.342 100.683 194.823 100.387 191.406 101.088C190.477 101.258 189.573 101.57 188.72 102.016C188.437 102.214 188.165 102.431 187.904 102.664C187.7 102.278 187.57 101.847 187.523 101.401C187.524 100.956 187.661 100.526 187.911 100.18C188.188 99.8116 188.528 99.5082 188.91 99.2875C189.292 99.0668 189.709 98.9331 190.138 98.8941C190.995 98.8194 191.857 98.8707 192.702 99.0467L201.073 100.398C201.719 100.501 202.369 100.604 203.005 100.779C203.609 100.897 204.178 101.177 204.664 101.596C205.664 102.527 205.745 104.164 205.694 105.606Z" fill="black"/>
<path opacity="0.1" d="M169.515 152.52C169.001 154.726 167.457 156.443 166.665 158.545C165.472 161.694 166.009 165.544 164.322 168.391C163.775 169.255 163.114 170.021 162.36 170.661C161.943 171.06 161.486 171.404 161 171.688C160.496 172 159.904 172.082 159.348 171.917C158.63 171.642 158.198 170.772 158.127 169.932C158.101 169.657 158.101 169.379 158.127 169.104L158.147 169.165C158.443 169.967 158.926 170.806 159.688 170.947C159.974 170.97 160.261 170.927 160.531 170.82C160.801 170.713 161.049 170.545 161.259 170.325C162.381 169.314 163.034 167.807 163.656 166.353C164.143 165.304 164.528 164.2 164.805 163.06C164.941 162.411 165.006 161.747 165.145 161.098C165.791 157.946 167.991 155.374 168.478 152.18C168.517 151.961 168.526 151.735 168.505 151.513C168.441 151.222 168.342 150.942 168.212 150.681C168.094 150.385 168.007 150.075 167.954 149.757C168.634 150.032 169.355 150.456 169.569 151.226C169.657 151.655 169.638 152.103 169.515 152.52Z" fill="black"/>
<path opacity="0.1" d="M164.38 147.048C164.065 147.971 163.536 148.783 162.847 149.399C161.879 150.226 160.745 150.776 159.545 151.001C158.986 151.161 158.4 151.153 157.845 150.978C157.09 150.685 156.546 149.891 155.774 149.662C155.223 149.494 154.631 149.643 154.074 149.551C153.071 149.395 152.292 148.536 151.483 147.849C149.004 145.758 145.75 145.083 143.271 142.992C143.16 142.915 143.069 142.809 143.006 142.682C142.958 142.545 142.941 142.397 142.955 142.251C142.964 140.983 143.218 139.732 143.699 138.584C144.093 137.783 144.563 137.032 145.1 136.344C147.321 133.291 149.551 130.216 152.21 127.64C153.326 126.56 154.543 125.553 155.951 125.064C156.733 124.793 158.277 124.537 159.229 124.995C159.088 125.103 158.961 125.231 158.851 125.377C158.548 125.852 158.319 126.381 158.171 126.942C156.74 131.12 152.907 133.265 149.847 136.111L147.052 138.71C146.671 139.065 146.249 139.584 146.436 140.099C146.565 140.36 146.773 140.56 147.021 140.664C148.647 141.564 150.554 141.927 151.894 143.301C152.384 143.804 152.853 144.468 153.516 144.506C153.866 144.483 154.211 144.397 154.536 144.251C155.048 144.095 155.584 144.075 156.104 144.192C156.624 144.308 157.113 144.558 157.532 144.922C157.77 145.183 158.046 145.396 158.348 145.552C158.601 145.627 158.864 145.645 159.123 145.605C159.847 145.548 160.616 145.476 161.265 145.838C161.915 146.201 162.449 147.056 163.207 147.117C163.584 147.147 164.026 147.002 164.38 147.048Z" fill="black"/>
<path d="M133.107 95.2575C132.461 95.723 131.774 96.2496 131.509 97.0586C131.291 97.7188 131.393 98.4744 131.132 99.1154C130.87 99.7565 130.281 100.203 130.152 100.89C130.06 101.39 130.241 101.916 130.152 102.416C130.075 102.676 130.013 102.941 129.965 103.21C129.931 103.779 130.366 104.24 130.791 104.557C131.696 105.218 132.727 105.631 133.8 105.763C134.873 105.896 135.959 105.744 136.97 105.32C137.878 104.939 138.697 104.317 139.568 103.828C140.417 103.28 141.388 103.015 142.366 103.065C142.927 103.134 143.465 103.363 144.026 103.447C144.303 103.508 144.589 103.493 144.86 103.402C145.13 103.312 145.378 103.149 145.58 102.928C145.753 102.659 145.869 102.35 145.92 102.023C146.392 99.9283 146.178 97.7073 145.729 95.6009C145.28 93.4945 144.6 91.4682 144.121 89.3733C143.781 87.8202 143.519 86.2289 142.951 84.7598C142.383 83.2906 141.428 81.9245 140.091 81.3635C139.986 81.3055 139.867 81.288 139.751 81.3139C139.666 81.3541 139.59 81.417 139.53 81.4971C138.473 82.7542 137.677 84.258 137.198 85.9007C136.664 87.7286 136.518 89.6671 136.028 91.5026C135.817 92.2658 135.545 93.2884 135.008 93.8723C134.471 94.4561 133.716 94.8187 133.107 95.2575Z" fill="#4E886C"/>
<path opacity="0.1" d="M145.93 102.012C145.873 102.339 145.751 102.649 145.573 102.916C145.371 103.138 145.124 103.302 144.853 103.391C144.582 103.481 144.296 103.495 144.019 103.431C143.461 103.355 142.924 103.122 142.363 103.05C141.384 102.999 140.413 103.264 139.564 103.813C138.694 104.301 137.864 104.908 136.963 105.301C135.645 105.862 134.205 105.954 132.838 105.564C132.113 105.36 131.423 105.019 130.798 104.557C130.37 104.244 129.938 103.794 129.972 103.21C130.02 102.943 130.082 102.679 130.159 102.42C130.247 101.92 130.071 101.394 130.159 100.894C130.288 100.207 130.88 99.7489 131.138 99.1155C131.397 98.482 131.298 97.7226 131.512 97.0625C131.778 96.2497 132.468 95.7269 133.114 95.2575C133.76 94.7881 134.528 94.4294 135.045 93.8609C135.112 93.7723 135.172 93.6779 135.226 93.5785C135.598 92.9334 135.872 92.2226 136.035 91.4759C136.535 89.6366 136.671 87.7019 137.201 85.8702C137.682 84.2288 138.48 82.7265 139.537 81.4704C139.594 81.3885 139.669 81.3252 139.755 81.2872C139.87 81.261 139.989 81.2771 140.095 81.333C141.428 81.8978 142.383 83.2639 142.954 84.7331C143.526 86.2022 143.767 87.7858 144.124 89.3427C144.6 91.4377 145.284 93.4716 145.733 95.5742C146.181 97.6768 146.402 99.913 145.93 102.012Z" fill="black"/>
<path opacity="0.1" d="M156.042 55.4721C154.444 56.0423 152.713 55.929 151.184 55.1542C149.655 54.3793 148.435 52.9976 147.759 51.2746C147.786 50.917 147.831 50.5614 147.895 50.2099C148.235 48.4546 149.691 49.0956 150.84 49.5612C152.223 50.0655 153.561 50.7159 154.835 51.5035C155.223 51.728 155.561 52.0491 155.821 52.4422C156.325 53.2856 156.124 54.4075 156.042 55.4721Z" fill="black"/>
<path d="M153.989 55.4492C157.745 55.4492 160.789 52.0323 160.789 47.8173C160.789 43.6023 157.745 40.1853 153.989 40.1853C150.233 40.1853 147.188 43.6023 147.188 47.8173C147.188 52.0323 150.233 55.4492 153.989 55.4492Z" fill="#BE6F72"/>
<path opacity="0.1" d="M172.442 104.851C172.442 105.484 171.677 105.687 171.109 105.652C169.069 105.519 167.073 104.889 165.053 105.08C162.5 105.339 160.153 106.923 157.593 107.068C156.607 107.125 155.604 106.961 154.631 107.163C153.373 107.427 152.251 108.285 150.969 108.407C149.857 108.514 148.759 108.045 147.647 108.094C146.87 108.146 146.112 108.389 145.427 108.804C145.501 107.996 145.823 107.242 146.338 106.671C147.151 105.774 148.307 106.007 149.429 105.793C150.548 105.522 151.641 105.13 152.693 104.622C155.644 103.317 158.75 102.511 161.911 102.229C165.086 101.946 168.276 102.512 171.218 103.882C171.646 104.076 172.05 104.333 172.419 104.645C172.437 104.711 172.445 104.781 172.442 104.851Z" fill="black"/>
<path d="M150.843 61.7532L148.089 60.6085L146.926 60.1276C146.452 59.9048 145.953 59.7558 145.444 59.685C144.111 59.5705 142.856 60.5665 142.145 61.8372C141.435 63.1079 141.166 64.6229 140.938 66.0996C140.625 68.1196 140.36 70.1471 140.142 72.1823C139.908 74.0202 139.789 75.8742 139.785 77.7307C139.864 82.4549 140.755 87.1142 141.734 91.7125C142.213 93.7512 142.576 95.8225 142.819 97.9134C142.9 98.7758 142.938 99.6421 143.019 100.508C143.108 101.481 143.25 102.443 143.393 103.408L144.213 108.892C145.233 108.079 146.392 107.366 147.647 107.324C148.759 107.278 149.861 107.743 150.969 107.637C152.244 107.518 153.373 106.66 154.631 106.396C155.604 106.194 156.607 106.354 157.596 106.301C160.153 106.156 162.503 104.569 165.053 104.313C167.077 104.107 169.086 104.748 171.113 104.881C171.677 104.92 172.442 104.717 172.442 104.08C172.442 103.637 172.048 103.344 171.704 103.122C170.086 102.028 168.545 100.795 167.097 99.4322C165.757 98.2416 164.397 97.0205 163.476 95.4102C161.255 91.5369 162.017 86.2976 160.123 82.2107C158.583 78.8908 160.123 74.5406 160.123 70.7971C160.123 68.9311 160.123 67.0422 159.732 65.2296C159.487 64.2158 159.183 63.2215 158.821 62.2531L157.498 58.4944C157.47 58.3846 157.416 58.2855 157.341 58.2082C157.252 58.1394 157.147 58.1034 157.039 58.1052C156.244 58.0517 155.461 58.3335 154.842 58.8951C154.22 59.4637 153.822 60.2803 153.21 60.8718C152.54 61.5243 151.676 62.0967 150.843 61.7532Z" fill="#E3E8F4"/>
<path d="M155.288 59.5858C155.505 58.5402 155.74 57.4526 156.362 56.636C156.984 55.8194 158.12 55.3882 158.923 55.972C159.834 56.636 159.871 58.17 160.65 59.0248C161.33 59.7575 162.35 59.8147 163.275 59.9101C164.938 60.08 166.571 60.5116 168.127 61.1923C168.431 61.2978 168.707 61.4837 168.933 61.7341C169.358 62.276 169.273 63.1079 169.484 63.7833C169.773 64.6534 170.572 65.2067 170.882 66.0729C171.222 67.0345 170.882 68.1106 170.596 69.099C170.082 70.8734 169.759 72.7165 169.26 74.4986C168.76 76.2806 168.049 78.036 166.879 79.3792C166.363 79.9745 165.594 80.524 164.914 80.1691L164.652 82.287C164.576 82.7345 164.576 83.1942 164.652 83.6417C164.692 83.8656 164.787 84.0724 164.926 84.2385C165.066 84.4045 165.244 84.523 165.441 84.5804C165.492 84.9086 165.801 85.065 166.053 85.2444C166.239 85.3869 166.398 85.5694 166.52 85.7813C166.642 85.9932 166.726 86.2302 166.766 86.4787C166.806 86.7272 166.802 86.9821 166.754 87.2288C166.706 87.4754 166.614 87.7089 166.485 87.9156C166.271 88.2399 165.954 88.4956 165.852 88.881C165.699 89.4381 166.063 90.0258 166.505 90.3311C166.947 90.6363 167.468 90.7775 167.916 91.0714C168.848 91.6743 169.348 92.8611 169.668 94.0135C169.906 94.8835 170.103 95.8261 170.688 96.4595C170.912 96.6999 171.181 96.8831 171.395 97.135C171.766 97.6266 171.98 98.2429 172.004 98.8865C172.097 99.6841 171.941 100.493 171.562 101.176C170.882 102.267 169.613 102.592 168.501 103.084C166.696 103.916 165.21 105.404 163.618 106.671C162.97 107.257 162.207 107.66 161.391 107.846C160.289 108.01 159.205 107.465 158.096 107.415C157.433 107.422 156.773 107.519 156.131 107.705L154.091 108.201C154.199 106.427 153.329 104.649 152.843 102.958C151.925 99.7756 151.755 96.3717 151.972 93.0366C152.19 89.7014 152.795 86.4121 153.394 83.138C153.812 80.8484 153.771 78.4558 154.414 76.231C155.016 74.0903 155.876 72.0335 156.192 69.8049C156.709 66.1988 154.56 63.1422 155.288 59.5858Z" fill="#4E886C"/>
<path d="M170.756 66.6415C170.943 67.0293 171.075 67.4478 171.147 67.8817C171.304 68.5539 171.599 69.1758 172.007 69.6981C172.349 70.0367 172.653 70.4212 172.912 70.8429C173.224 71.5069 173.105 72.3158 173.252 73.0409C173.422 73.8308 173.915 74.5177 173.986 75.3305C173.988 75.5634 174.007 75.7957 174.044 76.025C174.265 76.9484 175.475 77.1698 175.744 78.0932C175.924 78.6923 175.615 79.3449 175.673 79.9745C175.715 80.1692 175.725 80.3709 175.703 80.5698C175.626 80.7947 175.491 80.9887 175.316 81.1269C174.19 82.3334 173.411 83.8893 173.078 85.5954C172.751 87.2923 172.579 89.0223 172.565 90.7584L171.235 88.7856C171.094 88.5462 170.914 88.339 170.705 88.175C170.535 88.0605 170.338 88.0033 170.164 87.8888C169.661 87.5683 169.464 86.889 169.27 86.2785C168.731 84.5884 167.925 83.0215 166.89 81.6535C166.349 80.9399 165.72 80.2225 165.601 79.2953C165.565 78.8693 165.586 78.4399 165.662 78.0207C166.002 75.5213 166.366 72.9607 167.451 70.7437C167.957 69.7057 168.614 68.767 169.1 67.7138C169.426 67.0155 169.885 65.1991 170.756 66.6415Z" fill="#4E886C"/>
<path d="M137.211 69.0417C137.218 69.363 137.145 69.6799 137 69.9576C136.87 70.1266 136.701 70.2518 136.511 70.3192C136.322 70.3865 136.119 70.3935 135.926 70.3392C135.539 70.2301 135.174 70.0384 134.851 69.7744C133.904 69.1028 132.956 68.4299 132.009 67.7558C131.48 67.3979 130.97 67.0055 130.482 66.5804C129.736 65.8739 129.06 65.0794 128.466 64.2107C126.813 61.9211 125.351 59.4369 123.511 57.342C123.011 56.7696 122.491 56.2201 122.008 55.621C121.348 54.7549 120.742 53.8395 120.193 52.8811C119.662 51.9996 119.111 51.0227 119.203 49.9695C119.257 49.3742 119.512 48.8247 119.587 48.2332C119.662 47.6418 119.461 46.9205 118.951 46.7603C118.891 46.7433 118.83 46.7318 118.768 46.7259C118.667 46.7139 118.568 46.6896 118.472 46.6534C117.999 46.4321 118.071 45.6117 118.411 45.1805C118.751 44.7492 119.254 44.5088 119.563 44.0357C119.707 43.7549 119.869 43.4858 120.046 43.2305C120.274 43.0114 120.546 42.8581 120.839 42.784C122.8 42.1354 124.875 42.0475 126.874 42.5283C127.214 42.6123 127.602 42.7649 127.704 43.1351C127.745 43.3154 127.745 43.5043 127.704 43.6846C127.554 44.437 127.467 45.2036 127.445 45.9742C127.445 46.1348 127.453 46.2954 127.469 46.455C127.629 48.073 128.564 49.4429 129.476 50.706C130.557 52.2095 131.655 53.7015 132.757 55.1897C133.353 56.0522 134.019 56.8506 134.746 57.5747C135.426 58.2082 136.307 58.7195 136.837 59.5323C137.269 60.1887 137.13 61.0854 137.177 61.8753C137.335 64.2604 137.347 66.6549 137.211 69.0417Z" fill="#4E886C"/>
<path d="M180.396 84.962C180.732 84.5956 181.035 84.193 181.3 83.76C181.586 83.2234 181.814 82.6509 181.98 82.0542L183.953 75.7769C184.265 74.7848 184.578 73.7888 184.973 72.8234C185.381 71.7816 185.864 70.778 186.309 69.7706C187.455 67.1194 188.341 64.3366 188.951 61.4708C189.058 61.0771 189.094 60.6632 189.056 60.2536C188.961 59.5934 188.516 59.0782 188.091 58.6089C187.663 58.0908 187.176 57.6391 186.642 57.2657C186.374 57.0785 186.075 56.9531 185.764 56.8968C185.452 56.8405 185.133 56.8543 184.826 56.9375C183.956 57.2237 183.409 58.2235 183.208 59.2271C183.007 60.2307 183.082 61.2572 182.997 62.2798C182.875 63.7452 182.426 65.1609 182.317 66.6301C182.259 67.481 182.317 68.3396 182.225 69.1867C182.058 70.2992 181.712 71.3684 181.205 72.3426C180.1 74.6631 178.608 76.7231 176.808 78.41C176.316 78.8183 175.872 79.2967 175.489 79.8333C175.169 80.37 174.953 80.9757 174.853 81.6116C174.627 82.5799 174.725 83.6075 175.129 84.5003C175.683 85.5611 176.747 86.0266 177.764 86.2632C179.138 86.5838 179.454 86.0572 180.396 84.962Z" fill="#BE6F72"/>
<path d="M154.029 36.7586C154.322 36.1413 154.771 35.6344 155.318 35.3012C155.866 34.968 156.489 34.8232 157.11 34.885C157.735 35.0092 158.317 35.3274 158.789 35.8036C159.262 36.2797 159.606 36.8947 159.783 37.579C159.943 38.1476 160.007 38.7773 160.286 39.2657C160.708 40.0022 161.49 40.2159 162.075 40.7501C162.424 41.1142 162.705 41.5528 162.901 42.0403C163.097 42.5279 163.205 43.0544 163.217 43.5892C163.25 44.6815 163.096 45.7707 162.765 46.7984C162.624 47.2369 162.511 47.6857 162.425 48.1417C162.357 48.5843 162.35 49.0346 162.289 49.4772C162.214 50.0512 162.037 50.6025 161.769 51.0986C161.501 51.5947 161.147 52.0256 160.728 52.3659C160.609 52.475 160.46 52.5356 160.306 52.5377C160.041 52.5033 159.878 52.1561 159.779 51.8432C159.239 50.0916 159.368 47.9509 158.372 46.5542C157.918 45.9908 157.371 45.5331 156.76 45.2072C156.511 45.0269 156.23 44.9085 155.937 44.8599C155.506 44.8859 155.091 45.056 154.747 45.3484C154.029 45.8886 153.233 46.2838 152.394 46.5161C151.975 46.6274 151.54 46.6324 151.119 46.5307C150.698 46.429 150.303 46.2233 149.963 45.9284C149.493 45.4934 149.15 44.8408 148.63 44.5012C148.109 44.1616 147.565 44.1807 147.052 43.9479C146.725 43.7917 146.434 43.5538 146.201 43.2522C145.968 42.9506 145.799 42.5933 145.708 42.2076C145.617 41.8219 145.606 41.4179 145.675 41.0265C145.744 40.635 145.891 40.2664 146.107 39.9488C146.447 39.4908 146.95 39.2314 147.253 38.7238C147.644 38.0675 147.61 37.1669 147.797 36.3808C147.907 35.8835 148.122 35.4229 148.423 35.0373C148.724 34.6518 149.103 34.3523 149.527 34.1637C149.939 34.0067 150.381 33.9767 150.807 34.0767C151.233 34.1767 151.627 34.4031 151.948 34.7323C152.288 35.0758 152.561 35.5184 152.894 35.8771C153.223 36.2305 153.625 36.4856 154.065 36.6189C154.505 36.7523 154.967 36.7596 155.41 36.6403" fill="#292426"/>
<path opacity="0.1" d="M159.62 92.9259C159.422 93.1238 159.281 93.3839 159.217 93.6725C159.153 93.9611 159.167 94.2648 159.259 94.5439C159.334 94.7233 162.843 93.9639 163.214 93.9066C164.139 93.7578 165.761 93.8303 166.383 92.8801C167.491 91.1973 164.057 91.5713 163.428 91.6323C162.231 91.7468 160.531 91.93 159.62 92.9259Z" fill="black"/>
<path d="M127.697 43.6999C127.547 44.4523 127.461 45.2188 127.439 45.9894C126.419 46.2222 125.358 45.8406 124.378 45.459L121.566 44.3829C121.395 44.2602 121.189 44.2152 120.989 44.2571C120.79 44.2989 120.612 44.4244 120.492 44.6081C120.04 45.1347 119.417 46.1344 118.792 46.7259C118.691 46.7139 118.592 46.6896 118.496 46.6534C118.023 46.4321 118.095 45.6117 118.435 45.1805C118.775 44.7492 119.278 44.5088 119.587 44.0357C119.731 43.7549 119.893 43.4858 120.07 43.2305C120.298 43.0114 120.57 42.8581 120.862 42.784C122.824 42.1354 124.899 42.0475 126.898 42.5283C127.238 42.6123 127.626 42.7649 127.728 43.1351C127.761 43.3232 127.75 43.5177 127.697 43.6999Z" fill="#4E886C"/>
<path opacity="0.1" d="M127.697 43.6999C127.547 44.4523 127.461 45.2188 127.439 45.9894C126.419 46.2222 125.358 45.8406 124.378 45.459L121.566 44.3829C121.395 44.2602 121.189 44.2152 120.989 44.2571C120.79 44.2989 120.612 44.4244 120.492 44.6081C120.04 45.1347 119.417 46.1344 118.792 46.7259C118.691 46.7139 118.592 46.6896 118.496 46.6534C118.023 46.4321 118.095 45.6117 118.435 45.1805C118.775 44.7492 119.278 44.5088 119.587 44.0357C119.731 43.7549 119.893 43.4858 120.07 43.2305C120.298 43.0114 120.57 42.8581 120.862 42.784C122.824 42.1354 124.899 42.0475 126.898 42.5283C127.238 42.6123 127.626 42.7649 127.728 43.1351C127.761 43.3232 127.75 43.5177 127.697 43.6999Z" fill="black"/>
<path opacity="0.1" d="M153.421 116.146C153.91 116.329 154.441 116.596 154.608 117.146L150.67 116.024L148.63 115.44C148.269 115.337 146.977 115.219 146.739 114.902C146.399 114.437 147.606 114.757 147.824 114.791C148.483 114.902 149.143 115.017 149.799 115.15C151.037 115.398 152.227 115.807 153.421 116.146Z" fill="black"/>
<path opacity="0.1" d="M154.948 120.058C154.608 119.802 153.632 119.832 153.213 119.722C152.601 119.558 151.999 119.34 151.398 119.13C150.177 118.684 148.966 118.176 147.712 117.848C147.48 117.791 146.692 117.776 146.729 117.447C146.766 117.119 147.518 117.005 147.705 116.989C148.817 116.898 150.204 117.482 151.238 117.898C152.555 118.427 153.803 119.154 154.948 120.058Z" fill="black"/>
<path opacity="0.1" d="M152.452 112.658C151.204 112.277 150.071 111.407 148.786 111.239C148.451 111.253 148.122 111.14 147.851 110.918C147.7 110.752 147.595 110.54 147.548 110.308C148.409 110.258 149.408 110.666 150.19 111.052C150.621 111.259 151.035 111.507 151.428 111.792C151.714 111.987 152.142 112.548 152.452 112.658Z" fill="black"/>
<path d="M176.241 78.4901C176.03 80.0766 176.335 81.6953 177.1 83.0499C177.866 84.4045 179.041 85.4043 180.409 85.8664C180.243 86.7708 179.41 87.2707 178.821 87.9156C177.992 88.82 177.563 90.1746 176.584 90.8615C175.492 91.6247 174.088 91.3271 172.844 91.0065C172.73 90.9923 172.626 90.931 172.551 90.8348C172.526 90.7891 172.507 90.7387 172.497 90.686C172.085 88.9955 171.817 87.1905 172.238 85.4963C172.578 84.0538 173.394 82.8251 174.047 81.5505C174.7 80.276 174.761 78.9099 176.241 78.4901Z" fill="#4E886C"/>
<path d="M145.838 56.6093C144.522 56.7168 143.244 57.1536 142.098 57.8877C141.336 58.3761 140.554 59.0324 139.683 58.9142C139.17 58.8493 138.663 58.5326 138.163 58.6852C137.882 58.8127 137.619 58.9877 137.385 59.2042C137.266 59.3105 137.124 59.3804 136.974 59.4071C136.824 59.4339 136.67 59.4165 136.528 59.3568L136.188 64.6381C136.059 66.6453 135.933 68.6945 136.361 70.6521C136.582 71.6519 137.069 72.5601 137.123 73.5751C137.177 74.5902 137.096 75.6319 137.16 76.6584C137.222 77.6086 137.409 78.5435 137.456 79.4937C137.551 81.2872 137.157 83.0655 136.776 84.8094C136.201 87.3813 135.855 90.0105 134.736 92.3383C134.423 92.9832 134.056 93.6395 134.056 94.3722C134.056 94.4638 134.056 94.5515 134.076 94.6393C133.736 94.8492 133.42 95.0476 133.131 95.2537C132.485 95.7231 131.795 96.2458 131.529 97.0586C131.315 97.7188 131.414 98.4744 131.155 99.1116C130.897 99.7489 130.305 100.203 130.176 100.89C130.084 101.39 130.261 101.916 130.176 102.416C130.099 102.675 130.037 102.939 129.989 103.206C129.955 103.779 130.387 104.24 130.815 104.553C131.44 105.015 132.13 105.356 132.855 105.561L134.885 96.5168C136.736 92.6765 138.276 88.6574 139.486 84.5079C139.832 83.1516 140.277 81.8293 140.816 80.5545C141.201 79.8334 141.541 79.0837 141.836 78.3108C142.145 77.3491 142.176 76.3074 142.325 75.2923C142.503 74.1076 142.77 72.9421 143.125 71.8083C143.492 70.5834 143.917 69.3623 143.992 68.0763C144.104 66.237 143.509 64.2947 144.141 62.5927C144.41 61.9557 144.759 61.3658 145.178 60.8412C146.056 59.6354 146.855 58.3723 147.732 57.1664C147.276 56.6207 146.518 56.5635 145.838 56.6093Z" fill="#4E886C"/>
<g opacity="0.1">
<path opacity="0.1" d="M155.42 35.5031L154.995 35.5373L154.948 35.5754C155.107 35.5681 155.265 35.5439 155.42 35.5031Z" fill="black"/>
<path opacity="0.1" d="M163.2 43.4251C163.129 44.1838 162.983 44.9312 162.765 45.6536C162.624 46.0921 162.511 46.5409 162.425 46.9969C162.357 47.4395 162.35 47.8898 162.289 48.3325C162.214 48.9064 162.037 49.4577 161.769 49.9538C161.501 50.4499 161.147 50.8808 160.728 51.2211C160.609 51.3303 160.46 51.3908 160.307 51.3929C160.041 51.3585 159.878 51.0113 159.779 50.6984C159.239 48.9468 159.368 46.8061 158.372 45.4094C157.918 44.846 157.371 44.3883 156.76 44.0624C156.511 43.8821 156.23 43.7637 155.937 43.7151C155.506 43.7412 155.091 43.9112 154.747 44.2036C154.029 44.7438 153.233 45.139 152.394 45.3713C151.975 45.4826 151.54 45.4876 151.119 45.3859C150.698 45.2842 150.303 45.0785 149.963 44.7836C149.493 44.3486 149.15 43.6961 148.63 43.3564C148.109 43.0168 147.565 43.0359 147.052 42.8031C146.731 42.6494 146.445 42.4166 146.216 42.1219C145.986 41.8273 145.819 41.4784 145.726 41.1012C145.714 41.0536 145.705 41.0051 145.699 40.9562C145.614 41.3821 145.623 41.825 145.726 42.246C145.819 42.6232 145.986 42.9721 146.216 43.2667C146.445 43.5613 146.731 43.7942 147.052 43.9479C147.565 44.1807 148.143 44.1845 148.63 44.5012C149.116 44.8179 149.493 45.4934 149.963 45.9284C150.303 46.2233 150.698 46.429 151.119 46.5307C151.54 46.6324 151.975 46.6274 152.394 46.5161C153.233 46.2838 154.029 45.8886 154.747 45.3484C155.091 45.056 155.506 44.8859 155.937 44.8599C156.23 44.9085 156.511 45.0269 156.76 45.2072C157.363 45.5394 157.903 46.0009 158.348 46.5657C159.344 47.9623 159.215 50.1031 159.756 51.8546C159.854 52.1713 160.018 52.5148 160.283 52.5491C160.446 52.55 160.604 52.485 160.728 52.3659C161.149 52.0246 161.504 51.5921 161.772 51.0939C162.041 50.5957 162.218 50.0421 162.292 49.4658C162.354 49.0231 162.36 48.5729 162.428 48.1302C162.514 47.6743 162.628 47.2255 162.768 46.787C163.1 45.7593 163.253 44.67 163.221 43.5777C163.214 43.532 163.207 43.4785 163.2 43.4251Z" fill="black"/>
</g>
<path d="M141.686 74.0445L141.455 77.5285C141.421 78.0016 140.615 89.2664 134.671 102.432C129.571 113.723 119.645 128.43 100.906 136.695C99.4436 137.344 97.9259 137.949 96.3527 138.512L94.5981 132.33C99.0031 130.774 103.246 128.691 107.254 126.117C116.806 119.928 124.232 111.094 129.411 99.726C132.159 93.6735 134.117 87.2093 135.226 80.5316H113.905V74.0445H141.686Z" fill="#FDEF25"/>
<path opacity="0.1" d="M98.6106 136.699C117.346 128.434 127.275 113.731 132.373 102.439C138.316 89.2741 139.126 78.0169 139.156 77.5361L139.388 74.0521H141.768L141.537 77.5361C141.506 78.0093 140.697 89.2741 134.753 102.439C129.652 113.731 119.727 128.434 100.991 136.699C99.5287 137.348 98.0098 137.954 96.4343 138.519L96.2031 137.706C97.0237 137.378 97.8262 137.042 98.6106 136.699Z" fill="white"/>
<path d="M61.0979 132.33L59.3433 138.512C57.7678 137.947 56.249 137.34 54.7869 136.691C36.0509 128.426 26.1219 113.723 21.0248 102.432C15.081 89.2664 14.2717 78.0093 14.2411 77.5285L14.0099 74.0445H41.7771V80.5316H20.4535C21.5682 87.2102 23.5321 93.6743 26.2851 99.726C31.4639 111.094 38.8868 119.928 48.4384 126.113C52.4469 128.69 56.6913 130.774 61.0979 132.33Z" fill="#FDEF25"/>
<path opacity="0.1" d="M57.0787 136.699C38.3428 128.434 28.4138 113.731 23.3166 102.439C17.3728 89.2741 16.5635 78.0169 16.5329 77.5361L16.3017 74.0521H13.9215L14.1527 77.5361C14.1833 78.0093 14.9926 89.2741 20.9364 102.439C26.0369 113.731 35.9625 128.434 54.6985 136.699C56.1606 137.348 57.6794 137.954 59.2549 138.519L59.4862 137.706C58.6678 137.378 57.8653 137.042 57.0787 136.699Z" fill="white"/>
<path d="M109.924 192.088V227.069H45.7691V192.088L47.8093 189.035C68.5991 180.754 72.8121 159.16 73.652 150.616C73.777 149.435 73.8485 148.248 73.8662 147.059H81.7992C81.817 148.248 81.8885 149.435 82.0135 150.616C82.8669 159.16 87.08 180.762 107.856 189.035L109.924 192.088Z" fill="#FDEF25"/>
<path opacity="0.1" d="M109.924 192.088H45.7691V196.476H109.924V192.088Z" fill="black"/>
<path opacity="0.1" d="M51.2097 189.035C71.9994 180.754 76.2124 159.16 77.0523 150.616C77.1773 149.435 77.2488 148.248 77.2666 147.059H73.8662C73.8485 148.248 73.777 149.435 73.652 150.616C72.7985 159.16 68.5855 180.762 47.8093 189.035L45.7691 192.088V227.069H49.1695V192.088L51.2097 189.035Z" fill="white"/>
<path opacity="0.1" d="M36.0238 74.0445H41.7771V80.5316H36.5338C36.3275 78.3947 36.1575 76.2323 36.0238 74.0445Z" fill="black"/>
<path opacity="0.1" d="M61.0979 132.33L59.3433 138.512C57.7678 137.947 56.249 137.34 54.7869 136.691C52.3816 133.395 50.2562 129.854 48.4384 126.113C52.4469 128.69 56.6913 130.774 61.0979 132.33Z" fill="black"/>
<path opacity="0.1" d="M94.5948 132.33C98.9997 130.774 103.243 128.691 107.251 126.117C105.432 129.858 103.307 133.401 100.902 136.699C99.4402 137.348 97.9226 137.953 96.3493 138.515L94.5948 132.33Z" fill="black"/>
<path opacity="0.1" d="M119.666 74.0445C119.532 76.2323 119.362 78.3947 119.155 80.5316H113.916V74.0445H119.666Z" fill="black"/>
<path opacity="0.1" d="M82.027 150.616C79.2656 151.216 76.4271 151.216 73.6656 150.616C73.7906 149.435 73.8621 148.248 73.8798 147.059H81.8128C81.8305 148.248 81.902 149.435 82.027 150.616Z" fill="black"/>
<path d="M36.7038 63.2987C36.85 111.403 55.2119 150.303 77.848 150.303C100.484 150.303 118.843 111.403 118.992 63.2987H36.7038Z" fill="#FDEF25"/>
<path opacity="0.1" d="M44.0145 63.2987H36.7038C36.85 111.403 55.2119 150.303 77.848 150.303C79.0729 150.3 80.2956 150.184 81.5034 149.956C60.5777 146.033 44.154 108.785 44.0145 63.2987Z" fill="white"/>
<path d="M99.6647 205.478H56.028V218.071H99.6647V205.478Z" fill="#292426"/>
<path opacity="0.1" d="M58.0682 207.195H99.6647V205.478H56.028V218.071H58.0682V207.195Z" fill="white"/>
<defs>
<linearGradient id="paint0_linear" x1="161.922" y1="171.68" x2="161.922" y2="18.1634" gradientUnits="userSpaceOnUse">
<stop stop-color="#808080" stop-opacity="0.25"/>
<stop offset="0.54" stop-color="#808080" stop-opacity="0.12"/>
<stop offset="1" stop-color="#808080" stop-opacity="0.1"/>
</linearGradient>
</defs>
</svg>
