<svg width="212" height="219" viewBox="0 0 212 219" fill="none" xmlns="http://www.w3.org/2000/svg">
<path d="M204.688 92.0921C204.202 91.6733 203.632 91.393 203.029 91.2755C202.393 91.1114 201.743 91.0084 201.097 90.8939L192.725 89.5392C191.88 89.3632 191.019 89.3119 190.162 89.3866C189.732 89.4262 189.313 89.5612 188.93 89.784C188.547 90.0067 188.208 90.3127 187.931 90.684C187.681 91.0295 187.545 91.4604 187.543 91.9051C187.59 92.3527 187.72 92.7843 187.924 93.172C188.005 93.3532 188.075 93.5407 188.132 93.733C188.212 94.1646 188.312 94.5913 188.431 95.0113C188.468 95.1023 188.516 95.187 188.574 95.2632C188.575 95.2848 188.575 95.3065 188.574 95.3281C188.482 95.8547 188.778 96.4042 188.645 96.9117C188.529 97.3467 188.152 97.61 187.914 97.9725C187.755 98.2297 187.667 98.5336 187.661 98.8464C187.655 99.1592 187.731 99.467 187.88 99.7317C188.135 100.174 188.597 100.476 188.73 100.983C188.903 101.651 188.434 102.296 188.016 102.811C187.247 103.76 186.535 104.765 185.887 105.822C185.705 106.082 185.588 106.391 185.547 106.719C185.51 107.383 186.078 107.967 185.979 108.627C185.901 109.146 185.449 109.462 185.058 109.772C183.613 110.84 182.453 112.557 182.337 114.5C181.966 111.409 180.825 108.499 179.046 106.104C178.56 105.448 178.026 104.788 177.825 103.956C177.75 103.624 177.737 103.269 177.635 102.949C177.295 101.937 176.213 101.502 175.741 100.571C175.401 99.9149 175.401 99.0715 174.979 98.4953C174.557 97.9191 173.894 97.7894 173.531 97.2322C173.349 96.8549 173.194 96.4618 173.068 96.0569C172.915 95.7267 172.701 95.4377 172.439 95.2098C172.389 95.1647 172.337 95.1227 172.283 95.0838C172.339 95.0272 172.384 94.9578 172.415 94.8802C172.446 94.8026 172.463 94.7186 172.463 94.6336C172.463 94.1871 172.068 93.8933 171.725 93.6719C171.283 93.3895 170.851 93.0843 170.429 92.7675C170.889 92.5272 171.288 92.1611 171.589 91.7029C171.966 91.0194 172.122 90.2108 172.031 89.4133C172.008 88.7696 171.794 88.1531 171.422 87.6618C171.208 87.4061 170.939 87.2229 170.715 86.9825C170.134 86.3453 169.936 85.4027 169.695 84.5327C169.375 83.3879 168.875 82.1859 167.944 81.5791C167.495 81.2853 166.971 81.1479 166.533 80.8388C166.094 80.5297 165.727 79.9459 165.88 79.3849C165.982 79.0033 166.298 78.74 166.512 78.4157C166.768 77.9962 166.866 77.4806 166.785 76.9805C166.704 76.4805 166.451 76.0363 166.08 75.7445C165.829 75.5651 165.519 75.4087 165.468 75.0805C165.271 75.0231 165.093 74.9046 164.953 74.7386C164.814 74.5725 164.719 74.3657 164.679 74.1418C164.603 73.693 164.603 73.232 164.679 72.7833C164.768 72.0735 164.855 71.3663 164.941 70.6616C165.091 70.7315 165.252 70.7675 165.414 70.7675C165.576 70.7675 165.737 70.7315 165.886 70.6616C166.181 71.1975 166.523 71.6987 166.907 72.1575C167.942 73.5297 168.748 75.1003 169.287 76.7939C169.481 77.4044 169.678 78.0875 170.181 78.4118C170.355 78.5225 170.552 78.5797 170.722 78.698C170.931 78.8621 171.111 79.0693 171.252 79.3086C171.66 79.9153 172.068 80.5183 172.473 81.125L172.493 81.2166C172.504 81.2703 172.523 81.3218 172.548 81.3692C172.623 81.4643 172.727 81.5243 172.84 81.5371C174.092 81.8615 175.496 82.1591 176.581 81.3921C177.56 80.7052 177.988 79.3468 178.818 78.4386C179.406 77.7937 180.239 77.2938 180.406 76.3856C180.207 76.3168 180.012 76.2366 179.821 76.1452C179.991 75.9544 180.161 75.733 180.392 75.4812C180.728 75.1121 181.031 74.7069 181.297 74.2715C181.584 73.7344 181.812 73.1604 181.977 72.562C182.632 70.4657 183.289 68.3682 183.949 66.2694C184.262 65.2773 184.575 64.2775 184.969 63.312C185.377 62.2665 185.86 61.2629 186.306 60.2364C187.455 57.5667 188.342 54.7646 188.951 51.8794C189.059 51.4857 189.095 51.0717 189.056 50.6621C188.961 50.0019 188.516 49.4829 188.091 49.0136C187.663 48.4943 187.176 48.0413 186.642 47.6665C186.374 47.4794 186.075 47.354 185.764 47.2977C185.452 47.2413 185.133 47.2552 184.826 47.3384C183.956 47.6246 183.409 48.6243 183.208 49.628C183.007 50.6316 183.082 51.6657 182.997 52.6807C182.875 54.1499 182.426 55.5694 182.317 57.0424C182.259 57.8933 182.317 58.7558 182.225 59.6067C182.058 60.7204 181.712 61.7909 181.205 62.7663C180.102 65.0928 178.609 67.1582 176.808 68.849C176.601 69.0436 176.387 69.2306 176.183 69.4405C176.183 69.2764 176.207 69.1085 176.227 68.9444C176.079 68.9876 175.934 69.0451 175.795 69.1161C175.812 68.9234 175.795 68.7288 175.744 68.5437C175.472 67.6317 174.262 67.3989 174.044 66.4717C174.008 66.2423 173.988 66.01 173.986 65.7772C173.915 64.9644 173.422 64.2775 173.252 63.4876C173.095 62.7587 173.214 61.9612 172.912 61.2857C172.654 60.8634 172.35 60.4789 172.007 60.141C171.599 59.6172 171.304 58.9941 171.147 58.3207C171.103 58.1338 171.062 57.9391 171.014 57.7522C171.066 57.3287 171.024 56.8976 170.892 56.4967C170.582 55.6343 169.783 55.081 169.494 54.2071C169.27 53.5279 169.368 52.6807 168.943 52.1541C168.718 51.9025 168.441 51.7154 168.138 51.6084C166.581 50.9283 164.948 50.4954 163.285 50.3225C162.354 50.2271 161.327 50.1736 160.66 49.4372C159.881 48.5824 159.844 47.0445 158.933 46.3844C158.13 45.8005 156.995 46.2317 156.372 47.0522C156.279 47.1729 156.192 47.3003 156.114 47.4338C156 46.9223 155.976 46.391 156.042 45.8692C156.042 45.7395 156.066 45.6059 156.076 45.4876C157.612 44.9246 158.918 43.7666 159.762 42.2211C159.762 42.2211 159.762 42.2211 159.762 42.244L159.803 42.3623C159.902 42.6409 160.058 42.908 160.29 42.9385C160.443 42.9365 160.592 42.8759 160.711 42.7668C160.916 42.6068 161.106 42.4226 161.276 42.2173C161.362 42.1105 161.443 41.9998 161.52 41.8853C161.677 41.647 161.812 41.3913 161.922 41.1221C162.091 40.7172 162.205 40.2864 162.262 39.8438C162.323 39.4011 162.33 38.947 162.398 38.5044C162.461 38.1617 162.544 37.824 162.646 37.4931C162.68 37.3825 162.714 37.2718 162.745 37.1612C162.775 37.0505 162.819 36.9017 162.853 36.7796C163.066 35.9947 163.181 35.1805 163.193 34.3602C163.193 34.2229 163.193 34.0855 163.193 33.9481C163.181 33.4128 163.074 32.8856 162.877 32.3975C162.681 31.9093 162.4 31.47 162.051 31.1052C161.466 30.5672 160.691 30.342 160.262 29.6132C159.983 29.1247 159.922 28.4951 159.759 27.9227C159.583 27.2377 159.239 26.6218 158.766 26.145C158.294 25.6681 157.712 25.3493 157.086 25.2248C156.333 25.1321 155.577 25.3655 154.971 25.8773V25.8773L154.924 25.9193C154.587 26.2083 154.301 26.5655 154.08 26.9725C153.631 26.8336 153.22 26.5713 152.884 26.2093C152.544 25.8544 152.282 25.408 151.938 25.0645C151.617 24.7347 151.223 24.5075 150.797 24.4069C150.372 24.3062 149.929 24.3356 149.517 24.4921C149.093 24.683 148.714 24.9842 148.413 25.3709C148.113 25.7576 147.898 26.2189 147.786 26.7168C147.599 27.5029 147.633 28.4073 147.242 29.0637C146.94 29.575 146.443 29.8268 146.096 30.2924C145.881 30.5872 145.734 30.9372 145.668 31.3113V31.3113C145.627 31.5205 145.607 31.7343 145.61 31.9485V31.9485C145.61 32.0439 145.61 32.1393 145.631 32.2309C145.631 32.2309 145.631 32.2614 145.631 32.2767C145.643 32.3813 145.662 32.4846 145.688 32.5858V32.5858C145.785 32.9727 145.958 33.33 146.195 33.6314C146.42 33.92 146.7 34.1471 147.015 34.2954C147.143 34.3516 147.275 34.3987 147.409 34.4366L147.814 34.5396L147.956 34.5777C147.468 35.6066 147.197 36.7477 147.164 37.9128C147.131 39.078 147.337 40.236 147.766 41.2977C147.766 41.4045 147.742 41.5114 147.732 41.6182C147.677 43.1208 147.736 44.626 147.909 46.1172C147.956 46.7087 147.984 47.3613 147.661 47.8306C147.514 48.0153 147.348 48.1804 147.168 48.3229C147.351 48.0558 147.538 47.7925 147.729 47.5292C147.249 46.9873 146.491 46.9186 145.811 46.972C144.495 47.0824 143.217 47.5203 142.07 48.2542C141.309 48.7465 140.527 49.399 139.656 49.2845C139.143 49.2196 138.636 48.9029 138.136 49.0556C137.855 49.1846 137.593 49.3594 137.358 49.5745C137.172 49.7242 136.947 49.8019 136.718 49.7959C136.184 49.0594 135.358 48.5595 134.719 47.9604C133.991 47.2336 133.325 46.4326 132.73 45.5677C131.628 44.0757 130.53 42.5798 129.448 41.0725C128.537 39.8056 127.602 38.4357 127.442 36.8139C127.426 36.653 127.418 36.4912 127.418 36.3293C127.44 35.5587 127.527 34.7921 127.677 34.0397C127.717 33.858 127.717 33.668 127.677 33.4864C127.575 33.1048 127.184 32.9636 126.847 32.8796C126.891 32.5858 126.922 32.2843 126.939 31.9981C127.129 28.7164 126.922 25.3812 127.541 22.1682C127.775 20.9318 128.16 19.6802 128.952 18.7834C130.193 17.3753 132.271 17.0357 133.223 15.3681C134.018 13.9791 133.702 12.0139 132.702 10.789C131.703 9.56403 130.162 9.06413 128.697 9.12519C128.286 9.10935 127.88 9.23159 127.531 9.47626C127.204 9.80136 126.96 10.2173 126.823 10.6821L125.365 14.6622C124.942 15.6984 124.585 16.767 124.297 17.86C123.889 19.5314 123.797 21.2943 123.474 22.981C123.474 24.2784 122.729 25.8964 122.321 27.0908C121.866 28.434 121.372 29.762 120.961 31.1319C120.859 31.4754 120.502 32.4942 120.281 33.4215C120.197 33.4761 120.12 33.5414 120.05 33.6161C119.872 33.8715 119.711 34.1405 119.567 34.4213C119.257 34.8792 118.754 35.1234 118.414 35.5661C118.074 36.0087 118.003 36.8215 118.475 37.0429C118.571 37.0791 118.671 37.1034 118.771 37.1154C118.833 37.1212 118.895 37.1327 118.955 37.1497C119.465 37.31 119.666 38.0312 119.591 38.6265C119.516 39.2218 119.251 39.7713 119.206 40.3666C119.115 41.4198 119.666 42.4005 120.196 43.2858C120.745 44.2455 121.352 45.1622 122.012 46.0295C122.491 46.6324 123.032 47.1743 123.515 47.7543C125.354 49.876 126.816 52.3564 128.469 54.6612C129.064 55.5311 129.74 56.3269 130.485 57.0348C130.972 57.4623 131.482 57.8561 132.012 58.2139L134.855 60.2364C135.177 60.5015 135.542 60.6945 135.929 60.8049C136.056 60.824 136.184 60.824 136.31 60.8049C136.327 60.9003 136.341 60.9919 136.361 61.0873C136.582 62.0871 137.069 62.9953 137.123 64.0142C137.177 65.033 137.096 66.0748 137.16 67.1051C137.222 68.0553 137.409 69.0131 137.456 69.948C137.551 71.7492 137.157 73.5274 136.776 75.2904C136.201 77.87 135.855 80.503 134.736 82.8422C134.423 83.4871 134.056 84.1434 134.056 84.8799C134.056 84.9677 134.056 85.0593 134.076 85.147L133.566 85.4714C133.417 85.5668 133.267 85.6622 133.131 85.7614C132.485 86.2346 131.795 86.7574 131.529 87.574C131.315 88.2342 131.414 88.9897 131.155 89.6308C131.143 89.6596 131.129 89.6876 131.115 89.7148C130.842 90.3101 130.302 90.7527 130.179 91.4052C130.088 91.9051 130.264 92.4356 130.179 92.9316C130.179 92.9316 130.179 92.9316 130.179 92.9507C130.102 93.1999 130.041 93.4549 129.996 93.7139C129.992 93.7985 129.999 93.8833 130.016 93.9658C130.081 94.2549 130.223 94.5146 130.424 94.7099C130.547 94.8418 130.68 94.9607 130.822 95.0648C130.967 95.1716 131.117 95.2708 131.271 95.3624L131.359 95.4158C131.489 95.4921 131.618 95.5647 131.75 95.6333L131.839 95.6753C131.992 95.7516 132.148 95.8203 132.305 95.8814L132.413 95.9195C132.536 95.9653 132.662 96.0073 132.787 96.0417L132.872 96.0722L132.951 96.0913L133.291 96.1714L133.417 96.1981C133.566 96.2261 133.719 96.249 133.876 96.2668H134.012C134.127 96.2668 134.239 96.2859 134.352 96.2897H134.511C134.63 96.2897 134.746 96.2897 134.852 96.2897H134.974C135.134 96.2897 135.294 96.263 135.453 96.2401H135.504C135.647 96.2172 135.79 96.1905 135.933 96.1561L136.042 96.1294C136.174 96.0951 136.307 96.0607 136.439 96.0149L136.511 95.992C136.671 95.9386 136.83 95.8814 136.987 95.8127C137.528 95.5631 138.053 95.271 138.558 94.9388C138.898 94.729 139.238 94.5153 139.578 94.3206C139.83 94.178 140.089 94.0506 140.353 93.939C140.996 93.6307 141.696 93.4999 142.393 93.5575C142.738 93.6101 143.078 93.6878 143.414 93.7902C143.414 93.8322 143.414 93.8742 143.414 93.9162C143.69 95.7478 143.963 97.5795 144.233 99.4112C144.678 99.0515 145.149 98.7337 145.641 98.461C145.549 98.7376 145.488 99.026 145.461 99.3196C145.44 99.5467 145.44 99.7755 145.461 100.003C145.491 100.365 145.559 100.766 145.365 101.052C145.246 101.228 145.025 101.327 144.961 101.525C144.914 101.728 144.902 101.939 144.927 102.147C144.913 102.384 144.823 102.608 144.675 102.778C144.526 102.947 144.329 103.051 144.117 103.071C144.215 103.378 144.217 103.713 144.124 104.022C144.031 104.33 143.848 104.595 143.604 104.773C143.462 104.849 143.329 104.947 143.21 105.063C143.093 105.231 143.015 105.429 142.982 105.639C142.532 107.529 141.608 109.233 140.319 110.55C139.836 110.976 139.395 111.46 139.003 111.992C138.762 112.405 138.562 112.846 138.408 113.309C137.501 115.797 136.581 118.286 135.647 120.777C135.13 122.17 134.627 123.585 134.464 125.085C134.056 129.199 130.791 132.686 131.404 136.77C131.527 137.79 131.894 138.753 132.464 139.559C133.145 140.479 134.165 141.005 135.185 141.433C137.806 142.577 140.571 143.203 143.325 143.833L147.65 144.829C148.499 145.048 149.36 145.201 150.228 145.287C151.272 145.367 152.343 145.256 153.36 145.554C153.989 145.737 154.591 146.077 155.24 146.115C155.798 146.149 156.485 146.016 156.814 146.527C157.144 147.038 156.889 147.714 157.202 148.168C157.705 148.889 158.933 148.168 159.48 148.847C159.63 149.108 159.744 149.392 159.82 149.69C159.903 149.875 160.019 150.038 160.16 150.171C160.194 150.387 160.207 150.605 160.201 150.824C160.13 151.71 159.966 152.584 159.711 153.426C159.303 154.976 158.897 156.526 158.491 158.078C158.336 158.626 158.222 159.188 158.151 159.757C158.125 160.034 158.125 160.312 158.151 160.589C158.222 161.432 158.654 162.302 159.371 162.577C159.928 162.742 160.52 162.66 161.024 162.348C161.51 162.063 161.967 161.717 162.384 161.318C163.137 160.678 163.799 159.914 164.346 159.051C166.046 156.197 165.495 152.335 166.689 149.179C167.481 147.073 169.025 145.363 169.538 143.142C169.659 142.72 169.673 142.268 169.579 141.837C169.365 141.074 168.641 140.639 167.964 140.364H167.934C167.378 140.142 166.81 139.96 166.233 139.819C166.091 139.784 165.944 139.757 165.798 139.731C165.475 139.435 165.217 139.059 165.047 138.632C165.02 138.405 164.966 138.183 164.887 137.972C164.833 137.881 164.76 137.805 164.675 137.752C164.59 137.699 164.495 137.67 164.397 137.666C164.057 137.628 163.601 137.766 163.231 137.735C162.473 137.674 161.969 136.838 161.289 136.453C160.609 136.067 159.871 136.163 159.147 136.22C158.888 136.26 158.624 136.242 158.372 136.167C158.07 136.011 157.794 135.798 157.556 135.537C157.137 135.172 156.649 134.92 156.129 134.803C155.609 134.686 155.072 134.706 154.56 134.862C154.235 135.009 153.89 135.097 153.54 135.121C152.877 135.079 152.408 134.415 151.918 133.911C150.578 132.534 148.671 132.171 147.045 131.267C146.796 131.163 146.589 130.963 146.46 130.702C146.273 130.183 146.695 129.664 147.076 129.309L149.871 126.703C152.931 123.849 156.757 121.7 158.178 117.514C158.326 116.953 158.556 116.423 158.858 115.946C158.968 115.8 159.095 115.672 159.235 115.564C159.854 115.115 160.603 114.951 161.327 115.106C162.208 115.328 163.044 115.737 163.788 116.312C165.006 117.139 166.19 118.029 167.342 118.983C168.483 119.898 169.567 120.898 170.589 121.975C172.374 123.883 173.86 126.146 175.523 128.203C177.186 130.26 179.087 132.179 181.396 133.163C183.704 134.148 186.496 134.106 188.478 132.454C190.767 130.546 191.501 127.134 192.079 124.005C193.355 122.624 193.739 120.521 194.361 118.663C194.752 117.484 195.252 116.373 195.674 115.198C196.177 113.816 196.571 112.389 196.966 110.966C197.413 109.537 197.716 108.056 197.87 106.551C198.033 104.173 197.466 101.644 198.061 99.4112C198.846 99.2165 199.56 98.7205 200.332 98.4304C201.481 98.0069 202.712 98.0756 203.93 98.0832H204.008C204.427 98.1333 204.849 98.0216 205.205 97.7665C205.613 97.3849 205.677 96.7323 205.698 96.1409C205.745 94.6793 205.664 93.0385 204.688 92.0921ZM155.42 26.9992C155.139 27.0773 154.848 27.1005 154.56 27.0679L155.42 26.9992Z" fill="url(#paint0_linear)"/>
<path d="M156.76 51.1391C156.348 51.5315 155.866 51.8192 155.345 51.9824L152.935 52.9517C151.625 53.4783 150.258 54.0087 148.878 53.8179C148.106 53.7111 144.798 53.1654 144.298 52.4899C143.536 51.4444 146.205 49.9065 147.117 49.025C147.323 48.8584 147.514 48.6692 147.688 48.4603C148.028 47.9947 147.984 47.3422 147.936 46.7545C147.763 45.2658 147.704 43.7632 147.759 42.2631C147.786 41.9055 147.831 41.55 147.895 41.1985C148.235 39.4431 149.691 40.0842 150.84 40.5497C152.223 41.0541 153.561 41.7044 154.835 42.4921C155.223 42.7166 155.561 43.0377 155.821 43.4308C156.325 44.2856 156.124 45.4075 156.042 46.4836C155.971 47.3193 155.974 48.1206 156.44 48.7274C156.675 48.9594 156.89 49.2148 157.083 49.4906C157.192 49.7683 157.219 50.0777 157.161 50.374C157.103 50.6703 156.963 50.9382 156.76 51.1391Z" fill="#BE6F72"/>
<path d="M123.457 23.6373C123.797 21.9469 123.872 20.203 124.28 18.5278C124.568 17.4385 124.925 16.3737 125.348 15.3414L126.847 11.4148C126.984 10.9511 127.228 10.5364 127.554 10.2127C127.904 9.96977 128.31 9.84767 128.721 9.86168C130.186 9.80062 131.727 10.312 132.726 11.5216C133.726 12.7313 134.042 14.6889 133.247 16.0741C132.294 17.7417 130.217 18.0775 128.976 19.4817C128.183 20.3785 127.799 21.6263 127.565 22.8589C126.946 26.0643 127.153 29.388 126.963 32.6621C126.901 33.681 126.725 34.8449 125.943 35.3715C125.47 35.6314 124.944 35.746 124.419 35.7035L122.189 35.7454C121.815 35.7454 120.458 36.0087 120.21 35.692C119.774 35.1387 120.767 32.3835 120.947 31.7692C121.349 30.4069 121.842 29.0789 122.308 27.7395C122.712 26.5451 123.457 24.931 123.457 23.6373Z" fill="#BE6F72"/>
<path d="M169.515 143.52C169.001 145.726 167.457 147.443 166.665 149.545C165.472 152.694 166.009 156.544 164.322 159.391C163.775 160.255 163.114 161.021 162.36 161.661C161.943 162.06 161.487 162.404 161 162.688C160.496 163 159.904 163.082 159.348 162.917C158.63 162.642 158.198 161.772 158.127 160.932C158.101 160.657 158.101 160.38 158.127 160.104C158.198 159.536 158.312 158.976 158.467 158.429C158.875 156.885 159.282 155.338 159.688 153.789C159.942 152.949 160.106 152.078 160.177 151.194C160.221 150.232 159.677 148.981 159.909 148.084C160.014 147.679 160.409 147.321 160.589 146.981C160.845 146.492 161.041 145.967 161.174 145.42C161.452 144.356 161.643 143.219 162.228 142.322C162.609 141.79 163.056 141.321 163.554 140.929C163.921 140.567 164.352 140.296 164.819 140.131C165.271 140.042 165.736 140.067 166.179 140.204C166.756 140.342 167.324 140.523 167.879 140.746H167.91C168.59 141.021 169.311 141.444 169.525 142.215C169.629 142.643 169.625 143.094 169.515 143.52Z" fill="#292426"/>
<path d="M205.694 96.6064C205.674 97.1979 205.609 97.8581 205.201 98.2282C204.846 98.4833 204.424 98.595 204.004 98.5449H203.913C202.699 98.5449 201.464 98.4686 200.315 98.8922C199.441 99.2166 198.639 99.8118 197.727 99.9301C196.473 100.09 195.293 99.3196 194.181 98.648C193.134 98.015 192.059 97.4419 190.961 96.9308C190.24 96.5988 188.767 96.3851 188.421 95.4998C188.302 95.0809 188.202 94.6555 188.121 94.2253C188.064 94.0329 187.995 93.8455 187.914 93.6643C187.71 93.2777 187.58 92.8474 187.533 92.4012C187.535 91.9565 187.671 91.5256 187.921 91.1801C188.198 90.8116 188.538 90.5083 188.92 90.2876C189.302 90.0669 189.72 89.9332 190.148 89.8941C191.005 89.8194 191.867 89.8707 192.712 90.0468L201.084 91.3976C201.73 91.5006 202.379 91.6037 203.015 91.7792C203.619 91.8968 204.188 92.177 204.674 92.5958C205.664 93.5269 205.745 95.164 205.694 96.6064Z" fill="#292426"/>
<path d="M198.336 99.0487C197.316 101.464 198.05 104.322 197.867 106.994C197.713 108.495 197.409 109.972 196.962 111.397C196.568 112.817 196.173 114.24 195.67 115.618C195.249 116.762 194.749 117.907 194.358 119.075C193.735 120.937 193.338 123.032 192.076 124.417C191.498 127.539 190.763 130.95 188.475 132.843C186.486 134.491 183.715 134.549 181.392 133.553C179.07 132.557 177.182 130.649 175.52 128.592C173.857 126.535 172.371 124.295 170.586 122.38C169.563 121.302 168.475 120.304 167.332 119.392C166.18 118.453 164.996 117.57 163.778 116.743C163.033 116.171 162.198 115.763 161.316 115.541C160.593 115.386 159.844 115.55 159.225 115.999C159.085 116.107 158.958 116.235 158.848 116.381C158.545 116.856 158.315 117.385 158.168 117.945C156.74 122.12 152.907 124.265 149.847 127.111L147.052 129.71C146.671 130.065 146.249 130.584 146.436 131.099C146.565 131.36 146.773 131.56 147.021 131.664C148.647 132.564 150.554 132.927 151.894 134.301C152.384 134.804 152.853 135.468 153.516 135.506C153.866 135.483 154.211 135.397 154.536 135.251C155.048 135.095 155.584 135.075 156.104 135.192C156.624 135.308 157.113 135.558 157.532 135.922C157.77 136.183 158.046 136.396 158.348 136.552C158.601 136.627 158.864 136.645 159.123 136.605C159.847 136.548 160.616 136.476 161.265 136.838C161.915 137.201 162.449 138.056 163.207 138.117C163.578 138.147 164.02 138.01 164.373 138.048C164.471 138.051 164.566 138.081 164.651 138.134C164.736 138.187 164.809 138.262 164.863 138.353C164.942 138.563 164.996 138.784 165.023 139.01C165.162 139.548 165.631 139.876 165.937 140.318C166.407 140.998 166.475 141.921 166.427 142.78C166.273 145.464 165.207 147.98 163.448 149.809C162.949 150.381 162.312 150.779 161.616 150.954C161.267 151.035 160.904 150.992 160.578 150.83C160.252 150.668 159.98 150.395 159.8 150.049C159.724 149.752 159.609 149.469 159.46 149.21C158.912 148.534 157.685 149.252 157.182 148.53C156.869 148.08 157.093 147.359 156.794 146.893C156.495 146.428 155.774 146.512 155.22 146.485C154.57 146.447 153.968 146.103 153.339 145.924C152.319 145.626 151.251 145.737 150.207 145.657C149.34 145.571 148.479 145.418 147.63 145.199L143.305 144.207C140.55 143.577 137.786 142.94 135.164 141.814C134.161 141.387 133.151 140.86 132.444 139.944C131.874 139.14 131.507 138.177 131.383 137.159C130.768 133.087 134.032 129.607 134.443 125.505C134.59 124.009 135.123 122.597 135.627 121.208C136.549 118.725 137.47 116.241 138.388 113.755C138.536 113.293 138.73 112.85 138.966 112.435C139.357 111.904 139.798 111.422 140.282 110.996C141.57 109.684 142.495 107.983 142.944 106.097C142.978 105.887 143.056 105.689 143.172 105.521C143.293 105.407 143.425 105.311 143.567 105.234C143.809 105.057 143.992 104.793 144.085 104.485C144.178 104.177 144.177 103.843 144.08 103.536C144.291 103.517 144.489 103.413 144.637 103.243C144.786 103.074 144.875 102.85 144.889 102.613C144.865 102.406 144.876 102.196 144.923 101.995C145.005 101.796 145.209 101.697 145.328 101.521C145.522 101.235 145.454 100.835 145.423 100.476C145.403 100.249 145.403 100.02 145.423 99.7928C145.498 98.9847 145.82 98.2308 146.334 97.6596C147.147 96.7629 148.303 96.9957 149.425 96.782C150.545 96.5108 151.638 96.1185 152.69 95.6105C155.64 94.3058 158.747 93.4995 161.908 93.2178C165.085 92.9375 168.276 93.5077 171.218 94.8816C171.646 95.0762 172.05 95.3327 172.419 95.6448C172.68 95.8713 172.895 96.1591 173.048 96.4881C173.173 96.8921 173.328 97.2839 173.51 97.6596C173.874 98.2168 174.561 98.3961 174.959 98.9227C175.356 99.4493 175.39 100.338 175.72 100.991C176.193 101.922 177.288 102.353 177.614 103.365C177.716 103.685 177.73 104.036 177.805 104.368C177.988 105.2 178.539 105.856 179.025 106.513C180.808 108.905 181.949 111.816 182.317 114.908C182.426 112.973 183.585 111.26 185.037 110.191C185.428 109.905 185.881 109.588 185.959 109.069C186.057 108.413 185.49 107.829 185.527 107.161C185.568 106.835 185.686 106.527 185.867 106.268C186.515 105.214 187.226 104.211 187.996 103.265C188.414 102.75 188.883 102.121 188.71 101.441C188.577 100.934 188.115 100.636 187.86 100.193C187.711 99.9296 187.635 99.6223 187.641 99.31C187.647 98.9978 187.735 98.6945 187.894 98.4381C188.132 98.0756 188.509 97.8123 188.625 97.3811C188.757 96.8735 188.461 96.324 188.553 95.8013C188.678 95.3826 188.924 95.0235 189.254 94.7824C189.705 94.3214 190.218 93.9428 190.774 93.6605C191.671 93.2789 192.671 93.4201 193.623 93.5689C195.215 93.817 197 94.1986 197.897 95.6944C198.472 96.6293 198.764 98.0489 198.336 99.0487Z" fill="#DDDFD7"/>
<path opacity="0.1" d="M205.694 96.6064C205.674 97.1979 205.609 97.8581 205.201 98.2282C204.846 98.4833 204.424 98.595 204.004 98.5449H203.913C204.052 97.7512 204.912 97.2971 205.062 96.4919C205.087 96.2446 205.067 95.994 205.003 95.7557C204.939 95.5174 204.831 95.2965 204.688 95.1067C203.96 94.0039 202.79 93.3934 201.628 92.9469C198.342 91.6829 194.823 91.3872 191.406 92.0883C190.477 92.2581 189.573 92.5701 188.72 93.0156C188.437 93.2142 188.165 93.4308 187.904 93.6643C187.7 93.2777 187.57 92.8474 187.523 92.4012C187.524 91.9565 187.661 91.5256 187.911 91.1801C188.188 90.8116 188.528 90.5083 188.91 90.2876C189.292 90.0669 189.709 89.9332 190.138 89.8941C190.995 89.8194 191.857 89.8707 192.702 90.0468L201.073 91.3976C201.719 91.5006 202.369 91.6037 203.005 91.7792C203.609 91.8968 204.178 92.177 204.664 92.5958C205.664 93.5269 205.745 95.164 205.694 96.6064Z" fill="black"/>
<path opacity="0.1" d="M169.515 143.52C169.001 145.726 167.457 147.443 166.665 149.545C165.472 152.694 166.009 156.544 164.322 159.391C163.775 160.255 163.114 161.021 162.36 161.661C161.943 162.06 161.486 162.404 161 162.688C160.496 163 159.904 163.082 159.348 162.917C158.63 162.642 158.198 161.772 158.127 160.932C158.101 160.657 158.101 160.38 158.127 160.104L158.147 160.165C158.443 160.967 158.926 161.806 159.688 161.947C159.974 161.97 160.261 161.927 160.531 161.82C160.801 161.713 161.049 161.545 161.259 161.325C162.381 160.314 163.034 158.807 163.656 157.353C164.143 156.305 164.528 155.2 164.805 154.06C164.941 153.411 165.006 152.747 165.145 152.098C165.791 148.946 167.991 146.374 168.478 143.18C168.517 142.961 168.526 142.735 168.505 142.513C168.441 142.222 168.342 141.942 168.212 141.681C168.094 141.385 168.007 141.075 167.954 140.757C168.634 141.032 169.355 141.456 169.569 142.226C169.657 142.655 169.638 143.103 169.515 143.52Z" fill="black"/>
<path opacity="0.1" d="M164.38 138.048C164.065 138.971 163.536 139.783 162.847 140.399C161.879 141.226 160.745 141.776 159.545 142.001C158.986 142.161 158.4 142.153 157.845 141.978C157.09 141.685 156.546 140.891 155.774 140.662C155.223 140.494 154.631 140.643 154.074 140.551C153.071 140.395 152.292 139.536 151.483 138.849C149.004 136.758 145.75 136.083 143.271 133.992C143.16 133.915 143.069 133.809 143.006 133.682C142.958 133.545 142.941 133.397 142.955 133.251C142.964 131.983 143.218 130.732 143.699 129.584C144.093 128.783 144.563 128.032 145.1 127.344C147.321 124.291 149.551 121.216 152.21 118.64C153.326 117.56 154.543 116.553 155.951 116.064C156.733 115.793 158.277 115.537 159.229 115.995C159.088 116.103 158.961 116.231 158.851 116.377C158.548 116.852 158.319 117.381 158.171 117.942C156.74 122.12 152.907 124.265 149.847 127.111L147.052 129.71C146.671 130.065 146.249 130.584 146.436 131.099C146.565 131.36 146.773 131.56 147.021 131.664C148.647 132.564 150.554 132.927 151.894 134.301C152.384 134.804 152.853 135.468 153.516 135.506C153.866 135.483 154.211 135.397 154.536 135.251C155.048 135.095 155.584 135.075 156.104 135.192C156.624 135.308 157.113 135.558 157.532 135.922C157.77 136.183 158.046 136.396 158.348 136.552C158.601 136.627 158.864 136.645 159.123 136.605C159.847 136.548 160.616 136.476 161.265 136.838C161.915 137.201 162.449 138.056 163.207 138.117C163.584 138.147 164.026 138.002 164.38 138.048Z" fill="black"/>
<path d="M133.107 86.2575C132.461 86.723 131.774 87.2496 131.509 88.0586C131.291 88.7188 131.393 89.4744 131.132 90.1154C130.87 90.7565 130.281 91.203 130.152 91.8899C130.06 92.3898 130.241 92.9164 130.152 93.4163C130.075 93.6762 130.013 93.9413 129.965 94.21C129.931 94.7786 130.366 95.2403 130.791 95.557C131.696 96.2175 132.727 96.6307 133.8 96.7632C134.873 96.8958 135.959 96.744 136.97 96.3202C137.878 95.9386 138.697 95.3166 139.568 94.8282C140.417 94.2796 141.388 94.0148 142.366 94.065C142.927 94.1337 143.465 94.3626 144.026 94.4466C144.303 94.508 144.589 94.4929 144.86 94.4025C145.13 94.3121 145.378 94.1491 145.58 93.9276C145.753 93.6592 145.869 93.3498 145.92 93.0232C146.392 90.9283 146.178 88.7073 145.729 86.6009C145.28 84.4945 144.6 82.4682 144.121 80.3733C143.781 78.8202 143.519 77.2289 142.951 75.7598C142.383 74.2906 141.428 72.9245 140.091 72.3635C139.986 72.3055 139.867 72.288 139.751 72.3139C139.666 72.3541 139.59 72.417 139.53 72.4971C138.473 73.7542 137.677 75.258 137.198 76.9007C136.664 78.7286 136.518 80.6671 136.028 82.5026C135.817 83.2658 135.545 84.2884 135.008 84.8723C134.471 85.4561 133.716 85.8187 133.107 86.2575Z" fill="#7FAB96"/>
<path opacity="0.1" d="M145.93 93.0118C145.873 93.3395 145.751 93.6486 145.573 93.9161C145.371 94.1383 145.124 94.3015 144.853 94.3914C144.582 94.4812 144.296 94.4949 144.019 94.4313C143.461 94.355 142.924 94.1222 142.363 94.0497C141.384 93.9989 140.413 94.2637 139.564 94.8129C138.694 95.3013 137.864 95.9081 136.963 96.3011C135.645 96.8621 134.205 96.954 132.838 96.5644C132.113 96.3597 131.423 96.0192 130.798 95.557C130.37 95.2441 129.938 94.7938 129.972 94.21C130.02 93.9425 130.082 93.6787 130.159 93.4201C130.247 92.9202 130.071 92.3936 130.159 91.8937C130.288 91.2068 130.88 90.7489 131.138 90.1154C131.397 89.482 131.298 88.7226 131.512 88.0624C131.778 87.2496 132.468 86.7269 133.114 86.2575C133.76 85.7881 134.528 85.4294 135.045 84.8608C135.112 84.7723 135.172 84.6779 135.226 84.5785C135.598 83.9334 135.872 83.2226 136.035 82.4759C136.535 80.6366 136.671 78.7019 137.201 76.8702C137.682 75.2288 138.48 73.7265 139.537 72.4704C139.594 72.3885 139.669 72.3252 139.755 72.2872C139.87 72.261 139.989 72.2771 140.095 72.333C141.428 72.8978 142.383 74.2639 142.954 75.733C143.526 77.2022 143.767 78.7858 144.124 80.3427C144.6 82.4377 145.284 84.4716 145.733 86.5742C146.181 88.6768 146.402 90.913 145.93 93.0118Z" fill="black"/>
<path opacity="0.1" d="M156.042 46.4721C154.444 47.0423 152.713 46.929 151.184 46.1542C149.655 45.3794 148.435 43.9976 147.759 42.2746C147.786 41.917 147.831 41.5615 147.895 41.2099C148.235 39.4546 149.691 40.0956 150.84 40.5612C152.223 41.0655 153.561 41.7159 154.835 42.5035C155.223 42.7281 155.561 43.0491 155.821 43.4423C156.325 44.2856 156.124 45.4075 156.042 46.4721Z" fill="black"/>
<path d="M153.989 46.4492C157.745 46.4492 160.789 43.0323 160.789 38.8173C160.789 34.6023 157.745 31.1853 153.989 31.1853C150.233 31.1853 147.188 34.6023 147.188 38.8173C147.188 43.0323 150.233 46.4492 153.989 46.4492Z" fill="#BE6F72"/>
<path opacity="0.1" d="M172.442 95.8509C172.442 96.4843 171.677 96.6866 171.109 96.6522C169.069 96.5187 167.073 95.889 165.053 96.0798C162.5 96.3393 160.153 97.9229 157.593 98.0679C156.607 98.1252 155.604 97.9611 154.631 98.1633C153.373 98.4266 152.251 99.2852 150.969 99.4073C149.857 99.5142 148.759 99.0448 147.647 99.0944C146.87 99.1464 146.112 99.3887 145.427 99.8042C145.501 98.9962 145.823 98.2422 146.338 97.6711C147.151 96.7743 148.307 97.0071 149.429 96.7934C150.548 96.5223 151.641 96.1299 152.693 95.6219C155.644 94.3172 158.75 93.5109 161.911 93.2293C165.086 92.9459 168.276 93.5122 171.218 94.8816C171.646 95.0762 172.05 95.3327 172.419 95.6448C172.437 95.7114 172.445 95.7811 172.442 95.8509V95.8509Z" fill="black"/>
<path d="M150.843 52.7532L148.089 51.6084L146.926 51.1276C146.452 50.9048 145.953 50.7558 145.444 50.685C144.111 50.5705 142.856 51.5665 142.145 52.8372C141.435 54.1079 141.166 55.6228 140.938 57.0996C140.625 59.1196 140.36 61.1471 140.142 63.1823C139.908 65.0201 139.789 66.8742 139.785 68.7307C139.864 73.4549 140.755 78.1142 141.734 82.7125C142.213 84.7512 142.576 86.8225 142.819 88.9134C142.9 89.7758 142.938 90.6421 143.019 91.5083C143.108 92.4814 143.25 93.443 143.393 94.4084L144.213 99.892C145.233 99.0792 146.392 98.3656 147.647 98.3236C148.759 98.2778 149.861 98.7434 150.969 98.6365C152.244 98.5182 153.373 97.6596 154.631 97.3963C155.604 97.1941 156.607 97.3544 157.596 97.3009C160.153 97.1559 162.503 95.5685 165.053 95.3128C167.077 95.1068 169.086 95.7478 171.113 95.8814C171.677 95.9196 172.442 95.7173 172.442 95.08C172.442 94.6374 172.048 94.3436 171.704 94.1222C170.086 93.0284 168.545 91.7946 167.097 90.4322C165.757 89.2416 164.397 88.0205 163.476 86.4101C161.255 82.5369 162.017 77.2976 160.123 73.2107C158.583 69.8908 160.123 65.5406 160.123 61.7971C160.123 59.9311 160.123 58.0422 159.732 56.2296C159.487 55.2158 159.183 54.2214 158.821 53.2531L157.498 49.4944C157.47 49.3845 157.416 49.2854 157.341 49.2082C157.252 49.1394 157.147 49.1034 157.039 49.1052C156.244 49.0517 155.461 49.3335 154.842 49.8951C154.22 50.4636 153.822 51.2803 153.21 51.8718C152.54 52.5243 151.676 53.0967 150.843 52.7532Z" fill="#DDDFD7"/>
<path d="M155.288 50.5858C155.505 49.5402 155.74 48.4526 156.362 47.636C156.984 46.8194 158.12 46.3882 158.923 46.972C159.834 47.636 159.871 49.17 160.65 50.0248C161.33 50.7575 162.35 50.8147 163.275 50.9101C164.938 51.08 166.571 51.5116 168.127 52.1923C168.431 52.2978 168.707 52.4837 168.933 52.7341C169.358 53.276 169.273 54.1079 169.484 54.7833C169.773 55.6534 170.572 56.2067 170.882 57.0729C171.222 58.0345 170.882 59.1106 170.596 60.099C170.082 61.8734 169.759 63.7165 169.26 65.4986C168.76 67.2806 168.049 69.036 166.879 70.3792C166.363 70.9745 165.594 71.524 164.914 71.1691L164.652 73.287C164.576 73.7345 164.576 74.1942 164.652 74.6417C164.692 74.8656 164.787 75.0724 164.926 75.2385C165.066 75.4045 165.244 75.523 165.441 75.5804C165.492 75.9086 165.801 76.065 166.053 76.2444C166.239 76.3869 166.398 76.5694 166.52 76.7813C166.642 76.9932 166.726 77.2302 166.766 77.4787C166.806 77.7272 166.802 77.9821 166.754 78.2288C166.706 78.4754 166.614 78.7089 166.485 78.9156C166.271 79.2399 165.954 79.4956 165.852 79.881C165.699 80.4381 166.063 81.0258 166.505 81.3311C166.947 81.6363 167.468 81.7775 167.916 82.0714C168.848 82.6743 169.348 83.8611 169.668 85.0135C169.906 85.8835 170.103 86.8261 170.688 87.4595C170.912 87.6999 171.181 87.8831 171.395 88.135C171.766 88.6266 171.98 89.2429 172.004 89.8865C172.097 90.6841 171.941 91.4933 171.562 92.1761C170.882 93.2674 169.613 93.5918 168.501 94.0841C166.696 94.9159 165.21 96.4042 163.618 97.6711C162.97 98.2569 162.207 98.6599 161.391 98.8464C160.289 99.0105 159.205 98.4648 158.096 98.4152C157.433 98.4221 156.773 98.5195 156.131 98.7052L154.091 99.2013C154.199 97.4269 153.329 95.6486 152.843 93.9581C151.925 90.7756 151.755 87.3717 151.972 84.0366C152.19 80.7014 152.795 77.4121 153.394 74.138C153.812 71.8484 153.771 69.4558 154.414 67.231C155.016 65.0903 155.876 63.0335 156.192 60.8049C156.709 57.1988 154.56 54.1422 155.288 50.5858Z" fill="#7FAB96"/>
<path d="M170.756 57.6415C170.943 58.0293 171.075 58.4478 171.147 58.8817C171.304 59.5539 171.599 60.1758 172.007 60.6981C172.349 61.0367 172.653 61.4212 172.912 61.8429C173.224 62.5069 173.105 63.3158 173.252 64.0409C173.422 64.8308 173.915 65.5177 173.986 66.3305C173.988 66.5634 174.007 66.7957 174.044 67.025C174.265 67.9484 175.475 68.1698 175.744 69.0932C175.924 69.6923 175.615 70.3449 175.673 70.9745C175.715 71.1692 175.725 71.3709 175.703 71.5698C175.626 71.7947 175.491 71.9887 175.316 72.1269C174.19 73.3334 173.411 74.8893 173.078 76.5954C172.751 78.2923 172.579 80.0223 172.565 81.7584L171.235 79.7856C171.094 79.5462 170.914 79.3391 170.705 79.175C170.535 79.0606 170.338 79.0033 170.164 78.8888C169.661 78.5683 169.464 77.889 169.27 77.2785C168.731 75.5884 167.925 74.0215 166.89 72.6535C166.349 71.9399 165.72 71.2225 165.601 70.2953C165.565 69.8694 165.586 69.4399 165.662 69.0207C166.002 66.5213 166.366 63.9607 167.451 61.7437C167.957 60.7057 168.614 59.767 169.1 58.7138C169.426 58.0155 169.885 56.1991 170.756 57.6415Z" fill="#7FAB96"/>
<path d="M137.211 60.0417C137.218 60.363 137.145 60.6799 137 60.9576C136.87 61.1266 136.701 61.2518 136.511 61.3192C136.322 61.3865 136.119 61.3935 135.926 61.3392C135.539 61.2301 135.174 61.0384 134.851 60.7744C133.904 60.1028 132.956 59.4299 132.009 58.7558C131.48 58.3979 130.97 58.0055 130.482 57.5804C129.736 56.8739 129.06 56.0794 128.466 55.2107C126.813 52.9211 125.351 50.4369 123.511 48.342C123.011 47.7696 122.491 47.2201 122.008 46.621C121.348 45.7549 120.742 44.8395 120.193 43.8811C119.662 42.9996 119.111 42.0227 119.203 40.9695C119.257 40.3742 119.512 39.8247 119.587 39.2332C119.662 38.6418 119.461 37.9205 118.951 37.7603C118.891 37.7433 118.83 37.7318 118.768 37.7259C118.667 37.7139 118.568 37.6896 118.472 37.6534C117.999 37.4321 118.071 36.6117 118.411 36.1805C118.751 35.7492 119.254 35.5088 119.563 35.0357C119.707 34.7549 119.869 34.4858 120.046 34.2305C120.274 34.0114 120.546 33.8581 120.839 33.784C122.8 33.1354 124.875 33.0475 126.874 33.5283C127.214 33.6123 127.602 33.7649 127.704 34.1351C127.745 34.3154 127.745 34.5043 127.704 34.6846C127.554 35.437 127.467 36.2036 127.445 36.9742C127.445 37.1348 127.453 37.2954 127.469 37.455C127.629 39.073 128.564 40.4429 129.476 41.706C130.557 43.2095 131.655 44.7015 132.757 46.1897C133.353 47.0522 134.019 47.8506 134.746 48.5747C135.426 49.2082 136.307 49.7195 136.837 50.5323C137.269 51.1887 137.13 52.0854 137.177 52.8753C137.335 55.2604 137.347 57.6549 137.211 60.0417V60.0417Z" fill="#7FAB96"/>
<path d="M180.396 75.962C180.732 75.5956 181.035 75.1929 181.3 74.7599C181.586 74.2234 181.814 73.6509 181.98 73.0542L183.953 66.7769C184.265 65.7848 184.578 64.7888 184.973 63.8234C185.381 62.7816 185.864 61.778 186.309 60.7706C187.455 58.1194 188.341 55.3366 188.951 52.4708C189.058 52.0771 189.094 51.6632 189.056 51.2536C188.961 50.5934 188.516 50.0782 188.091 49.6089C187.663 49.0908 187.176 48.6391 186.642 48.2656C186.374 48.0785 186.075 47.9531 185.764 47.8968C185.452 47.8405 185.133 47.8543 184.826 47.9375C183.956 48.2237 183.409 49.2235 183.208 50.2271C183.007 51.2307 183.082 52.2572 182.997 53.2798C182.875 54.7452 182.426 56.1609 182.317 57.63C182.259 58.481 182.317 59.3396 182.225 60.1867C182.058 61.2992 181.712 62.3684 181.205 63.3426C180.1 65.6631 178.608 67.7231 176.808 69.41C176.316 69.8183 175.872 70.2967 175.489 70.8333C175.169 71.37 174.953 71.9757 174.853 72.6116C174.627 73.5799 174.725 74.6075 175.129 75.5002C175.683 76.5611 176.747 77.0266 177.764 77.2632C179.138 77.5838 179.454 77.0572 180.396 75.962Z" fill="#BE6F72"/>
<path d="M154.029 27.7586C154.322 27.1413 154.771 26.6344 155.318 26.3012C155.866 25.9679 156.489 25.8232 157.11 25.8849C157.735 26.0092 158.317 26.3274 158.789 26.8036C159.262 27.2797 159.606 27.8947 159.783 28.579C159.943 29.1476 160.007 29.7772 160.286 30.2657C160.708 31.0022 161.49 31.2159 162.075 31.7501C162.424 32.1142 162.705 32.5528 162.901 33.0403C163.097 33.5279 163.205 34.0544 163.217 34.5892C163.25 35.6815 163.096 36.7707 162.765 37.7984C162.624 38.2369 162.511 38.6857 162.425 39.1416C162.357 39.5843 162.35 40.0346 162.289 40.4772C162.214 41.0512 162.037 41.6025 161.769 42.0986C161.501 42.5946 161.147 43.0256 160.728 43.3659C160.609 43.475 160.46 43.5356 160.306 43.5377C160.041 43.5033 159.878 43.1561 159.779 42.8431C159.239 41.0916 159.368 38.9508 158.372 37.5542C157.918 36.9908 157.371 36.5331 156.76 36.2072C156.511 36.0269 156.23 35.9085 155.937 35.8599C155.506 35.8859 155.091 36.056 154.747 36.3483C154.029 36.8886 153.233 37.2838 152.394 37.516C151.975 37.6274 151.54 37.6324 151.119 37.5307C150.698 37.429 150.303 37.2232 149.963 36.9284C149.493 36.4934 149.15 35.8408 148.63 35.5012C148.109 35.1616 147.565 35.1807 147.052 34.9479C146.725 34.7917 146.434 34.5538 146.201 34.2522C145.968 33.9506 145.799 33.5933 145.708 33.2076C145.617 32.8219 145.606 32.4179 145.675 32.0265C145.744 31.635 145.891 31.2664 146.107 30.9487C146.447 30.4908 146.95 30.2313 147.253 29.7238C147.644 29.0675 147.61 28.1669 147.797 27.3808C147.907 26.8835 148.122 26.4229 148.423 26.0373C148.724 25.6518 149.103 25.3523 149.527 25.1637C149.939 25.0067 150.381 24.9767 150.807 25.0767C151.233 25.1767 151.627 25.4031 151.948 25.7323C152.288 26.0757 152.561 26.5184 152.894 26.8771C153.223 27.2305 153.625 27.4856 154.065 27.6189C154.505 27.7523 154.967 27.7596 155.41 27.6403" fill="#292426"/>
<path opacity="0.1" d="M159.62 83.9259C159.422 84.1238 159.281 84.3839 159.217 84.6725C159.153 84.9611 159.167 85.2648 159.259 85.5439C159.334 85.7233 162.843 84.9639 163.214 84.9066C164.139 84.7578 165.761 84.8303 166.383 83.8801C167.491 82.1973 164.057 82.5713 163.428 82.6323C162.231 82.7468 160.531 82.93 159.62 83.9259Z" fill="black"/>
<path d="M127.697 34.6999C127.547 35.4523 127.461 36.2188 127.439 36.9894C126.419 37.2222 125.358 36.8406 124.378 36.459L121.566 35.3829C121.395 35.2602 121.189 35.2152 120.989 35.2571C120.79 35.2989 120.612 35.4244 120.492 35.6081C120.04 36.1347 119.417 37.1344 118.792 37.7259C118.691 37.7139 118.592 37.6896 118.496 37.6534C118.023 37.4321 118.095 36.6117 118.435 36.1805C118.775 35.7492 119.278 35.5088 119.587 35.0357C119.731 34.7549 119.893 34.4858 120.07 34.2305C120.298 34.0114 120.57 33.8581 120.862 33.784C122.824 33.1354 124.899 33.0475 126.898 33.5283C127.238 33.6123 127.626 33.7649 127.728 34.1351C127.761 34.3232 127.75 34.5177 127.697 34.6999Z" fill="#7FAB96"/>
<path opacity="0.1" d="M127.697 34.6999C127.547 35.4523 127.461 36.2188 127.439 36.9894C126.419 37.2222 125.358 36.8406 124.378 36.459L121.566 35.3829C121.395 35.2602 121.189 35.2152 120.989 35.2571C120.79 35.2989 120.612 35.4244 120.492 35.6081C120.04 36.1347 119.417 37.1344 118.792 37.7259C118.691 37.7139 118.592 37.6896 118.496 37.6534C118.023 37.4321 118.095 36.6117 118.435 36.1805C118.775 35.7492 119.278 35.5088 119.587 35.0357C119.731 34.7549 119.893 34.4858 120.07 34.2305C120.298 34.0114 120.57 33.8581 120.862 33.784C122.824 33.1354 124.899 33.0475 126.898 33.5283C127.238 33.6123 127.626 33.7649 127.728 34.1351C127.761 34.3232 127.75 34.5177 127.697 34.6999Z" fill="black"/>
<path opacity="0.1" d="M153.421 107.146C153.91 107.329 154.441 107.596 154.608 108.146L150.67 107.024L148.63 106.44C148.269 106.337 146.977 106.219 146.739 105.902C146.399 105.437 147.606 105.757 147.824 105.791C148.483 105.902 149.143 106.017 149.799 106.15C151.037 106.398 152.227 106.807 153.421 107.146Z" fill="black"/>
<path opacity="0.1" d="M154.948 111.058C154.608 110.802 153.632 110.832 153.213 110.722C152.601 110.558 151.999 110.34 151.398 110.13C150.177 109.684 148.966 109.176 147.712 108.848C147.48 108.791 146.692 108.776 146.729 108.447C146.766 108.119 147.518 108.005 147.705 107.989C148.817 107.898 150.204 108.482 151.238 108.898C152.555 109.427 153.803 110.154 154.948 111.058V111.058Z" fill="black"/>
<path opacity="0.1" d="M152.452 103.658C151.204 103.277 150.071 102.407 148.786 102.239C148.451 102.253 148.122 102.14 147.851 101.918C147.7 101.752 147.595 101.54 147.548 101.308C148.409 101.258 149.408 101.666 150.19 102.052C150.621 102.259 151.035 102.507 151.428 102.792C151.714 102.987 152.142 103.548 152.452 103.658Z" fill="black"/>
<path d="M176.241 69.4901C176.03 71.0766 176.335 72.6953 177.1 74.0499C177.866 75.4044 179.041 76.4043 180.409 76.8664C180.243 77.7708 179.41 78.2707 178.821 78.9156C177.992 79.82 177.563 81.1746 176.584 81.8615C175.492 82.6247 174.088 82.327 172.844 82.0065C172.73 81.9923 172.626 81.931 172.551 81.8348C172.526 81.7891 172.507 81.7387 172.497 81.686C172.085 79.9955 171.817 78.1905 172.238 76.4962C172.578 75.0538 173.394 73.8251 174.047 72.5505C174.7 71.276 174.761 69.9099 176.241 69.4901Z" fill="#7FAB96"/>
<path d="M145.838 47.6093C144.522 47.7168 143.244 48.1536 142.098 48.8876C141.336 49.3761 140.554 50.0324 139.683 49.9141C139.17 49.8493 138.663 49.5325 138.163 49.6852C137.882 49.8127 137.619 49.9877 137.385 50.2042C137.266 50.3104 137.124 50.3804 136.974 50.4071C136.824 50.4339 136.67 50.4165 136.528 50.3568L136.188 55.6381C136.059 57.6453 135.933 59.6945 136.361 61.6521C136.582 62.6519 137.069 63.5601 137.123 64.5751C137.177 65.5902 137.096 66.6319 137.16 67.6584C137.222 68.6086 137.409 69.5435 137.456 70.4937C137.551 72.2872 137.157 74.0654 136.776 75.8093C136.201 78.3813 135.855 81.0105 134.736 83.3383C134.423 83.9832 134.056 84.6395 134.056 85.3722C134.056 85.4638 134.056 85.5515 134.076 85.6393C133.736 85.8492 133.42 86.0476 133.131 86.2537C132.485 86.7231 131.795 87.2458 131.529 88.0586C131.315 88.7188 131.414 89.4744 131.155 90.1116C130.897 90.7489 130.305 91.203 130.176 91.8899C130.084 92.3898 130.261 92.9164 130.176 93.4163C130.099 93.6749 130.037 93.9387 129.989 94.2062C129.955 94.7786 130.387 95.2403 130.815 95.5532C131.44 96.0154 132.13 96.3559 132.855 96.5606L134.885 87.5168C136.736 83.6765 138.276 79.6573 139.486 75.5079C139.832 74.1516 140.277 72.8293 140.816 71.5545C141.201 70.8334 141.541 70.0837 141.836 69.3107C142.145 68.3491 142.176 67.3074 142.325 66.2923C142.503 65.1076 142.77 63.9421 143.125 62.8083C143.492 61.5834 143.917 60.3623 143.992 59.0763C144.104 57.237 143.509 55.2947 144.141 53.5927C144.41 52.9557 144.759 52.3658 145.178 51.8412C146.056 50.6354 146.855 49.3723 147.732 48.1664C147.276 47.6207 146.518 47.5635 145.838 47.6093Z" fill="#7FAB96"/>
<g opacity="0.1">
<path opacity="0.1" d="M155.42 26.5031L154.995 26.5373L154.948 26.5754C155.107 26.5681 155.265 26.5439 155.42 26.5031V26.5031Z" fill="black"/>
<path opacity="0.1" d="M163.2 34.4251C163.129 35.1838 162.983 35.9312 162.765 36.6536C162.624 37.0921 162.511 37.5409 162.425 37.9969C162.357 38.4395 162.35 38.8898 162.289 39.3324C162.214 39.9064 162.037 40.4577 161.769 40.9538C161.501 41.4499 161.147 41.8808 160.728 42.2211C160.609 42.3302 160.46 42.3908 160.307 42.3929C160.041 42.3585 159.878 42.0113 159.779 41.6984C159.239 39.9468 159.368 37.8061 158.372 36.4094C157.918 35.846 157.371 35.3883 156.76 35.0624C156.511 34.8821 156.23 34.7637 155.937 34.7151C155.506 34.7411 155.091 34.9112 154.747 35.2036C154.029 35.7438 153.233 36.139 152.394 36.3713C151.975 36.4826 151.54 36.4876 151.119 36.3859C150.698 36.2842 150.303 36.0785 149.963 35.7836C149.493 35.3486 149.15 34.696 148.63 34.3564C148.109 34.0168 147.565 34.0359 147.052 33.8031C146.731 33.6494 146.445 33.4165 146.216 33.1219C145.986 32.8273 145.819 32.4784 145.726 32.1012C145.714 32.0536 145.705 32.0051 145.699 31.9562C145.614 32.3821 145.623 32.825 145.726 33.246C145.819 33.6232 145.986 33.9721 146.216 34.2667C146.445 34.5613 146.731 34.7942 147.052 34.9479C147.565 35.1807 148.143 35.1845 148.63 35.5012C149.116 35.8179 149.493 36.4934 149.963 36.9284C150.303 37.2232 150.698 37.429 151.119 37.5307C151.54 37.6324 151.975 37.6274 152.394 37.516C153.233 37.2838 154.029 36.8886 154.747 36.3483C155.091 36.056 155.506 35.8859 155.937 35.8599C156.23 35.9085 156.511 36.0269 156.76 36.2072C157.363 36.5394 157.903 37.0009 158.348 37.5656C159.344 38.9623 159.215 41.1031 159.756 42.8546C159.854 43.1713 160.018 43.5148 160.283 43.5491C160.446 43.55 160.604 43.485 160.728 43.3659C161.149 43.0246 161.504 42.5921 161.772 42.0939C162.041 41.5957 162.218 41.0421 162.292 40.4658C162.354 40.0231 162.36 39.5729 162.428 39.1302C162.514 38.6743 162.628 38.2255 162.768 37.787C163.1 36.7593 163.253 35.67 163.221 34.5777C163.214 34.532 163.207 34.4785 163.2 34.4251Z" fill="black"/>
</g>
<path d="M141.686 65.0445L141.455 68.5285C141.421 69.0016 140.615 80.2664 134.671 93.4315C129.571 104.723 119.645 119.43 100.906 127.695C99.4436 128.344 97.9259 128.949 96.3527 129.512L94.5981 123.33C99.0031 121.774 103.246 119.691 107.254 117.117C116.806 110.928 124.232 102.094 129.411 90.726C132.159 84.6735 134.117 78.2093 135.226 71.5316H113.905V65.0445H141.686Z" fill="#FDEF25"/>
<path opacity="0.1" d="M98.6106 127.699C117.346 119.434 127.276 104.731 132.373 93.4392C138.316 80.274 139.126 69.0169 139.156 68.5361L139.388 65.0521H141.768L141.537 68.5361C141.506 69.0093 140.697 80.274 134.753 93.4392C129.652 104.731 119.727 119.434 100.991 127.699C99.5287 128.348 98.0098 128.954 96.4343 129.519L96.2031 128.706C97.0237 128.378 97.8262 128.042 98.6106 127.699Z" fill="white"/>
<path d="M61.0979 123.33L59.3433 129.512C57.7678 128.947 56.249 128.34 54.7869 127.691C36.0509 119.426 26.1219 104.723 21.0248 93.4315C15.081 80.2664 14.2717 69.0093 14.2411 68.5285L14.0099 65.0445H41.7771V71.5316H20.4535C21.5682 78.2102 23.5321 84.6743 26.2851 90.726C31.4639 102.094 38.8868 110.928 48.4384 117.113C52.4469 119.69 56.6913 121.774 61.0979 123.33V123.33Z" fill="#FDEF25"/>
<path opacity="0.1" d="M57.0787 127.699C38.3428 119.434 28.4138 104.731 23.3166 93.4392C17.3728 80.274 16.5635 69.0169 16.5329 68.5361L16.3017 65.0521H13.9215L14.1527 68.5361C14.1833 69.0093 14.9926 80.274 20.9364 93.4392C26.0369 104.731 35.9625 119.434 54.6985 127.699C56.1606 128.348 57.6794 128.954 59.2549 129.519L59.4862 128.706C58.6678 128.378 57.8653 128.042 57.0787 127.699Z" fill="white"/>
<path d="M109.924 183.088V218.069H45.7691V183.088L47.8093 180.035C68.5991 171.754 72.8121 150.16 73.652 141.616C73.777 140.435 73.8485 139.248 73.8662 138.059H81.7992C81.817 139.248 81.8885 140.435 82.0135 141.616C82.8669 150.16 87.08 171.762 107.856 180.035L109.924 183.088Z" fill="#FDEF25"/>
<path opacity="0.1" d="M109.924 183.088H45.7691V187.476H109.924V183.088Z" fill="black"/>
<path opacity="0.1" d="M51.2097 180.035C71.9994 171.754 76.2124 150.16 77.0523 141.616C77.1773 140.435 77.2488 139.248 77.2666 138.059H73.8662C73.8485 139.248 73.777 140.435 73.652 141.616C72.7985 150.16 68.5855 171.762 47.8093 180.035L45.7691 183.088V218.069H49.1695V183.088L51.2097 180.035Z" fill="white"/>
<path opacity="0.1" d="M36.0238 65.0445H41.7771V71.5316H36.5338C36.3275 69.3947 36.1575 67.2323 36.0238 65.0445Z" fill="black"/>
<path opacity="0.1" d="M61.0979 123.33L59.3433 129.512C57.7678 128.947 56.249 128.34 54.7869 127.691C52.3816 124.395 50.2562 120.854 48.4384 117.113C52.4469 119.69 56.6913 121.774 61.0979 123.33Z" fill="black"/>
<path opacity="0.1" d="M94.5948 123.33C98.9997 121.774 103.243 119.691 107.251 117.117C105.432 120.858 103.307 124.401 100.902 127.699C99.4402 128.348 97.9226 128.953 96.3493 129.515L94.5948 123.33Z" fill="black"/>
<path opacity="0.1" d="M119.666 65.0445C119.532 67.2323 119.362 69.3947 119.155 71.5316H113.916V65.0445H119.666Z" fill="black"/>
<path opacity="0.1" d="M82.027 141.616C79.2656 142.216 76.4271 142.216 73.6656 141.616C73.7906 140.435 73.8621 139.248 73.8798 138.059H81.8128C81.8305 139.248 81.902 140.435 82.027 141.616V141.616Z" fill="black"/>
<path d="M36.7038 54.2987C36.85 102.403 55.2119 141.303 77.848 141.303C100.484 141.303 118.843 102.403 118.992 54.2987H36.7038Z" fill="#FDEF25"/>
<path opacity="0.1" d="M44.0145 54.2987H36.7038C36.85 102.403 55.2119 141.303 77.848 141.303C79.0729 141.3 80.2956 141.184 81.5034 140.956C60.5777 137.033 44.154 99.7851 44.0145 54.2987Z" fill="white"/>
<path d="M99.6647 196.478H56.028V209.071H99.6647V196.478Z" fill="#7FAB96"/>
<path opacity="0.1" d="M58.0682 198.195H99.6647V196.478H56.028V209.071H58.0682V198.195Z" fill="white"/>
<defs>
<linearGradient id="paint0_linear" x1="161.922" y1="162.68" x2="161.922" y2="9.16335" gradientUnits="userSpaceOnUse">
<stop stop-color="#808080" stop-opacity="0.25"/>
<stop offset="0.54" stop-color="#808080" stop-opacity="0.12"/>
<stop offset="1" stop-color="#808080" stop-opacity="0.1"/>
</linearGradient>
</defs>
</svg>
